<svg width="261" height="60" viewBox="0 0 261 60" fill="none" xmlns="http://www.w3.org/2000/svg">
<g filter="url(#filter0_d_689_462)">
<rect x="4" width="253" height="52" rx="26" fill="white" shape-rendering="crispEdges"/>
<path d="M21.2955 19.8636V31.5H19.8864V21.3409H19.8182L16.9773 23.2273V21.7955L19.8864 19.8636H21.2955ZM24.3693 29.1136V27.9545L29.483 19.8636H30.3239V21.6591H29.7557L25.892 27.7727V27.8636H32.7784V29.1136H24.3693ZM29.8466 31.5V28.7614V28.2216V19.8636H31.1875V31.5H29.8466ZM38.3395 29.4545V21.9545H39.6122V29.4545H38.3395ZM35.2259 26.3409V25.0682H42.7259V26.3409H35.2259ZM49.1591 19.8636H50.7727L54 25.2955H54.1364L57.3636 19.8636H58.9773L54.7727 26.7045V31.5H53.3636V26.7045L49.1591 19.8636ZM63.0426 31.6818C62.2017 31.6818 61.4763 31.4962 60.8665 31.125C60.2604 30.75 59.7926 30.2273 59.4631 29.5568C59.1373 28.8826 58.9744 28.0985 58.9744 27.2045C58.9744 26.3106 59.1373 25.5227 59.4631 24.8409C59.7926 24.1553 60.2509 23.6212 60.8381 23.2386C61.429 22.8523 62.1184 22.6591 62.9062 22.6591C63.3608 22.6591 63.8097 22.7348 64.2528 22.8864C64.696 23.0379 65.0994 23.2841 65.4631 23.625C65.8267 23.9621 66.1165 24.4091 66.3324 24.9659C66.5483 25.5227 66.6562 26.2083 66.6562 27.0227V27.5909H59.929V26.4318H65.2926C65.2926 25.9394 65.1941 25.5 64.9972 25.1136C64.804 24.7273 64.5275 24.4223 64.1676 24.1989C63.8116 23.9754 63.3911 23.8636 62.9062 23.8636C62.3722 23.8636 61.91 23.9962 61.5199 24.2614C61.1335 24.5227 60.8362 24.8636 60.6278 25.2841C60.4195 25.7045 60.3153 26.1553 60.3153 26.6364V27.4091C60.3153 28.0682 60.429 28.6269 60.6562 29.0852C60.8873 29.5398 61.2074 29.8864 61.6165 30.125C62.0256 30.3598 62.5009 30.4773 63.0426 30.4773C63.3949 30.4773 63.7131 30.428 63.9972 30.3295C64.285 30.2273 64.5331 30.0758 64.7415 29.875C64.9498 29.6705 65.1108 29.4167 65.2244 29.1136L66.5199 29.4773C66.3835 29.9167 66.1544 30.303 65.8324 30.6364C65.5104 30.9659 65.1127 31.2235 64.6392 31.4091C64.1657 31.5909 63.6335 31.6818 63.0426 31.6818ZM71.2642 31.7045C70.7112 31.7045 70.2093 31.6004 69.7585 31.392C69.3078 31.1799 68.9498 30.875 68.6847 30.4773C68.4195 30.0758 68.2869 29.5909 68.2869 29.0227C68.2869 28.5227 68.3854 28.1174 68.5824 27.8068C68.7794 27.4924 69.0426 27.2462 69.3722 27.0682C69.7017 26.8902 70.0653 26.7576 70.4631 26.6705C70.8646 26.5795 71.268 26.5076 71.6733 26.4545C72.2036 26.3864 72.6335 26.3352 72.9631 26.3011C73.2964 26.2633 73.5388 26.2008 73.6903 26.1136C73.8456 26.0265 73.9233 25.875 73.9233 25.6591V25.6136C73.9233 25.053 73.7699 24.6174 73.4631 24.3068C73.16 23.9962 72.6998 23.8409 72.0824 23.8409C71.4422 23.8409 70.9403 23.9811 70.5767 24.2614C70.2131 24.5417 69.9574 24.8409 69.8097 25.1591L68.5369 24.7045C68.7642 24.1742 69.0672 23.7614 69.446 23.4659C69.8286 23.1667 70.2453 22.9583 70.696 22.8409C71.1506 22.7197 71.5975 22.6591 72.0369 22.6591C72.3172 22.6591 72.6392 22.6932 73.0028 22.7614C73.3703 22.8258 73.7244 22.9602 74.0653 23.1648C74.41 23.3693 74.696 23.678 74.9233 24.0909C75.1506 24.5038 75.2642 25.0568 75.2642 25.75V31.5H73.9233V30.3182H73.8551C73.7642 30.5076 73.6127 30.7102 73.4006 30.9261C73.1884 31.142 72.9063 31.3258 72.554 31.4773C72.2017 31.6288 71.7718 31.7045 71.2642 31.7045ZM71.4688 30.5C71.9991 30.5 72.446 30.3958 72.8097 30.1875C73.1771 29.9792 73.4536 29.7102 73.6392 29.3807C73.8286 29.0511 73.9233 28.7045 73.9233 28.3409V27.1136C73.8665 27.1818 73.7415 27.2443 73.5483 27.3011C73.3589 27.3542 73.1392 27.4015 72.8892 27.4432C72.643 27.4811 72.4025 27.5152 72.1676 27.5455C71.9366 27.572 71.7491 27.5947 71.6051 27.6136C71.2566 27.6591 70.9309 27.733 70.6278 27.8352C70.3286 27.9337 70.0862 28.0833 69.9006 28.2841C69.7188 28.4811 69.6278 28.75 69.6278 29.0909C69.6278 29.5568 69.8002 29.9091 70.1449 30.1477C70.4934 30.3826 70.9347 30.5 71.4688 30.5ZM77.7116 31.5V22.7727H79.0071V24.0909H79.098C79.2571 23.6591 79.545 23.3087 79.9616 23.0398C80.3783 22.7708 80.848 22.6364 81.3707 22.6364C81.4692 22.6364 81.5923 22.6383 81.7401 22.642C81.8878 22.6458 81.9995 22.6515 82.0753 22.6591V24.0227C82.0298 24.0114 81.9257 23.9943 81.7628 23.9716C81.6037 23.9451 81.4351 23.9318 81.2571 23.9318C80.8329 23.9318 80.4541 24.0208 80.1207 24.1989C79.7912 24.3731 79.5298 24.6155 79.3366 24.9261C79.1473 25.233 79.0526 25.5833 79.0526 25.9773V31.5H77.7116ZM89.8466 24.7273L88.642 25.0682C88.5663 24.8674 88.4545 24.6723 88.3068 24.483C88.1629 24.2898 87.9659 24.1307 87.7159 24.0057C87.4659 23.8807 87.1458 23.8182 86.7557 23.8182C86.2216 23.8182 85.7765 23.9413 85.4205 24.1875C85.0682 24.4299 84.892 24.7386 84.892 25.1136C84.892 25.447 85.0133 25.7102 85.2557 25.9034C85.4981 26.0966 85.8769 26.2576 86.392 26.3864L87.6875 26.7045C88.4678 26.8939 89.0492 27.1837 89.4318 27.5739C89.8144 27.9602 90.0057 28.4583 90.0057 29.0682C90.0057 29.5682 89.8617 30.0152 89.5739 30.4091C89.2898 30.803 88.892 31.1136 88.3807 31.3409C87.8693 31.5682 87.2746 31.6818 86.5966 31.6818C85.7064 31.6818 84.9697 31.4886 84.3864 31.1023C83.803 30.7159 83.4337 30.1515 83.2784 29.4091L84.5511 29.0909C84.6723 29.5606 84.9015 29.9129 85.2386 30.1477C85.5795 30.3826 86.0246 30.5 86.5739 30.5C87.1989 30.5 87.6951 30.3674 88.0625 30.1023C88.4337 29.8333 88.6193 29.5114 88.6193 29.1364C88.6193 28.8333 88.5133 28.5795 88.3011 28.375C88.089 28.1667 87.7633 28.0114 87.3239 27.9091L85.8693 27.5682C85.0701 27.3788 84.483 27.0852 84.108 26.6875C83.7367 26.286 83.5511 25.7841 83.5511 25.1818C83.5511 24.6894 83.6894 24.2538 83.9659 23.875C84.2462 23.4962 84.6269 23.1989 85.108 22.983C85.5928 22.767 86.142 22.6591 86.7557 22.6591C87.6193 22.6591 88.2973 22.8485 88.7898 23.2273C89.286 23.6061 89.6383 24.1061 89.8466 24.7273ZM100.07 31.6818C99.2817 31.6818 98.5904 31.4943 97.9957 31.1193C97.4048 30.7443 96.9427 30.2197 96.6094 29.5455C96.2798 28.8712 96.1151 28.0833 96.1151 27.1818C96.1151 26.2727 96.2798 25.4792 96.6094 24.8011C96.9427 24.1231 97.4048 23.5966 97.9957 23.2216C98.5904 22.8466 99.2817 22.6591 100.07 22.6591C100.857 22.6591 101.547 22.8466 102.138 23.2216C102.732 23.5966 103.195 24.1231 103.524 24.8011C103.857 25.4792 104.024 26.2727 104.024 27.1818C104.024 28.0833 103.857 28.8712 103.524 29.5455C103.195 30.2197 102.732 30.7443 102.138 31.1193C101.547 31.4943 100.857 31.6818 100.07 31.6818ZM100.07 30.4773C100.668 30.4773 101.161 30.3239 101.547 30.017C101.933 29.7102 102.219 29.3068 102.405 28.8068C102.59 28.3068 102.683 27.7652 102.683 27.1818C102.683 26.5985 102.59 26.0549 102.405 25.5511C102.219 25.0473 101.933 24.6402 101.547 24.3295C101.161 24.0189 100.668 23.8636 100.07 23.8636C99.4711 23.8636 98.9787 24.0189 98.5923 24.3295C98.206 24.6402 97.92 25.0473 97.7344 25.5511C97.5488 26.0549 97.456 26.5985 97.456 27.1818C97.456 27.7652 97.5488 28.3068 97.7344 28.8068C97.92 29.3068 98.206 29.7102 98.5923 30.017C98.9787 30.3239 99.4711 30.4773 100.07 30.4773ZM109.957 22.7727V23.9091H105.253V22.7727H109.957ZM106.662 31.5V21.5682C106.662 21.0682 106.779 20.6515 107.014 20.3182C107.249 19.9848 107.554 19.7348 107.929 19.5682C108.304 19.4015 108.7 19.3182 109.116 19.3182C109.446 19.3182 109.715 19.3447 109.923 19.3977C110.132 19.4508 110.287 19.5 110.389 19.5455L110.003 20.7045C109.935 20.6818 109.84 20.6534 109.719 20.6193C109.601 20.5852 109.446 20.5682 109.253 20.5682C108.81 20.5682 108.49 20.6799 108.293 20.9034C108.099 21.1269 108.003 21.4545 108.003 21.8864V31.5H106.662ZM116.518 31.5V19.8636H123.541V21.1136H117.928V25.0455H123.178V26.2955H117.928V30.25H123.632V31.5H116.518ZM126.899 22.7727L128.99 26.3409L131.081 22.7727H132.626L129.808 27.1364L132.626 31.5H131.081L128.99 28.1136L126.899 31.5H125.354L128.126 27.1364L125.354 22.7727H126.899ZM134.54 34.7727V22.7727H135.835V24.1591H135.994C136.093 24.0076 136.229 23.8144 136.403 23.5795C136.581 23.3409 136.835 23.1288 137.165 22.9432C137.498 22.7538 137.949 22.6591 138.517 22.6591C139.252 22.6591 139.9 22.8428 140.46 23.2102C141.021 23.5777 141.458 24.0985 141.773 24.7727C142.087 25.447 142.244 26.2424 142.244 27.1591C142.244 28.0833 142.087 28.8845 141.773 29.5625C141.458 30.2367 141.023 30.7595 140.466 31.1307C139.909 31.4981 139.267 31.6818 138.54 31.6818C137.979 31.6818 137.53 31.589 137.193 31.4034C136.856 31.214 136.597 31 136.415 30.7614C136.233 30.5189 136.093 30.3182 135.994 30.1591H135.881V34.7727H134.54ZM135.858 27.1364C135.858 27.7955 135.955 28.3769 136.148 28.8807C136.341 29.3807 136.623 29.7727 136.994 30.0568C137.366 30.3371 137.82 30.4773 138.358 30.4773C138.919 30.4773 139.386 30.3295 139.761 30.0341C140.14 29.7348 140.424 29.3333 140.614 28.8295C140.807 28.322 140.903 27.7576 140.903 27.1364C140.903 26.5227 140.809 25.9697 140.619 25.4773C140.434 24.9811 140.152 24.589 139.773 24.3011C139.398 24.0095 138.926 23.8636 138.358 23.8636C137.813 23.8636 137.354 24.0019 136.983 24.2784C136.612 24.5511 136.331 24.9337 136.142 25.4261C135.953 25.9148 135.858 26.4848 135.858 27.1364ZM147.949 31.6818C147.108 31.6818 146.383 31.4962 145.773 31.125C145.167 30.75 144.699 30.2273 144.369 29.5568C144.044 28.8826 143.881 28.0985 143.881 27.2045C143.881 26.3106 144.044 25.5227 144.369 24.8409C144.699 24.1553 145.157 23.6212 145.744 23.2386C146.335 22.8523 147.025 22.6591 147.812 22.6591C148.267 22.6591 148.716 22.7348 149.159 22.8864C149.602 23.0379 150.006 23.2841 150.369 23.625C150.733 23.9621 151.023 24.4091 151.239 24.9659C151.455 25.5227 151.562 26.2083 151.562 27.0227V27.5909H144.835V26.4318H150.199C150.199 25.9394 150.1 25.5 149.903 25.1136C149.71 24.7273 149.434 24.4223 149.074 24.1989C148.718 23.9754 148.297 23.8636 147.812 23.8636C147.278 23.8636 146.816 23.9962 146.426 24.2614C146.04 24.5227 145.742 24.8636 145.534 25.2841C145.326 25.7045 145.222 26.1553 145.222 26.6364V27.4091C145.222 28.0682 145.335 28.6269 145.562 29.0852C145.794 29.5398 146.114 29.8864 146.523 30.125C146.932 30.3598 147.407 30.4773 147.949 30.4773C148.301 30.4773 148.619 30.428 148.903 30.3295C149.191 30.2273 149.439 30.0758 149.648 29.875C149.856 29.6705 150.017 29.4167 150.131 29.1136L151.426 29.4773C151.29 29.9167 151.061 30.303 150.739 30.6364C150.417 30.9659 150.019 31.2235 149.545 31.4091C149.072 31.5909 148.54 31.6818 147.949 31.6818ZM153.602 31.5V22.7727H154.898V24.0909H154.989C155.148 23.6591 155.436 23.3087 155.852 23.0398C156.269 22.7708 156.739 22.6364 157.261 22.6364C157.36 22.6364 157.483 22.6383 157.631 22.642C157.778 22.6458 157.89 22.6515 157.966 22.6591V24.0227C157.92 24.0114 157.816 23.9943 157.653 23.9716C157.494 23.9451 157.326 23.9318 157.148 23.9318C156.723 23.9318 156.345 24.0208 156.011 24.1989C155.682 24.3731 155.42 24.6155 155.227 24.9261C155.038 25.233 154.943 25.5833 154.943 25.9773V31.5H153.602ZM159.555 31.5V22.7727H160.896V31.5H159.555ZM160.237 21.3182C159.976 21.3182 159.75 21.2292 159.561 21.0511C159.375 20.8731 159.283 20.6591 159.283 20.4091C159.283 20.1591 159.375 19.9451 159.561 19.767C159.75 19.589 159.976 19.5 160.237 19.5C160.499 19.5 160.722 19.589 160.908 19.767C161.097 19.9451 161.192 20.1591 161.192 20.4091C161.192 20.6591 161.097 20.8731 160.908 21.0511C160.722 21.2292 160.499 21.3182 160.237 21.3182ZM167.011 31.6818C166.17 31.6818 165.445 31.4962 164.835 31.125C164.229 30.75 163.761 30.2273 163.432 29.5568C163.106 28.8826 162.943 28.0985 162.943 27.2045C162.943 26.3106 163.106 25.5227 163.432 24.8409C163.761 24.1553 164.22 23.6212 164.807 23.2386C165.398 22.8523 166.087 22.6591 166.875 22.6591C167.33 22.6591 167.778 22.7348 168.222 22.8864C168.665 23.0379 169.068 23.2841 169.432 23.625C169.795 23.9621 170.085 24.4091 170.301 24.9659C170.517 25.5227 170.625 26.2083 170.625 27.0227V27.5909H163.898V26.4318H169.261C169.261 25.9394 169.163 25.5 168.966 25.1136C168.773 24.7273 168.496 24.4223 168.136 24.1989C167.78 23.9754 167.36 23.8636 166.875 23.8636C166.341 23.8636 165.879 23.9962 165.489 24.2614C165.102 24.5227 164.805 24.8636 164.597 25.2841C164.388 25.7045 164.284 26.1553 164.284 26.6364V27.4091C164.284 28.0682 164.398 28.6269 164.625 29.0852C164.856 29.5398 165.176 29.8864 165.585 30.125C165.994 30.3598 166.47 30.4773 167.011 30.4773C167.364 30.4773 167.682 30.428 167.966 30.3295C168.254 30.2273 168.502 30.0758 168.71 29.875C168.919 29.6705 169.08 29.4167 169.193 29.1136L170.489 29.4773C170.352 29.9167 170.123 30.303 169.801 30.6364C169.479 30.9659 169.081 31.2235 168.608 31.4091C168.134 31.5909 167.602 31.6818 167.011 31.6818ZM174.006 26.25V31.5H172.665V22.7727H173.96V24.1364H174.074C174.278 23.6932 174.589 23.3371 175.006 23.0682C175.422 22.7955 175.96 22.6591 176.619 22.6591C177.21 22.6591 177.727 22.7803 178.17 23.0227C178.614 23.2614 178.958 23.625 179.205 24.1136C179.451 24.5985 179.574 25.2121 179.574 25.9545V31.5H178.233V26.0455C178.233 25.3598 178.055 24.8258 177.699 24.4432C177.343 24.0568 176.854 23.8636 176.233 23.8636C175.805 23.8636 175.422 23.9564 175.085 24.142C174.752 24.3277 174.489 24.5985 174.295 24.9545C174.102 25.3106 174.006 25.7424 174.006 26.25ZM185.57 31.6818C184.751 31.6818 184.047 31.4886 183.456 31.1023C182.865 30.7159 182.411 30.1837 182.092 29.5057C181.774 28.8277 181.615 28.053 181.615 27.1818C181.615 26.2955 181.778 25.5133 182.104 24.8352C182.433 24.1534 182.892 23.6212 183.479 23.2386C184.07 22.8523 184.759 22.6591 185.547 22.6591C186.161 22.6591 186.714 22.7727 187.206 23C187.698 23.2273 188.102 23.5455 188.416 23.9545C188.731 24.3636 188.926 24.8409 189.001 25.3864H187.661C187.558 24.9886 187.331 24.6364 186.979 24.3295C186.63 24.0189 186.161 23.8636 185.57 23.8636C185.047 23.8636 184.589 24 184.195 24.2727C183.804 24.5417 183.5 24.9223 183.28 25.4148C183.064 25.9034 182.956 26.4773 182.956 27.1364C182.956 27.8106 183.062 28.3977 183.274 28.8977C183.49 29.3977 183.793 29.786 184.183 30.0625C184.577 30.339 185.039 30.4773 185.57 30.4773C185.918 30.4773 186.234 30.4167 186.518 30.2955C186.803 30.1742 187.043 30 187.24 29.7727C187.437 29.5455 187.577 29.2727 187.661 28.9545H189.001C188.926 29.4697 188.738 29.9337 188.439 30.3466C188.143 30.7557 187.751 31.0814 187.263 31.3239C186.778 31.5625 186.214 31.6818 185.57 31.6818ZM194.621 31.6818C193.78 31.6818 193.054 31.4962 192.445 31.125C191.839 30.75 191.371 30.2273 191.041 29.5568C190.715 28.8826 190.553 28.0985 190.553 27.2045C190.553 26.3106 190.715 25.5227 191.041 24.8409C191.371 24.1553 191.829 23.6212 192.416 23.2386C193.007 22.8523 193.696 22.6591 194.484 22.6591C194.939 22.6591 195.388 22.7348 195.831 22.8864C196.274 23.0379 196.678 23.2841 197.041 23.625C197.405 23.9621 197.695 24.4091 197.911 24.9659C198.126 25.5227 198.234 26.2083 198.234 27.0227V27.5909H191.507V26.4318H196.871C196.871 25.9394 196.772 25.5 196.575 25.1136C196.382 24.7273 196.106 24.4223 195.746 24.1989C195.39 23.9754 194.969 23.8636 194.484 23.8636C193.95 23.8636 193.488 23.9962 193.098 24.2614C192.712 24.5227 192.414 24.8636 192.206 25.2841C191.998 25.7045 191.893 26.1553 191.893 26.6364V27.4091C191.893 28.0682 192.007 28.6269 192.234 29.0852C192.465 29.5398 192.786 29.8864 193.195 30.125C193.604 30.3598 194.079 30.4773 194.621 30.4773C194.973 30.4773 195.291 30.428 195.575 30.3295C195.863 30.2273 196.111 30.0758 196.32 29.875C196.528 29.6705 196.689 29.4167 196.803 29.1136L198.098 29.4773C197.962 29.9167 197.732 30.303 197.411 30.6364C197.089 30.9659 196.691 31.2235 196.217 31.4091C195.744 31.5909 195.212 31.6818 194.621 31.6818Z" fill="black"/>
<rect x="211" y="6" width="40" height="40" rx="20" fill="white"/>
<path d="M228.5 26.625L230.375 28.5L233.5 24.125M238.5 26C238.5 26.9849 238.306 27.9602 237.929 28.8701C237.552 29.7801 237 30.6069 236.303 31.3033C235.607 31.9997 234.78 32.5522 233.87 32.9291C232.96 33.306 231.985 33.5 231 33.5C230.015 33.5 229.04 33.306 228.13 32.9291C227.22 32.5522 226.393 31.9997 225.697 31.3033C225 30.6069 224.448 29.7801 224.071 28.8701C223.694 27.9602 223.5 26.9849 223.5 26C223.5 24.0109 224.29 22.1032 225.697 20.6967C227.103 19.2902 229.011 18.5 231 18.5C232.989 18.5 234.897 19.2902 236.303 20.6967C237.71 22.1032 238.5 24.0109 238.5 26Z" stroke="url(#paint0_linear_689_462)" stroke-width="1.5" stroke-linecap="round" stroke-linejoin="round"/>
</g>
<defs>
<filter id="filter0_d_689_462" x="0" y="0" width="261" height="60" filterUnits="userSpaceOnUse" color-interpolation-filters="sRGB">
<feFlood flood-opacity="0" result="BackgroundImageFix"/>
<feColorMatrix in="SourceAlpha" type="matrix" values="0 0 0 0 0 0 0 0 0 0 0 0 0 0 0 0 0 0 127 0" result="hardAlpha"/>
<feOffset dy="4"/>
<feGaussianBlur stdDeviation="2"/>
<feComposite in2="hardAlpha" operator="out"/>
<feColorMatrix type="matrix" values="0 0 0 0 0 0 0 0 0 0 0 0 0 0 0 0 0 0 0.15 0"/>
<feBlend mode="normal" in2="BackgroundImageFix" result="effect1_dropShadow_689_462"/>
<feBlend mode="normal" in="SourceGraphic" in2="effect1_dropShadow_689_462" result="shape"/>
</filter>
<linearGradient id="paint0_linear_689_462" x1="223.5" y1="26" x2="238.5" y2="26" gradientUnits="userSpaceOnUse">
<stop stop-color="#984D95"/>
<stop offset="1" stop-color="#D39CC0"/>
</linearGradient>
</defs>
</svg>
