<svg width="30" height="30" viewBox="0 0 30 30" fill="none" xmlns="http://www.w3.org/2000/svg">
<rect width="30" height="30" rx="15" fill="white"/>
<g clip-path="url(#clip0_28_121)">
<path d="M25.5803 15.1686C25.5803 14.4312 25.5205 13.893 25.391 13.335H16.97V16.6634H21.9129C21.8133 17.4906 21.2751 18.7363 20.0792 19.5734L20.0625 19.6848L22.725 21.7475L22.9095 21.7659C24.6036 20.2013 25.5803 17.8992 25.5803 15.1686Z" fill="#4285F4"/>
<path d="M16.97 23.9384C19.3916 23.9384 21.4246 23.1411 22.9095 21.7659L20.0793 19.5734C19.3219 20.1015 18.3054 20.4703 16.97 20.4703C14.5982 20.4703 12.5851 18.9057 11.8675 16.7432L11.7624 16.7521L8.99379 18.8947L8.95759 18.9954C10.4325 21.9252 13.4621 23.9384 16.97 23.9384Z" fill="#34A853"/>
<path d="M11.8676 16.7431C11.6782 16.185 11.5686 15.587 11.5686 14.9692C11.5686 14.3513 11.6782 13.7534 11.8576 13.1953L11.8526 13.0765L9.04933 10.8994L8.95761 10.943C8.34973 12.1589 8.00093 13.5242 8.00093 14.9692C8.00093 16.4142 8.34973 17.7795 8.95761 18.9953L11.8676 16.7431Z" fill="#FBBC05"/>
<path d="M16.97 9.46802C18.6542 9.46802 19.7902 10.1955 20.438 10.8035L22.9693 8.33196C21.4147 6.88695 19.3916 6 16.97 6C13.4621 6 10.4325 8.01305 8.95759 10.9429L11.8576 13.1952C12.5851 11.0326 14.5982 9.46802 16.97 9.46802Z" fill="#EB4335"/>
</g>
<defs>
<clipPath id="clip0_28_121">
<rect width="17.5896" height="18" fill="white" transform="translate(8 6)"/>
</clipPath>
</defs>
</svg>
