<svg width="18" height="18" viewBox="0 0 18 18" fill="none" xmlns="http://www.w3.org/2000/svg">
<path d="M1 4.625C1 11.5283 6.59667 17.125 13.5 17.125H15.375C15.8723 17.125 16.3492 16.9275 16.7008 16.5758C17.0525 16.2242 17.25 15.7473 17.25 15.25V14.1067C17.25 13.6767 16.9575 13.3017 16.54 13.1975L12.8542 12.2758C12.4875 12.1842 12.1025 12.3217 11.8767 12.6233L11.0683 13.7008C10.8333 14.0142 10.4275 14.1525 10.06 14.0175C8.69573 13.5159 7.45679 12.7238 6.42898 11.696C5.40118 10.6682 4.60906 9.42927 4.1075 8.065C3.9725 7.6975 4.11083 7.29167 4.42417 7.05667L5.50167 6.24833C5.80417 6.0225 5.94083 5.63667 5.84917 5.27083L4.9275 1.585C4.87678 1.38225 4.75977 1.20225 4.59504 1.07361C4.43032 0.944976 4.22734 0.875069 4.01833 0.875H2.875C2.37772 0.875 1.90081 1.07254 1.54917 1.42417C1.19754 1.77581 1 2.25272 1 2.75V4.625Z" stroke="white" stroke-width="1.5" stroke-linecap="round" stroke-linejoin="round"/>
</svg>
