<svg width="48" height="48" viewBox="0 0 48 48" fill="none" xmlns="http://www.w3.org/2000/svg">
<path d="M21.686 0.180775C19.7585 0.602104 18.2627 1.34997 16.4194 2.82462L16.1561 3.03529L15.1554 2.77196C8.97239 1.1709 4.04282 1.60276 1.68337 3.97275C0.672176 4.99448 0.145513 6.269 0.0191139 8.02806C-0.0651522 9.26045 0.124447 10.2506 0.68271 11.346C1.23044 12.431 1.87297 13.1894 2.81043 13.853C3.20016 14.1268 3.75842 14.5692 4.05336 14.8431C5.84401 16.4968 8.43519 16.5073 10.1205 14.8641C11.5741 13.4422 11.5636 11.1038 10.0995 9.73445C8.85652 8.57579 7.1396 8.22819 5.54908 8.82859C5.22255 8.94445 4.83282 9.14458 4.67482 9.27098C4.52735 9.38685 4.36935 9.46058 4.33775 9.41845C4.30615 9.38685 4.25349 9.12352 4.22189 8.83912C4.19029 8.43885 4.23242 8.19659 4.41149 7.83846C5.21201 6.1742 7.43453 5.86874 10.8157 6.94313C12.3536 7.43819 13.1752 7.83846 13.112 8.05966C12.7433 9.38685 12.6801 11.6094 12.9856 13.0419C13.0804 13.537 13.3648 14.3902 13.5965 14.9379C14.2496 16.4968 14.5234 17.3289 14.7446 18.4665C15.0185 19.8675 15.0185 21.8898 14.7446 23.7858C14.6288 24.5653 14.5024 25.5449 14.4602 25.9557C14.376 26.9247 14.5761 28.7365 14.9026 29.853C15.4293 31.6752 15.8927 32.5179 17.7361 35.0564L19.1581 37.0051V41.1341C19.1581 45.1368 19.1686 45.2842 19.3687 45.4844C19.6742 45.7898 20.1482 45.7582 20.4221 45.4106C20.6327 45.1368 20.6432 45.063 20.6117 40.7549L20.58 36.3731L19.0633 34.3402C18.2417 33.2131 17.3463 31.9175 17.1041 31.4435C16.5353 30.3902 16.1666 29.1157 15.9981 27.7358C15.8611 26.6087 15.8927 26.1031 16.2298 23.8912C16.7354 20.5732 16.3878 17.5607 15.1976 14.9695C14.3022 12.9998 14.06 11.3144 14.3865 9.21832C14.4181 9.00765 14.5024 8.82859 14.5656 8.82859C14.8289 8.82859 16.0297 10.0504 16.5669 10.8615C17.241 11.8832 17.6202 12.8944 17.8625 14.2848C18.0521 15.3697 18.1047 19.1617 17.9994 24.2598L17.9467 26.6825L18.2417 27.5251C18.4102 27.9886 18.7894 28.7681 19.0949 29.2631C19.9165 30.6008 20.0955 31.1064 20.2219 32.3915C20.2746 33.0235 20.4115 33.7082 20.5168 33.9504C20.8855 34.7931 21.7808 35.4356 22.7394 35.5515L23.245 35.6147L23.2871 38.3639C23.3292 40.9761 23.3398 41.1552 23.6031 41.9241C24.0244 43.1986 24.5722 44.0729 25.5307 45.0209C26.2259 45.7161 26.584 45.9689 27.3845 46.3691C28.8381 47.0854 29.3648 47.1697 32.6406 47.1697C35.906 47.1697 36.4431 47.0854 37.8546 46.3902C39.0133 45.8214 40.0034 44.9472 40.7407 43.8517C41.6045 42.5561 42.0152 41.1236 42.0152 39.4172V38.5324H42.584C43.4372 38.5324 43.4899 38.4165 43.4899 36.6153V35.1618H44.2272C45.4807 35.1618 45.3859 35.6358 45.3859 29.5265V24.3125H46.2812C47.3029 24.3125 47.5979 24.144 47.5979 23.5752C47.5979 23.3961 47.5031 23.1644 47.3872 23.0485C47.1976 22.8589 47.0396 22.8378 45.3332 22.8378H43.4794L43.511 22.0794L43.5426 21.3105L44.1219 21.2789C46.197 21.163 46.8711 18.6035 45.1226 17.5185L44.617 17.2025H41.2885C38.0863 17.2025 37.9389 17.2131 37.5386 17.4237C36.7907 17.824 36.4326 18.4244 36.4326 19.2565C36.4326 20.4257 37.2015 21.1946 38.4339 21.2789L39.0133 21.3105L39.0449 22.0794L39.0765 22.8378H37.2437C35.611 22.8378 35.3793 22.8589 35.1581 23.0274C34.8316 23.3013 34.8316 23.849 35.1581 24.1229C35.3582 24.2704 35.5794 24.3125 36.2852 24.3125H37.1699V29.5159C37.1699 35.5936 37.0857 35.1407 38.2759 35.1828L39.0133 35.2144L39.0449 36.6891C39.0765 38.4481 39.1186 38.5324 39.9823 38.5324H40.5406V39.3224C40.5406 41.2184 39.9402 42.7246 38.7078 43.957C37.8967 44.7576 37.033 45.2526 35.9586 45.537C35.0633 45.7688 30.2285 45.7688 29.3227 45.537C27.69 45.1157 26.0995 43.8517 25.4043 42.4192C24.8355 41.2605 24.7407 40.6496 24.7407 37.9952V35.6147L25.2568 35.5515C26.2153 35.4356 27.1001 34.8036 27.4899 33.9504C27.5952 33.7187 27.7216 33.0446 27.7848 32.4547C27.9112 31.275 28.2377 30.2638 28.7223 29.5475C29.2279 28.8207 29.6703 27.8517 29.9125 26.9774C30.1127 26.2401 30.1337 25.9978 30.0705 24.4705C29.7229 15.6436 29.9231 13.379 31.2819 11.0616C31.6716 10.4086 33.1884 8.82859 33.4201 8.82859C33.7572 8.82859 33.8414 11.4303 33.557 12.7996C33.4622 13.2104 33.2621 13.853 33.1146 14.2216C32.5458 15.5593 31.9033 17.5396 31.7348 18.5192C31.4609 20.036 31.4925 22.1321 31.798 23.9965C32.1456 26.0715 32.135 27.7463 31.7558 29.1894C31.3345 30.8431 30.7552 31.907 28.9751 34.3191L27.374 36.4784V39.1223C27.374 41.6397 27.3845 41.7872 27.5952 42.0505C27.8585 42.3876 28.3325 42.4192 28.638 42.1137C28.8381 41.9136 28.8487 41.7661 28.8487 39.4488V36.984L30.1232 35.2566C32.1666 32.4758 32.6828 31.5172 33.1673 29.6107C33.6413 27.7358 33.6729 26.3665 33.2726 23.8385C32.9777 21.9214 32.925 20.9945 33.062 19.7937C33.22 18.3401 33.5676 17.034 34.168 15.5699C34.8105 14.011 35.0212 13.2736 35.1686 12.0096C35.3056 10.9142 35.2529 9.73445 35.0106 8.61792C34.9369 8.23872 34.9053 7.90166 34.9474 7.84899C34.9896 7.80686 35.4741 7.58566 36.0324 7.36446C37.4859 6.76406 39.0238 6.3954 40.3299 6.3322C41.299 6.29007 41.5097 6.31113 42.0468 6.51127C43.216 6.95367 43.8796 7.83846 43.7848 8.83912C43.7532 9.12352 43.7006 9.38685 43.669 9.41845C43.6374 9.46058 43.4794 9.38685 43.3319 9.27098C43.1739 9.14458 42.7842 8.94445 42.4576 8.82859C40.8671 8.22819 39.1502 8.57579 37.9073 9.73445C36.4431 11.1038 36.4326 13.4422 37.8862 14.8641C39.5505 16.4968 42.1838 16.4863 43.9534 14.8431C44.2483 14.5692 44.8066 14.1268 45.1858 13.853C47.3872 12.3151 48.3563 9.86085 47.8823 7.0906C47.3872 4.25715 45.2911 2.4665 41.9099 2.00303C39.1713 1.6133 36.6012 1.82396 33.083 2.71929L31.7874 3.04582L31.2924 2.63503C30.0284 1.5817 28.3957 0.728504 26.7947 0.286106C25.5834 -0.0404243 22.95 -0.103622 21.686 0.180775ZM25.8678 1.6133C27.1633 1.88717 28.7223 2.54023 29.5649 3.17222C29.9968 3.49875 29.9968 3.49875 28.1324 3.76208C26.1732 4.04648 23.6452 4.14128 21.8967 3.99382C20.3378 3.85688 18.4523 3.58302 18.2206 3.46716C18.1258 3.40395 18.3049 3.24596 18.7894 2.94049C19.8111 2.28743 21.0435 1.8029 22.2443 1.56063C22.9922 1.4237 25.0988 1.44477 25.8678 1.6133ZM9.96252 3.35129C11.532 3.47769 12.7012 3.68835 15.1238 4.28875C19.0949 5.27888 20.717 5.50008 24.056 5.50008C27.4056 5.50008 28.796 5.29994 33.2937 4.19395C36.1482 3.48822 37.2753 3.33022 39.4346 3.34076C41.5413 3.34076 42.7736 3.56195 43.9534 4.12022C44.9856 4.61528 45.5123 5.11034 45.9442 5.9846C46.8395 7.75419 46.692 9.85032 45.586 11.3987C45.1436 12.0096 44.9646 12.1255 44.9646 11.7884C44.9646 11.6831 44.8908 11.3987 44.8066 11.1564C44.6591 10.7246 44.6591 10.6824 44.933 10.1663C45.9442 8.17553 44.7012 5.75287 42.2996 5.01554C40.5722 4.49941 37.0962 5.12088 34.5261 6.41647C31.324 8.01752 29.4385 10.3243 28.8065 13.3895C28.4695 15.0643 28.3957 16.5389 28.48 20.0992C28.6169 25.5554 28.6064 26.2822 28.4063 26.9458C28.3009 27.2618 27.9112 28.0413 27.532 28.6838C26.7315 30.0321 26.4681 30.7904 26.2996 32.2546C26.2364 32.8444 26.1206 33.4238 26.0363 33.5502C25.8678 33.803 25.2884 34.1084 24.9619 34.1084H24.7407V27.9465C24.7407 21.9214 24.7407 21.7845 24.53 21.5738C24.2562 21.3 23.7506 21.3 23.4767 21.5738C23.266 21.7845 23.266 21.9214 23.266 27.9465V34.1084H23.0448C22.7078 34.1084 22.139 33.803 21.9599 33.5291C21.8756 33.4027 21.7492 32.8128 21.686 32.2335C21.507 30.5903 21.2331 29.8214 20.3167 28.4099C20.0955 28.0623 19.8006 27.5041 19.6637 27.167C19.3898 26.4718 19.3793 25.7766 19.5267 20.1518C19.611 16.5389 19.5478 15.1907 19.2002 13.4106C18.4839 9.77658 15.8295 7.08006 11.5741 5.63701C10.0468 5.12088 9.09879 4.93128 7.65573 4.85754C6.56027 4.80488 6.33907 4.82595 5.67548 5.03661C3.25283 5.81607 2.0731 8.17553 3.08429 10.1874C3.36869 10.7246 3.36869 10.7562 3.21069 11.1564C3.11589 11.3882 3.04216 11.662 3.04216 11.7779C3.04216 12.1255 2.8631 12.0202 2.4207 11.3987C1.6939 10.377 1.52537 9.80818 1.52537 8.40726C1.5359 7.4066 1.57804 7.0906 1.77817 6.56393C2.62083 4.36248 4.27455 3.54089 8.36146 3.25649C8.47733 3.25649 9.20412 3.29862 9.96252 3.35129ZM7.98226 10.1558C8.70906 10.3664 9.49905 11.1248 9.66759 11.7568C9.80452 12.2308 9.74132 12.8102 9.50959 13.2631C9.27786 13.7266 8.56159 14.2848 7.98226 14.4534C7.28707 14.664 6.90787 14.664 6.24427 14.4639C4.20082 13.853 3.88482 11.3355 5.72814 10.377C6.52867 9.96618 7.15014 9.90298 7.98226 10.1558ZM42.1522 10.3138C43.058 10.7667 43.4899 11.4198 43.4899 12.3046C43.4899 13.2947 42.8052 14.1584 41.7625 14.4639C41.0989 14.664 40.7197 14.664 40.0245 14.4534C38.771 14.0847 38.0231 12.905 38.3286 11.7674C38.4971 11.1459 39.2871 10.377 39.9823 10.1558C40.6249 9.94511 41.5518 10.0188 42.1522 10.3138ZM44.5643 18.9932C44.6486 19.1828 44.6486 19.3303 44.5643 19.5093C44.459 19.7411 44.3852 19.7621 43.4267 19.8043C42.0468 19.8675 42.0152 19.899 42.0152 21.5844V22.8378H41.2779H40.5406V21.6792C40.5406 19.9622 40.4353 19.8253 39.0133 19.7937C38.0863 19.7727 37.9073 19.6779 37.9073 19.2671C37.9073 18.7299 37.9389 18.7299 41.299 18.7299H44.4379L44.5643 18.9932ZM43.9112 25.0498V25.7871H43.3108C42.5735 25.7871 42.2154 25.9557 42.0679 26.3454C41.9942 26.5666 42.0047 26.7141 42.1311 26.9247C42.268 27.1881 42.3523 27.2091 43.0686 27.2618L43.8586 27.3145L43.8902 27.8622L43.9218 28.4205H42.5103C41.2358 28.4205 41.0673 28.4415 40.8145 28.6417C40.4985 28.8945 40.4563 29.3053 40.7091 29.6634C40.8566 29.8846 40.9409 29.8951 42.3944 29.8951H43.9112V30.4744V31.0538H43.2266C42.6262 31.0538 42.4998 31.0854 42.2786 31.3171C41.9626 31.6226 41.9415 32.0334 42.2259 32.3178C42.3944 32.4863 42.5735 32.5284 43.1739 32.5284H43.9112V33.1078V33.6871H41.2779H38.6446V28.9998V24.3125H41.2779H43.9112V25.0498ZM42.0152 36.1097V37.0577H41.2779H40.5406V36.1097V35.1618H41.2779H42.0152V36.1097Z" fill="white"/>
<path d="M23.54 7.14325C23.0871 7.28018 22.4551 7.94378 22.0864 8.66004C21.7704 9.29204 21.3701 10.6614 21.3701 11.1354C21.3701 11.9148 21.96 12.8733 22.6131 13.1367C22.8764 13.2525 22.8975 13.2947 22.908 13.9161C22.908 14.664 23.1081 15.1275 23.7823 15.9385C24.351 16.6232 24.488 17.0656 24.2984 17.6239C24.193 17.9609 24.0666 18.0873 23.698 18.2664C22.9396 18.635 22.7289 19.1406 23.1608 19.5725C23.6769 20.0886 24.9514 19.5304 25.5202 18.5297C25.7836 18.0557 25.8362 17.8345 25.8362 17.2657C25.8362 16.3493 25.6677 15.8964 25.0462 15.1485C24.7618 14.8009 24.4774 14.3901 24.4142 14.2427C24.2668 13.8319 24.3932 13.3579 24.646 13.3579C25.2674 13.3579 26.1101 12.7364 26.4366 12.0412C26.6894 11.504 26.6894 11.0511 26.4366 10.0715C26.0469 8.54418 25.2358 7.36445 24.4353 7.14325C24.0034 7.02738 23.9508 7.02738 23.54 7.14325ZM24.2984 8.84964C24.5933 9.17617 24.9093 9.9451 25.0778 10.7246C25.2042 11.3566 25.2042 11.3671 24.9304 11.641C24.6881 11.8832 24.5617 11.9148 24.014 11.9148C23.4768 11.9148 23.3188 11.8727 23.0976 11.662C22.8659 11.4408 22.8343 11.346 22.8869 10.9668C23.0133 10.0399 23.6559 8.61791 23.9613 8.61791C24.0245 8.61791 24.172 8.72324 24.2984 8.84964Z" fill="white"/>
</svg>
