<svg width="53" height="44" viewBox="0 0 53 44" fill="none" xmlns="http://www.w3.org/2000/svg">
<path d="M43.3296 1.26443C40.592 2.27666 38.7976 4.73822 38.7976 7.42983V8.30403L31.2979 13.2502L23.8212 18.1963H22.5329H21.2446L22.4869 17.2991C23.177 16.793 24.0282 16.0108 24.3733 15.5507C25.9146 13.5952 26.8809 10.4435 26.9269 7.2688L26.9499 5.19832L25.0865 5.12931C21.5667 5.01428 17.9318 6.21055 15.8614 8.189L14.8261 9.20123L13.6299 8.23501C11.1683 6.21055 8.01659 5.24434 3.94467 5.22133L1.18404 5.19832L1.20705 7.61387C1.23005 11.3637 2.26529 14.9755 3.96767 17.207C4.26674 17.5981 4.5198 17.9892 4.5198 18.0582C4.5198 18.1273 3.73762 18.1963 2.7714 18.1963H1L1.13803 20.4278C1.52912 27.1453 5.46301 33.5868 11.4444 37.2676L13.3768 38.4409L13.4918 40.6954L13.6069 42.9269L22.6709 42.9959C29.7795 43.0419 31.781 42.9729 31.942 42.7658C32.034 42.6048 32.1261 41.5236 32.1261 40.3503C32.1261 38.4639 32.1721 38.2338 32.5862 38.0958C33.3223 37.8657 36.313 35.8183 37.5783 34.668C41.4662 31.1482 44.2958 25.2359 44.3878 20.3818L44.4338 18.3113L43.2376 18.2423C42.5704 18.1963 42.0183 18.1042 42.0183 18.0352C42.0183 17.9662 42.6164 17.046 43.3296 15.9878L44.6409 14.0553H45.7451C47.6546 14.0553 49.7941 12.8821 50.8523 11.2717C52.6237 8.6031 52.3246 5.26734 50.0931 2.94381C49.633 2.4607 48.8509 1.83956 48.3447 1.58651C47.1715 0.965363 44.5489 0.804329 43.3296 1.26443ZM47.9536 2.52972C51.1284 4.16309 51.9566 8.39605 49.656 11.0647C48.5978 12.3299 47.2865 12.9511 45.4691 13.0891L43.9737 13.1811L42.2714 15.6887L40.569 18.1963H33.1843C28.7903 18.1963 25.9146 18.1042 26.0527 17.9892C26.1677 17.8742 29.3194 15.7577 33.0693 13.2962L39.8788 8.83315V7.45284C39.8788 3.38091 44.3188 0.666294 47.9536 2.52972ZM7.99359 6.67066C10.0871 7.19978 12.1115 8.189 13.3538 9.27025L14.274 10.0754L13.7679 11.1567C13.0547 12.629 12.5946 14.5384 12.4106 16.5169L12.2726 18.1963H9.23587H6.17617L5.34799 17.2761C4.40477 16.2178 3.34653 14.2164 2.84042 12.514C2.40332 11.0186 1.8972 6.8317 2.08125 6.30257C2.21928 5.9805 2.49534 5.9575 4.24374 6.07252C5.34799 6.16454 7.02737 6.4176 7.99359 6.67066ZM25.9146 7.45284C25.9146 9.27025 25.2015 12.0999 24.3733 13.6182C23.5681 15.1136 21.8427 16.7009 20.2094 17.4601C19.0131 18.0122 18.645 18.0812 16.1374 18.0812H13.3768L13.4458 16.816C13.6069 14.0323 14.5731 11.2487 15.9304 9.59232C17.6558 7.52185 21.1526 6.11853 24.8334 6.02651L25.9146 6.00351V7.45284ZM43.4906 19.3005C43.7207 19.6916 43.0995 23.2574 42.4554 25.1899C40.2239 31.8614 34.7717 36.9915 27.9851 38.7859C25.7306 39.3841 21.1296 39.4991 18.76 39.016C9.76499 37.2216 3.09347 29.8369 2.10425 20.6578L1.94321 19.1165H22.6479C34.0585 19.1165 43.4216 19.2085 43.4906 19.3005ZM20.3474 40.3043C21.4746 40.4423 23.2 40.4883 24.3043 40.3963C26.0297 40.2583 29.4114 39.5221 30.5847 39.016C30.9298 38.878 30.9758 39.016 30.9758 40.4883V42.1217H22.8089H14.6421V40.5573V38.97L16.4825 39.4991C17.4947 39.7982 19.2431 40.1433 20.3474 40.3043Z" fill="white" stroke="white"/>
</svg>
