<svg xmlns="http://www.w3.org/2000/svg" fill="none" viewBox="62.52279635258358 149.952 312.61398176291794 419.18399999999997" style="max-height: 500px" width="312.61398176291794" height="419.18399999999997">
<rect fill="url(#paint0_linear_566_25)" transform="rotate(90 374 151)" rx="50" height="310" width="417" y="151" x="374"/>
<path fill-opacity="0.15" fill="white" d="M-261.088 258.098L-257.73 245.569C-255.923 247.003 -254.04 248.33 -252.058 249.509C-239.049 257.253 -222.946 254.533 -208.527 256.195C-201.24 257.033 -193.955 258.21 -186.694 259.263C-181.359 260.037 -176.006 261.072 -171.114 263.423C-156.385 270.5 -147.872 287.45 -140.857 301.248C-137.514 307.823 -134.568 314.573 -131.375 321.214C-129.702 324.694 -127.749 328.057 -125.337 331.084C-121.351 336.083 -116.127 339.909 -109.918 341.615C-96.372 345.337 -81.4411 340.066 -68.6503 335.88C-51.1569 330.154 -33.7761 323.798 -15.4181 321.395C-10.21 320.714 -4.97358 320.365 0.278991 320.373C5.60864 320.383 11.1248 320.311 16.3372 321.595C25.4946 323.852 31.6369 331.416 39.9294 335.393C45.3747 338.004 51.4433 338.949 57.0641 336.337C62.7821 333.678 67.0098 328.469 70.6447 323.5C81.2426 309.011 89.3931 292.94 102.477 280.346C110.186 272.929 119.259 267.016 129.383 263.449C142.437 258.847 156.538 258.246 170.201 259.885C181.256 261.212 192.402 264.56 203.587 262.391C212.082 260.746 218.759 255.535 224.334 249.156C232.957 239.294 239.625 227.816 246.846 216.942C253.578 206.807 259.228 195.779 264.597 184.878C273.661 166.473 281.754 147.666 291.17 129.448L312.44 135.147C302.86 153.661 294.631 172.773 285.554 191.548C280.272 202.47 274.534 213.165 268.272 223.558C261.378 234.996 253.898 246.481 245.599 256.961C240.046 263.969 233.549 270.661 224.981 273.835C216.025 277.152 206.09 276.412 196.818 275.039C182.151 272.867 167.432 272.024 152.894 275.522C141.854 278.178 131.549 283.21 122.611 290.183C107.52 301.958 97.4697 318.143 86.7839 333.685C80.2636 343.171 71.3449 356.687 57.9972 354.96C49.805 353.901 43.5602 348.264 37.2167 343.526C33.6772 340.882 29.9079 338.603 25.6153 337.431C20.0291 335.904 14.0532 335.943 8.30805 335.912C-11.0896 335.812 -29.8763 340.95 -48.155 346.936C-56.8586 349.787 -65.7001 353.161 -74.701 355.67L-126.821 341.705C-129.556 337.033 -131.555 331.955 -133.853 327.067C-136.783 320.83 -139.846 314.649 -143.18 308.615C-147.56 300.696 -152.391 292.788 -158.654 286.189C-162.773 281.854 -167.586 278.259 -173.16 276.017C-178.356 273.927 -183.918 273.01 -189.433 272.21C-197.17 271.092 -204.907 269.702 -212.688 268.933C-220.631 268.146 -228.617 268.262 -236.564 267.591C-243.426 267.012 -249.938 265.312 -255.864 261.722C-257.682 260.619 -259.417 259.401 -261.086 258.094L-261.088 258.098Z"/>
<path fill-opacity="0.15" fill="white" d="M-255.463 237.112L-252.103 224.573C-248.388 227.66 -244.308 230.266 -239.703 231.752C-233.362 233.802 -226.582 233.48 -220.01 233.586C-211.321 233.723 -202.89 234.95 -194.295 236.039C-183.07 237.464 -172.213 238.114 -163.53 246.244C-157.331 252.049 -152.772 259.54 -148.655 266.885C-145.294 272.884 -142.229 279.047 -139.289 285.26C-136.952 290.196 -134.914 295.324 -132.023 299.978C-128.517 305.614 -123.774 310.575 -117.521 313.103C-111.797 315.417 -105.494 315.488 -99.4573 314.655C-83.5523 312.457 -68.4838 305.538 -53.1821 301.005C-44.027 298.293 -34.6943 296.1 -25.1882 295.055C-19.4196 294.421 -13.6184 294.281 -7.81689 294.399C-3.297 294.491 1.2676 294.807 5.49344 296.545C13.6017 299.879 19.6174 306.948 28.4257 308.842C34.2851 310.103 39.7027 308.286 44.1183 304.376C49.4196 299.682 53.1388 293.309 56.7438 287.307C61.3307 279.669 65.7373 271.913 71.0471 264.74C76.8953 256.841 83.8369 249.672 92.2858 244.534C102.539 238.3 114.4 235.557 126.346 235.48C134.744 235.427 143.113 236.587 151.296 238.423C156.54 239.601 161.788 240.808 167.162 241.219C175.331 241.842 182.812 240.095 189.109 234.707C197.993 227.108 204.173 216.212 210.415 206.512C217.29 195.822 223.73 184.979 229.504 173.647C238.554 155.892 246.434 137.619 255.57 119.916L276.84 125.616C267.534 143.627 259.53 162.223 250.474 180.373C245.053 191.236 239.24 201.98 232.548 212.116C225.499 222.792 219.02 234.293 210.098 243.577C204.333 249.573 197.441 253.535 189.037 254.197C176.655 255.175 164.502 250.784 152.237 249.874C139.27 248.91 126.03 250.345 114.077 255.646C104.601 259.847 96.3853 266.309 89.4665 273.961C83.1916 280.902 77.9934 288.701 73.0248 296.601C68.8537 303.236 64.9057 310.118 59.9366 316.206C56.2885 320.675 51.7356 325.015 45.8538 326.126C39.0117 327.416 32.2885 324.029 26.8071 320.27C22.861 317.562 19.1943 314.426 14.7686 312.484C10.1696 310.464 5.15405 310.083 0.189043 309.959C-10.3231 309.697 -20.6839 310.583 -30.9761 312.729C-48.3207 316.346 -64.6871 323.094 -81.6589 327.979C-93.7978 331.473 -108.19 334.502 -119.528 327.059C-125.738 322.984 -129.926 316.604 -133.06 310.016C-138.614 298.334 -143.858 286.523 -150.716 275.517C-157.737 264.247 -166.267 254.411 -179.712 251.456C-185.539 250.177 -191.524 249.73 -197.419 248.878C-206.181 247.612 -214.808 246.659 -223.666 246.467C-230.291 246.325 -237.065 246.357 -243.399 244.141C-247.848 242.585 -251.825 240.076 -255.469 237.115L-255.463 237.112Z"/>
<path fill-opacity="0.15" fill="white" d="M-249.832 216.093L-246.49 203.621C-241.176 208.119 -235.131 211.419 -227.822 211.951C-220.206 212.506 -212.574 211.806 -204.947 212.536C-197.914 213.212 -190.88 214.221 -183.852 215.008C-178.907 215.56 -174.021 216.518 -169.726 219.159C-163.879 222.758 -159.639 228.563 -155.997 234.241C-149.109 244.976 -144.073 256.656 -138.486 268.072C-135.369 274.442 -131.152 280.695 -124.867 284.313C-113.305 290.966 -98.8921 286.223 -87.233 282.399C-70.0378 276.763 -53.0632 270.387 -34.8678 268.834C-25.0685 267.997 -14.2324 267.161 -5.3762 272.141C1.43462 275.973 8.27397 281.615 16.6289 280.633C22.7401 279.912 27.2087 275.348 30.6122 270.591C35.2408 264.118 38.6572 256.83 42.5063 249.888C46.9722 241.836 51.9068 233.915 58.449 227.361C65.8201 219.976 75.044 214.913 85.3215 212.906C100.171 210.004 114.87 213.257 129.203 217.148C137.118 219.298 146.376 221.689 154.233 218.093C162.919 214.116 168.551 204.522 173.565 196.891C180.956 185.641 188.056 174.301 194.354 162.397C203.403 145.297 211.115 127.56 219.983 110.372L241.256 116.072C232.229 133.564 224.421 151.622 215.375 169.112C209.36 180.737 202.593 191.795 195.494 202.779C189.762 211.649 183.864 222.069 175.047 228.302C168.22 233.129 160.12 233.225 152.136 231.891C145.622 230.803 139.299 228.842 132.801 227.66C125.117 226.259 117.255 225.576 109.452 226.145C98.1784 226.968 87.3314 230.636 78.2506 237.406C70.5402 243.156 64.4421 250.703 59.2217 258.705C54.5338 265.892 50.5867 273.515 46.1052 280.825C42.7696 286.269 38.9577 292.215 33.3132 295.539C27.7519 298.813 21.4649 298.003 15.7958 295.399C11.5386 293.444 7.89733 290.528 3.88787 288.15C-0.138952 285.763 -4.29783 284.454 -8.96629 284.098C-29.0269 282.574 -48.5735 287.301 -67.446 293.549C-81.0206 298.046 -95.7588 304.812 -110.386 303.981C-116.419 303.639 -122.081 301.501 -126.638 297.5C-133.806 291.207 -137.139 282.08 -141.135 273.707C-145.994 263.528 -151.088 253.198 -157.807 244.084C-161.493 239.085 -165.861 234.36 -171.52 231.587C-176.179 229.307 -181.342 228.574 -186.441 228C-193.993 227.148 -201.526 225.838 -209.101 225.264C-216.511 224.702 -224.004 225.352 -231.39 224.552C-238.462 223.789 -244.447 220.604 -249.829 216.083L-249.832 216.093Z"/>
<path fill-opacity="0.15" fill="white" d="M-244.235 195.212L-240.84 182.54C-235.43 187.34 -229.203 190.849 -221.363 191.257C-213.217 191.677 -205.234 191.565 -197.144 192.937C-191.273 193.932 -185.282 194.383 -179.455 195.618C-164.948 198.693 -157.3 212.715 -150.696 224.706C-143.109 238.48 -136.931 257.621 -118.487 258.946C-111.952 259.416 -105.398 257.861 -99.1612 256.095C-91.3521 253.884 -83.6995 251.151 -75.9136 248.86C-66.8369 246.189 -57.5829 244.056 -48.147 243.152C-38.3219 242.21 -28.1961 241.55 -19.2626 246.307C-12.6828 249.81 -5.41962 254.01 2.2744 251.522C8.40743 249.538 12.5354 243.938 15.8493 238.743C25.2888 223.954 32.0583 206.887 47.7581 197.37C58.0738 191.117 70.2942 189.618 82.1524 190.763C90.0667 191.528 97.6033 193.712 105.332 195.421C109.445 196.331 113.704 197.148 117.937 196.961C126.332 196.591 131.944 190.935 136.745 184.598C144.733 174.054 151.863 162.608 158.398 151.124C167.737 134.72 175.608 117.551 184.353 100.831L205.656 106.539C196.875 123.539 189.191 141.072 180.116 157.923C173.677 169.881 166.466 181.373 158.877 192.635C154.218 199.546 148.692 208.214 140.113 210.574C130.757 213.15 120.447 208.61 111.572 206.175C98.0709 202.47 83.272 200.521 69.6509 204.727C50.5378 210.627 40.3799 227.669 31.7152 244.348C26.2371 254.894 19.1149 271.79 4.34086 268.948C-4.41435 267.265 -10.7599 260.013 -19.5234 258.472C-24.7233 257.56 -30.2723 257.913 -35.5149 258.146C-40.6967 258.376 -45.8542 258.998 -50.9526 259.93C-67.7776 263.003 -83.3423 269.978 -99.7978 274.314C-105.833 275.906 -112.248 277.116 -118.493 276.113C-124.6 275.135 -129.781 271.82 -133.733 267.133C-136.211 264.193 -138.188 260.864 -139.888 257.43C-143.171 250.794 -146.167 244.03 -149.596 237.465C-153.777 229.459 -158.265 221.06 -164.648 214.543C-168.326 210.79 -172.685 208.209 -177.834 207.088C-183.285 205.902 -188.949 205.848 -194.469 205.144C-202.962 204.065 -211.185 203.382 -219.752 203.517C-226.131 203.618 -232.124 203.229 -237.751 199.909C-240.041 198.557 -242.196 196.962 -244.235 195.21L-244.235 195.212Z"/>
<path fill-opacity="0.15" fill="white" d="M-238.591 174.141L-235.262 161.719C-230.223 166.414 -224.44 169.988 -217.332 170.848C-209.619 171.78 -202.035 172.15 -194.41 173.834C-188.669 175.101 -182.716 175.93 -177.147 177.856C-161.115 183.406 -154.069 201.937 -145.458 214.856C-141.607 220.635 -136.406 225.915 -129.776 228.365C-123.975 230.505 -117.694 230.251 -111.698 229.212C-104.294 227.93 -97.0985 225.608 -89.8744 223.59C-80.9989 221.112 -72.0308 218.958 -62.8628 217.872C-53.5373 216.766 -43.5134 215.845 -34.7185 219.714C-27.801 222.757 -20.4287 225.712 -12.9816 222.555C-6.79985 219.933 -2.54682 214.155 1.14172 208.809C5.89166 201.93 10.1717 194.72 15.7058 188.413C22.1415 181.075 30.135 175.367 39.5734 172.584C45.8637 170.729 52.4725 170.152 59.0137 170.394C65.7744 170.645 72.3498 172.08 79.0497 172.856C86.8304 173.756 94.2912 173.674 100.47 168.302C104.422 164.863 107.528 160.463 110.521 156.207C114.268 150.876 118.086 145.52 121.538 139.996C131.411 124.201 139.859 107.645 148.687 91.2743L170.004 96.9861C161.244 113.555 153.168 130.485 143.633 146.634C140.342 152.209 136.75 157.529 133.191 162.932C129.684 168.252 126.19 173.68 122.018 178.515C116.744 184.624 110.755 187.84 102.567 187.361C97.572 187.07 92.628 185.974 87.7611 184.88C79.9458 183.122 71.9332 182.017 63.9101 182.403C53.0028 182.928 42.5892 186.494 34.1615 193.498C27.2059 199.277 22.0204 206.767 17.3341 214.414C13.3655 220.889 9.80451 227.853 4.71864 233.557C0.526922 238.26 -4.84787 241.35 -11.3206 240.749C-20.0256 239.94 -26.688 233.359 -35.3515 232.478C-54.3685 230.549 -73.5285 236.177 -91.4646 241.694C-103.362 245.354 -117.897 250.728 -129.901 244.565C-136.729 241.058 -141.436 234.536 -144.927 227.909C-150.097 218.101 -155.391 207.959 -162.479 199.354C-166.144 194.902 -170.468 191.091 -175.981 189.152C-181.233 187.307 -186.917 186.806 -192.374 185.867C-200.411 184.481 -208.234 183.514 -216.385 183.195C-222.927 182.938 -228.647 181.782 -234.055 177.879C-235.666 176.717 -237.167 175.463 -238.588 174.14L-238.591 174.141Z"/>
<path fill-opacity="0.15" fill="white" d="M-232.977 153.193L-229.632 140.713C-224.935 145.369 -219.815 149.241 -213.175 150.669C-205.934 152.225 -198.724 153.135 -191.585 155.24C-185.926 156.911 -179.988 158.29 -174.674 160.918C-168.732 163.859 -164.105 168.706 -159.936 173.752C-153.771 181.215 -149.104 190.014 -141.066 195.713C-129.552 203.876 -116.114 201.135 -103.333 198.12C-94.7774 196.1 -86.2335 194.059 -77.5057 192.895C-68.5532 191.701 -58.8174 190.543 -50.0775 193.381C-42.7202 195.769 -35.2451 197.298 -27.991 193.708C-21.7601 190.623 -17.2348 184.945 -12.9648 179.653C-7.68669 173.11 -2.45498 166.479 4.23889 161.295C12.8817 154.597 23.2663 151.082 34.1408 150.289C43.955 149.573 54.9378 152.199 64.4334 148.728C73.3682 145.461 79.0009 135.622 84.1712 128.3C94.7602 113.305 104.017 97.6522 112.995 81.7123L134.36 87.4371C125.553 103.719 116.991 120.247 106.509 135.504C102.916 140.734 99.3188 146.01 95.4746 151.063C92.7438 154.649 89.7783 158.329 85.9523 160.811C79.0329 165.302 69.7906 164.171 62.023 163.222C49.256 161.663 36.2331 161.739 24.4519 167.506C16.1313 171.579 9.50491 178.065 3.87061 185.296C-4.01609 195.415 -11.7203 212.324 -26.6064 212.636C-35.1797 212.814 -42.2853 207.236 -50.7583 206.863C-60.6897 206.425 -70.791 207.747 -80.4905 209.765C-88.6237 211.455 -96.5821 213.822 -104.636 215.822C-110.987 217.399 -117.599 218.845 -124.183 218.298C-142.568 216.772 -149.53 198.543 -159.231 185.673C-163.206 180.402 -167.698 175.175 -173.658 172.092C-178.636 169.516 -184.273 168.495 -189.668 167.166C-197.233 165.301 -204.68 163.964 -212.423 163.111C-219.092 162.378 -224.554 160.461 -229.767 156.11C-230.881 155.178 -231.946 154.205 -232.973 153.197L-232.977 153.193Z"/>
<path fill-opacity="0.15" fill="white" d="M-227.373 132.279L-224.052 119.887C-219.653 124.765 -214.332 128.985 -208.049 131.038C-201.159 133.29 -194.295 135.155 -187.528 137.808C-182.021 139.967 -176.339 142.01 -171.319 145.185C-164.517 149.488 -158.855 155.512 -153.384 161.331C-148.51 166.513 -141.236 170.457 -134.306 172.039C-128.082 173.463 -121.672 172.967 -115.416 172.043C-107.306 170.848 -99.285 169.141 -91.1502 168.087C-82.4335 166.955 -73.3021 165.857 -64.5866 167.502C-56.9465 168.946 -49.2263 168.621 -42.2529 164.943C-35.9678 161.628 -30.9779 156.384 -25.9189 151.515C-19.6435 145.473 -13.0321 139.843 -5.18028 135.929C5.19196 130.759 16.2835 129.909 27.452 127.609C31.0303 126.87 34.63 126.005 37.8073 124.139C41.1893 122.151 43.9166 119.229 46.4203 116.258C57.9376 102.572 68.1874 87.5961 77.2965 72.1426L98.6177 77.8556C89.4454 93.7683 79.6514 109.145 68.7254 124.002C63.7293 130.796 58.3847 138.126 49.7455 140.206C39.0836 142.774 27.9217 141.04 17.2163 143.621C7.53659 145.955 -1.06567 150.838 -8.33639 157.57C-14.1113 162.915 -18.8658 169.197 -24.3923 174.779C-29.1191 179.553 -34.6307 183.59 -41.4566 184.541C-49.8099 185.703 -57.3994 181.595 -65.6668 181.609C-75.2782 181.624 -84.8586 182.918 -94.2734 184.748C-101.777 186.208 -109.208 188.163 -116.786 189.223C-122.948 190.085 -129.266 190.172 -135.215 188.112C-143.016 185.409 -148.796 179.811 -153.828 173.5C-158.826 167.229 -164.089 160.644 -170.783 156.081C-175.496 152.868 -180.957 151.086 -186.327 149.303C-193.479 146.93 -200.524 144.93 -207.91 143.42C-214.576 142.055 -219.8 139.446 -224.823 134.795C-225.698 133.985 -226.547 133.144 -227.372 132.277L-227.373 132.279Z"/>
<path fill-opacity="0.15" fill="white" d="M-221.736 111.241L-218.414 98.8412C-216.232 102.086 -212.812 104.991 -209.814 107.46C-207.671 109.228 -205.355 110.729 -202.879 111.991C-191.045 118.028 -178.755 123.264 -167.185 129.829C-159.949 133.936 -153.281 138.635 -145.447 141.617C-139.41 143.915 -133.142 145.16 -126.679 145.219C-119.278 145.286 -111.887 144.252 -104.539 143.504C-96.0207 142.638 -87.477 141.863 -78.9124 141.717C-71.0115 141.583 -63.1438 140.122 -55.9359 136.843C-49.3866 133.863 -43.5672 129.589 -37.6983 125.493C-29.86 120.02 -21.7849 114.984 -13.0856 110.968C-8.18446 108.706 -3.22646 106.54 1.7321 104.408C4.69325 103.135 7.64058 101.848 10.2561 99.9388C14.392 96.9237 17.6118 92.843 20.8337 88.9224C24.1014 84.9417 27.299 80.8974 30.6251 76.9599C34.5907 72.2638 38.1688 67.5436 41.4574 62.5365L62.9158 68.2863C59.5492 73.8359 55.9698 79.2213 52.0154 84.4339C45.4494 93.095 39.3288 102.456 31.6781 110.216C26.027 115.946 19.21 117.719 11.6827 119.883C6.09455 121.489 0.434156 122.565 -5.01792 124.659C-9.89506 126.534 -14.5628 128.91 -18.9514 131.743C-31.232 139.663 -41.0251 152.971 -55.7871 156.467C-63.8816 158.384 -71.8514 156.403 -80.0101 156.755C-89.1419 157.147 -98.1989 158.303 -107.232 159.647C-114.045 160.661 -120.94 161.872 -127.858 161.666C-134.431 161.47 -140.686 159.665 -146.48 156.579C-154.16 152.492 -159.942 146.039 -166.944 140.989C-171.699 137.559 -176.879 135.074 -182.227 132.714C-189.06 129.699 -195.826 126.806 -202.896 124.389C-209.313 122.195 -214.323 118.948 -219.145 114.159C-220.104 113.206 -220.944 112.228 -221.734 111.231L-221.736 111.241Z"/>
<path fill-opacity="0.15" fill="white" d="M-216.08 90.1293L-212.67 77.4018C-211.938 78.4182 -211.229 79.4482 -210.576 80.5082C-208.741 83.4853 -205.562 86.107 -203.009 88.4887C-200.979 90.3838 -198.822 92.111 -196.528 93.6806C-190.519 97.7885 -184.17 101.676 -177.726 105.063C-172.304 107.91 -166.492 109.666 -160.669 111.488C-153.276 113.801 -145.874 116.318 -138.235 117.711C-131.661 118.909 -125.013 118.948 -118.36 118.632C-101.995 117.854 -85.3351 115.677 -69.7926 110.301C-62.6796 107.842 -56.0885 104.288 -49.8469 100.122C-41.4403 94.5093 -33.9674 87.4225 -25.187 82.4061C-22.1161 80.6487 -19.0589 79.0448 -16.377 76.7021C-12.4182 73.2407 -9.08613 69.0479 -5.59181 65.143C-2.99523 62.2439 -0.0192698 59.7432 2.62952 56.9005C3.77693 55.6698 4.8241 54.3574 5.80028 52.9936L27.2262 58.7347C26.1435 60.3841 24.9957 61.9886 23.752 63.5225C21.3763 66.4533 18.638 69.0626 16.1149 71.8642C9.79415 78.8933 4.31564 87.4868 -3.99318 92.3902C-7.01962 94.1769 -10.2304 95.6375 -13.2683 97.4111C-18.3248 100.364 -23.2781 103.537 -28.2095 106.692C-35.3894 111.29 -42.4084 116.18 -49.8191 120.402C-63.5023 128.198 -78.2223 130.857 -93.7572 132.344C-102.206 133.154 -110.712 133.884 -119.193 134.266C-125.542 134.552 -131.867 134.36 -138.103 133.033C-145.853 131.386 -153.304 128.474 -160.512 125.249C-166.246 122.685 -172.074 120.301 -177.678 117.456C-184.431 114.029 -190.956 110.136 -197.56 106.435C-203.336 103.197 -208.109 99.1656 -212.689 94.3959C-213.971 93.0601 -215.035 91.6059 -216.086 90.1304L-216.08 90.1293Z"/>
<rect fill="white" rx="21" height="42" width="244" y="503" x="97"/>
<rect fill="white" rx="15" height="30" width="30" y="509" x="103"/>
<g clip-path="url(#clip0_566_25)">
<path fill="#4285F4" d="M128.58 524.169C128.58 523.431 128.52 522.893 128.391 522.335H119.97V525.663H124.913C124.813 526.491 124.275 527.736 123.079 528.573L123.062 528.685L125.725 530.747L125.91 530.766C127.604 529.201 128.58 526.899 128.58 524.169Z"/>
<path fill="#34A853" d="M119.97 532.938C122.392 532.938 124.425 532.141 125.91 530.766L123.079 528.573C122.322 529.102 121.305 529.47 119.97 529.47C117.598 529.47 115.585 527.906 114.868 525.743L114.762 525.752L111.994 527.895L111.958 527.995C113.432 530.925 116.462 532.938 119.97 532.938Z"/>
<path fill="#FBBC05" d="M114.868 525.743C114.678 525.185 114.569 524.587 114.569 523.969C114.569 523.351 114.678 522.753 114.858 522.195L114.853 522.076L112.049 519.899L111.958 519.943C111.35 521.159 111.001 522.524 111.001 523.969C111.001 525.414 111.35 526.779 111.958 527.995L114.868 525.743Z"/>
<path fill="#EB4335" d="M119.97 518.468C121.654 518.468 122.79 519.196 123.438 519.803L125.969 517.332C124.415 515.887 122.392 515 119.97 515C116.462 515 113.432 517.013 111.958 519.943L114.858 522.195C115.585 520.033 117.598 518.468 119.97 518.468Z"/>
</g>
<path fill="black" d="M145.409 529.5V517.864H146.818V528.25H152.227V529.5H145.409ZM157.886 529.682C157.045 529.682 156.32 529.496 155.71 529.125C155.104 528.75 154.636 528.227 154.307 527.557C153.981 526.883 153.818 526.098 153.818 525.205C153.818 524.311 153.981 523.523 154.307 522.841C154.636 522.155 155.095 521.621 155.682 521.239C156.273 520.852 156.962 520.659 157.75 520.659C158.205 520.659 158.653 520.735 159.097 520.886C159.54 521.038 159.943 521.284 160.307 521.625C160.67 521.962 160.96 522.409 161.176 522.966C161.392 523.523 161.5 524.208 161.5 525.023V525.591H154.773V524.432H160.136C160.136 523.939 160.038 523.5 159.841 523.114C159.648 522.727 159.371 522.422 159.011 522.199C158.655 521.975 158.235 521.864 157.75 521.864C157.216 521.864 156.754 521.996 156.364 522.261C155.977 522.523 155.68 522.864 155.472 523.284C155.263 523.705 155.159 524.155 155.159 524.636V525.409C155.159 526.068 155.273 526.627 155.5 527.085C155.731 527.54 156.051 527.886 156.46 528.125C156.869 528.36 157.345 528.477 157.886 528.477C158.239 528.477 158.557 528.428 158.841 528.33C159.129 528.227 159.377 528.076 159.585 527.875C159.794 527.67 159.955 527.417 160.068 527.114L161.364 527.477C161.227 527.917 160.998 528.303 160.676 528.636C160.354 528.966 159.956 529.223 159.483 529.409C159.009 529.591 158.477 529.682 157.886 529.682ZM166.108 529.705C165.555 529.705 165.053 529.6 164.602 529.392C164.152 529.18 163.794 528.875 163.528 528.477C163.263 528.076 163.131 527.591 163.131 527.023C163.131 526.523 163.229 526.117 163.426 525.807C163.623 525.492 163.886 525.246 164.216 525.068C164.545 524.89 164.909 524.758 165.307 524.67C165.708 524.58 166.112 524.508 166.517 524.455C167.047 524.386 167.477 524.335 167.807 524.301C168.14 524.263 168.383 524.201 168.534 524.114C168.689 524.027 168.767 523.875 168.767 523.659V523.614C168.767 523.053 168.614 522.617 168.307 522.307C168.004 521.996 167.544 521.841 166.926 521.841C166.286 521.841 165.784 521.981 165.42 522.261C165.057 522.542 164.801 522.841 164.653 523.159L163.381 522.705C163.608 522.174 163.911 521.761 164.29 521.466C164.672 521.167 165.089 520.958 165.54 520.841C165.994 520.72 166.441 520.659 166.881 520.659C167.161 520.659 167.483 520.693 167.847 520.761C168.214 520.826 168.568 520.96 168.909 521.165C169.254 521.369 169.54 521.678 169.767 522.091C169.994 522.504 170.108 523.057 170.108 523.75V529.5H168.767V528.318H168.699C168.608 528.508 168.456 528.71 168.244 528.926C168.032 529.142 167.75 529.326 167.398 529.477C167.045 529.629 166.616 529.705 166.108 529.705ZM166.312 528.5C166.843 528.5 167.29 528.396 167.653 528.188C168.021 527.979 168.297 527.71 168.483 527.381C168.672 527.051 168.767 526.705 168.767 526.341V525.114C168.71 525.182 168.585 525.244 168.392 525.301C168.203 525.354 167.983 525.402 167.733 525.443C167.487 525.481 167.246 525.515 167.011 525.545C166.78 525.572 166.593 525.595 166.449 525.614C166.1 525.659 165.775 525.733 165.472 525.835C165.172 525.934 164.93 526.083 164.744 526.284C164.563 526.481 164.472 526.75 164.472 527.091C164.472 527.557 164.644 527.909 164.989 528.148C165.337 528.383 165.778 528.5 166.312 528.5ZM179.379 520.773L176.152 529.5H174.788L171.561 520.773H173.016L175.425 527.727H175.516L177.925 520.773H179.379ZM184.496 529.682C183.655 529.682 182.929 529.496 182.32 529.125C181.714 528.75 181.246 528.227 180.916 527.557C180.59 526.883 180.428 526.098 180.428 525.205C180.428 524.311 180.59 523.523 180.916 522.841C181.246 522.155 181.704 521.621 182.291 521.239C182.882 520.852 183.571 520.659 184.359 520.659C184.814 520.659 185.263 520.735 185.706 520.886C186.149 521.038 186.553 521.284 186.916 521.625C187.28 521.962 187.57 522.409 187.786 522.966C188.001 523.523 188.109 524.208 188.109 525.023V525.591H181.382V524.432H186.746C186.746 523.939 186.647 523.5 186.45 523.114C186.257 522.727 185.981 522.422 185.621 522.199C185.265 521.975 184.844 521.864 184.359 521.864C183.825 521.864 183.363 521.996 182.973 522.261C182.587 522.523 182.289 522.864 182.081 523.284C181.873 523.705 181.768 524.155 181.768 524.636V525.409C181.768 526.068 181.882 526.627 182.109 527.085C182.34 527.54 182.661 527.886 183.07 528.125C183.479 528.36 183.954 528.477 184.496 528.477C184.848 528.477 185.166 528.428 185.45 528.33C185.738 528.227 185.986 528.076 186.195 527.875C186.403 527.67 186.564 527.417 186.678 527.114L187.973 527.477C187.837 527.917 187.607 528.303 187.286 528.636C186.964 528.966 186.566 529.223 186.092 529.409C185.619 529.591 185.087 529.682 184.496 529.682ZM200.149 525.932V520.773H201.49V529.5H200.149V528.023H200.058C199.854 528.466 199.536 528.843 199.104 529.153C198.672 529.46 198.126 529.614 197.467 529.614C196.922 529.614 196.437 529.494 196.013 529.256C195.589 529.013 195.255 528.65 195.013 528.165C194.77 527.676 194.649 527.061 194.649 526.318V520.773H195.99V526.227C195.99 526.864 196.168 527.371 196.524 527.75C196.884 528.129 197.342 528.318 197.899 528.318C198.232 528.318 198.571 528.233 198.916 528.062C199.265 527.892 199.556 527.631 199.791 527.278C200.03 526.926 200.149 526.477 200.149 525.932ZM210.128 522.727L208.923 523.068C208.848 522.867 208.736 522.672 208.588 522.483C208.444 522.29 208.247 522.131 207.997 522.006C207.747 521.881 207.427 521.818 207.037 521.818C206.503 521.818 206.058 521.941 205.702 522.188C205.349 522.43 205.173 522.739 205.173 523.114C205.173 523.447 205.295 523.71 205.537 523.903C205.779 524.097 206.158 524.258 206.673 524.386L207.969 524.705C208.749 524.894 209.33 525.184 209.713 525.574C210.096 525.96 210.287 526.458 210.287 527.068C210.287 527.568 210.143 528.015 209.855 528.409C209.571 528.803 209.173 529.114 208.662 529.341C208.151 529.568 207.556 529.682 206.878 529.682C205.988 529.682 205.251 529.489 204.668 529.102C204.084 528.716 203.715 528.152 203.56 527.409L204.832 527.091C204.954 527.561 205.183 527.913 205.52 528.148C205.861 528.383 206.306 528.5 206.855 528.5C207.48 528.5 207.976 528.367 208.344 528.102C208.715 527.833 208.901 527.511 208.901 527.136C208.901 526.833 208.795 526.58 208.582 526.375C208.37 526.167 208.045 526.011 207.605 525.909L206.151 525.568C205.351 525.379 204.764 525.085 204.389 524.688C204.018 524.286 203.832 523.784 203.832 523.182C203.832 522.689 203.971 522.254 204.247 521.875C204.527 521.496 204.908 521.199 205.389 520.983C205.874 520.767 206.423 520.659 207.037 520.659C207.901 520.659 208.579 520.848 209.071 521.227C209.567 521.606 209.92 522.106 210.128 522.727ZM219.374 529.705C218.821 529.705 218.319 529.6 217.868 529.392C217.417 529.18 217.059 528.875 216.794 528.477C216.529 528.076 216.396 527.591 216.396 527.023C216.396 526.523 216.495 526.117 216.692 525.807C216.889 525.492 217.152 525.246 217.482 525.068C217.811 524.89 218.175 524.758 218.572 524.67C218.974 524.58 219.377 524.508 219.783 524.455C220.313 524.386 220.743 524.335 221.072 524.301C221.406 524.263 221.648 524.201 221.8 524.114C221.955 524.027 222.033 523.875 222.033 523.659V523.614C222.033 523.053 221.879 522.617 221.572 522.307C221.269 521.996 220.809 521.841 220.192 521.841C219.552 521.841 219.05 521.981 218.686 522.261C218.322 522.542 218.067 522.841 217.919 523.159L216.646 522.705C216.874 522.174 217.177 521.761 217.555 521.466C217.938 521.167 218.355 520.958 218.805 520.841C219.26 520.72 219.707 520.659 220.146 520.659C220.427 520.659 220.749 520.693 221.112 520.761C221.48 520.826 221.834 520.96 222.175 521.165C222.519 521.369 222.805 521.678 223.033 522.091C223.26 522.504 223.374 523.057 223.374 523.75V529.5H222.033V528.318H221.964C221.874 528.508 221.722 528.71 221.51 528.926C221.298 529.142 221.016 529.326 220.663 529.477C220.311 529.629 219.881 529.705 219.374 529.705ZM219.578 528.5C220.108 528.5 220.555 528.396 220.919 528.188C221.286 527.979 221.563 527.71 221.749 527.381C221.938 527.051 222.033 526.705 222.033 526.341V525.114C221.976 525.182 221.851 525.244 221.658 525.301C221.468 525.354 221.249 525.402 220.999 525.443C220.752 525.481 220.512 525.515 220.277 525.545C220.046 525.572 219.858 525.595 219.714 525.614C219.366 525.659 219.04 525.733 218.737 525.835C218.438 525.934 218.196 526.083 218.01 526.284C217.828 526.481 217.737 526.75 217.737 527.091C217.737 527.557 217.91 527.909 218.254 528.148C218.603 528.383 219.044 528.5 219.578 528.5ZM230.321 529.5V520.773H231.616V522.091H231.707C231.866 521.659 232.154 521.309 232.571 521.04C232.988 520.771 233.457 520.636 233.98 520.636C234.079 520.636 234.202 520.638 234.349 520.642C234.497 520.646 234.609 520.652 234.685 520.659V522.023C234.639 522.011 234.535 521.994 234.372 521.972C234.213 521.945 234.045 521.932 233.866 521.932C233.442 521.932 233.063 522.021 232.73 522.199C232.401 522.373 232.139 522.616 231.946 522.926C231.757 523.233 231.662 523.583 231.662 523.977V529.5H230.321ZM239.668 529.682C238.827 529.682 238.101 529.496 237.491 529.125C236.885 528.75 236.418 528.227 236.088 527.557C235.762 526.883 235.599 526.098 235.599 525.205C235.599 524.311 235.762 523.523 236.088 522.841C236.418 522.155 236.876 521.621 237.463 521.239C238.054 520.852 238.743 520.659 239.531 520.659C239.986 520.659 240.435 520.735 240.878 520.886C241.321 521.038 241.724 521.284 242.088 521.625C242.452 521.962 242.741 522.409 242.957 522.966C243.173 523.523 243.281 524.208 243.281 525.023V525.591H236.554V524.432H241.918C241.918 523.939 241.819 523.5 241.622 523.114C241.429 522.727 241.152 522.422 240.793 522.199C240.437 521.975 240.016 521.864 239.531 521.864C238.997 521.864 238.535 521.996 238.145 522.261C237.759 522.523 237.461 522.864 237.253 523.284C237.045 523.705 236.94 524.155 236.94 524.636V525.409C236.94 526.068 237.054 526.627 237.281 527.085C237.512 527.54 237.832 527.886 238.241 528.125C238.651 528.36 239.126 528.477 239.668 528.477C240.02 528.477 240.338 528.428 240.622 528.33C240.91 528.227 241.158 528.076 241.366 527.875C241.575 527.67 241.736 527.417 241.849 527.114L243.145 527.477C243.009 527.917 242.779 528.303 242.457 528.636C242.135 528.966 241.738 529.223 241.264 529.409C240.791 529.591 240.259 529.682 239.668 529.682ZM252.192 520.773L248.964 529.5H247.601L244.374 520.773H245.828L248.237 527.727H248.328L250.737 520.773H252.192ZM253.962 529.5V520.773H255.303V529.5H253.962ZM254.643 519.318C254.382 519.318 254.157 519.229 253.967 519.051C253.782 518.873 253.689 518.659 253.689 518.409C253.689 518.159 253.782 517.945 253.967 517.767C254.157 517.589 254.382 517.5 254.643 517.5C254.905 517.5 255.128 517.589 255.314 517.767C255.503 517.945 255.598 518.159 255.598 518.409C255.598 518.659 255.503 518.873 255.314 519.051C255.128 519.229 254.905 519.318 254.643 519.318ZM261.418 529.682C260.577 529.682 259.851 529.496 259.241 529.125C258.635 528.75 258.168 528.227 257.838 527.557C257.512 526.883 257.349 526.098 257.349 525.205C257.349 524.311 257.512 523.523 257.838 522.841C258.168 522.155 258.626 521.621 259.213 521.239C259.804 520.852 260.493 520.659 261.281 520.659C261.736 520.659 262.185 520.735 262.628 520.886C263.071 521.038 263.474 521.284 263.838 521.625C264.202 521.962 264.491 522.409 264.707 522.966C264.923 523.523 265.031 524.208 265.031 525.023V525.591H258.304V524.432H263.668C263.668 523.939 263.569 523.5 263.372 523.114C263.179 522.727 262.902 522.422 262.543 522.199C262.187 521.975 261.766 521.864 261.281 521.864C260.747 521.864 260.285 521.996 259.895 522.261C259.509 522.523 259.211 522.864 259.003 523.284C258.795 523.705 258.69 524.155 258.69 524.636V525.409C258.69 526.068 258.804 526.627 259.031 527.085C259.262 527.54 259.582 527.886 259.991 528.125C260.401 528.36 260.876 528.477 261.418 528.477C261.77 528.477 262.088 528.428 262.372 528.33C262.66 528.227 262.908 528.076 263.116 527.875C263.325 527.67 263.486 527.417 263.599 527.114L264.895 527.477C264.759 527.917 264.529 528.303 264.207 528.636C263.885 528.966 263.488 529.223 263.014 529.409C262.541 529.591 262.009 529.682 261.418 529.682ZM269.048 529.5L266.389 520.773H267.798L269.685 527.455H269.776L271.639 520.773H273.071L274.912 527.432H275.003L276.889 520.773H278.298L275.639 529.5H274.321L272.412 522.795H272.276L270.366 529.5H269.048Z"/>
<path stroke-linejoin="round" stroke-linecap="round" stroke-width="1.5" stroke="black" d="M309 529L319 519M319 519H311.5M319 519V526.5"/>
<path fill="white" d="M96.0128 414V383.455H101.546V409.362H114.999V414H96.0128ZM119.563 414V391.091H124.962V414H119.563ZM122.278 387.839C121.423 387.839 120.687 387.556 120.07 386.989C119.454 386.413 119.146 385.722 119.146 384.916C119.146 384.101 119.454 383.41 120.07 382.843C120.687 382.266 121.423 381.978 122.278 381.978C123.143 381.978 123.879 382.266 124.485 382.843C125.102 383.41 125.41 384.101 125.41 384.916C125.41 385.722 125.102 386.413 124.485 386.989C123.879 387.556 123.143 387.839 122.278 387.839ZM135.436 406.811L135.421 400.293H136.286L144.519 391.091H150.828L140.701 402.366H139.583L135.436 406.811ZM130.514 414V383.455H135.914V414H130.514ZM144.892 414L137.435 403.575L141.074 399.771L151.35 414H144.892ZM163.625 414.447C161.328 414.447 159.345 413.97 157.674 413.016C156.014 412.051 154.736 410.689 153.841 408.929C152.946 407.159 152.499 405.076 152.499 402.68C152.499 400.323 152.946 398.255 153.841 396.475C154.746 394.685 156.009 393.293 157.629 392.299C159.25 391.295 161.154 390.793 163.342 390.793C164.754 390.793 166.086 391.021 167.339 391.479C168.602 391.926 169.715 392.622 170.68 393.567C171.654 394.511 172.42 395.714 172.977 397.176C173.534 398.628 173.812 400.358 173.812 402.366V404.022H155.034V400.383H168.637C168.627 399.349 168.403 398.429 167.965 397.624C167.528 396.808 166.916 396.167 166.131 395.7C165.355 395.232 164.45 394.999 163.416 394.999C162.313 394.999 161.343 395.267 160.508 395.804C159.673 396.331 159.021 397.027 158.554 397.892C158.097 398.747 157.863 399.687 157.853 400.711V403.888C157.853 405.22 158.097 406.364 158.584 407.318C159.071 408.263 159.752 408.989 160.627 409.496C161.502 409.993 162.526 410.241 163.7 410.241C164.485 410.241 165.196 410.132 165.833 409.913C166.469 409.685 167.021 409.352 167.488 408.914C167.955 408.477 168.308 407.935 168.547 407.288L173.588 407.855C173.27 409.187 172.664 410.351 171.769 411.345C170.884 412.33 169.75 413.095 168.368 413.642C166.986 414.179 165.405 414.447 163.625 414.447ZM186.881 414.403C185.081 414.403 183.471 413.94 182.049 413.016C180.627 412.091 179.503 410.749 178.678 408.989C177.853 407.229 177.44 405.091 177.44 402.575C177.44 400.03 177.858 397.882 178.693 396.132C179.538 394.372 180.676 393.045 182.108 392.15C183.54 391.245 185.136 390.793 186.896 390.793C188.238 390.793 189.342 391.021 190.207 391.479C191.072 391.926 191.758 392.468 192.265 393.104C192.772 393.731 193.165 394.322 193.444 394.879H193.667V383.455H199.081V414H193.772V410.391H193.444C193.165 410.947 192.762 411.539 192.235 412.165C191.708 412.782 191.012 413.309 190.147 413.746C189.282 414.184 188.194 414.403 186.881 414.403ZM188.387 409.973C189.531 409.973 190.505 409.665 191.311 409.048C192.116 408.422 192.728 407.552 193.145 406.438C193.563 405.325 193.772 404.027 193.772 402.545C193.772 401.064 193.563 399.776 193.145 398.683C192.738 397.589 192.131 396.739 191.326 396.132C190.53 395.526 189.551 395.222 188.387 395.222C187.184 395.222 186.18 395.536 185.375 396.162C184.569 396.788 183.963 397.653 183.555 398.757C183.147 399.861 182.944 401.124 182.944 402.545C182.944 403.977 183.147 405.255 183.555 406.379C183.973 407.492 184.584 408.372 185.39 409.018C186.205 409.655 187.204 409.973 188.387 409.973ZM105.767 469.447C103.53 469.447 101.591 468.955 99.9503 467.971C98.3097 466.987 97.0369 465.609 96.1321 463.839C95.2372 462.07 94.7898 460.001 94.7898 457.635C94.7898 455.268 95.2372 453.195 96.1321 451.415C97.0369 449.636 98.3097 448.254 99.9503 447.269C101.591 446.285 103.53 445.793 105.767 445.793C108.004 445.793 109.943 446.285 111.584 447.269C113.224 448.254 114.492 449.636 115.387 451.415C116.292 453.195 116.744 455.268 116.744 457.635C116.744 460.001 116.292 462.07 115.387 463.839C114.492 465.609 113.224 466.987 111.584 467.971C109.943 468.955 108.004 469.447 105.767 469.447ZM105.797 465.122C107.01 465.122 108.024 464.789 108.839 464.123C109.655 463.447 110.261 462.542 110.659 461.408C111.067 460.275 111.271 459.012 111.271 457.62C111.271 456.218 111.067 454.95 110.659 453.817C110.261 452.673 109.655 451.763 108.839 451.087C108.024 450.411 107.01 450.073 105.797 450.073C104.554 450.073 103.52 450.411 102.695 451.087C101.879 451.763 101.268 452.673 100.86 453.817C100.462 454.95 100.263 456.218 100.263 457.62C100.263 459.012 100.462 460.275 100.86 461.408C101.268 462.542 101.879 463.447 102.695 464.123C103.52 464.789 104.554 465.122 105.797 465.122ZM135.928 459.365V446.091H141.328V469H136.093V464.928H135.854C135.337 466.211 134.487 467.26 133.303 468.075C132.13 468.891 130.683 469.298 128.963 469.298C127.462 469.298 126.134 468.965 124.981 468.299C123.838 467.623 122.943 466.643 122.296 465.361C121.65 464.068 121.327 462.507 121.327 460.678V446.091H126.726V459.842C126.726 461.294 127.124 462.447 127.919 463.303C128.715 464.158 129.759 464.585 131.051 464.585C131.847 464.585 132.617 464.391 133.363 464.004C134.109 463.616 134.72 463.039 135.198 462.273C135.685 461.498 135.928 460.528 135.928 459.365ZM146.88 469V446.091H152.115V449.909H152.353C152.771 448.587 153.487 447.567 154.501 446.852C155.525 446.126 156.694 445.763 158.006 445.763C158.304 445.763 158.637 445.778 159.005 445.808C159.383 445.827 159.696 445.862 159.945 445.912V450.879C159.716 450.799 159.353 450.729 158.856 450.67C158.369 450.6 157.897 450.565 157.439 450.565C156.455 450.565 155.57 450.779 154.784 451.207C154.009 451.624 153.397 452.206 152.95 452.952C152.502 453.697 152.279 454.558 152.279 455.532V469H146.88ZM192.056 452.146L187.135 452.683C186.995 452.186 186.752 451.719 186.404 451.281C186.066 450.844 185.608 450.491 185.032 450.222C184.455 449.954 183.749 449.82 182.914 449.82C181.79 449.82 180.846 450.063 180.08 450.55C179.324 451.038 178.951 451.669 178.961 452.445C178.951 453.111 179.195 453.653 179.692 454.07C180.199 454.488 181.034 454.831 182.198 455.099L186.105 455.935C188.273 456.402 189.884 457.143 190.938 458.157C192.002 459.171 192.539 460.499 192.549 462.139C192.539 463.581 192.116 464.854 191.281 465.957C190.456 467.051 189.307 467.906 187.836 468.523C186.364 469.139 184.674 469.447 182.765 469.447C179.961 469.447 177.703 468.861 175.993 467.688C174.283 466.504 173.264 464.859 172.936 462.751L178.201 462.244C178.439 463.278 178.946 464.058 179.722 464.585C180.498 465.112 181.507 465.376 182.75 465.376C184.032 465.376 185.061 465.112 185.837 464.585C186.623 464.058 187.015 463.407 187.015 462.631C187.015 461.975 186.762 461.433 186.255 461.006C185.757 460.578 184.982 460.25 183.928 460.021L180.02 459.201C177.823 458.744 176.197 457.973 175.143 456.889C174.089 455.795 173.567 454.413 173.577 452.743C173.567 451.331 173.95 450.108 174.725 449.074C175.511 448.03 176.6 447.224 177.992 446.658C179.394 446.081 181.01 445.793 182.839 445.793C185.524 445.793 187.637 446.364 189.178 447.508C190.729 448.651 191.689 450.197 192.056 452.146ZM207.143 469.447C204.846 469.447 202.862 468.97 201.192 468.016C199.531 467.051 198.254 465.689 197.359 463.929C196.464 462.159 196.016 460.076 196.016 457.68C196.016 455.323 196.464 453.255 197.359 451.475C198.263 449.685 199.526 448.293 201.147 447.299C202.768 446.295 204.672 445.793 206.859 445.793C208.271 445.793 209.604 446.021 210.857 446.479C212.119 446.926 213.233 447.622 214.197 448.567C215.172 449.511 215.938 450.714 216.494 452.176C217.051 453.628 217.33 455.358 217.33 457.366V459.022H198.552V455.383H212.154C212.144 454.349 211.92 453.429 211.483 452.624C211.045 451.808 210.434 451.167 209.648 450.7C208.873 450.232 207.968 449.999 206.934 449.999C205.83 449.999 204.861 450.267 204.026 450.804C203.19 451.331 202.539 452.027 202.072 452.892C201.614 453.747 201.381 454.687 201.371 455.711V458.888C201.371 460.22 201.614 461.364 202.102 462.318C202.589 463.263 203.27 463.989 204.145 464.496C205.02 464.993 206.044 465.241 207.217 465.241C208.003 465.241 208.714 465.132 209.35 464.913C209.987 464.685 210.538 464.352 211.006 463.914C211.473 463.477 211.826 462.935 212.065 462.288L217.106 462.855C216.788 464.187 216.181 465.351 215.286 466.345C214.401 467.33 213.268 468.095 211.886 468.642C210.504 469.179 208.923 469.447 207.143 469.447ZM221.897 469V446.091H227.132V449.909H227.371C227.789 448.587 228.504 447.567 229.519 446.852C230.543 446.126 231.711 445.763 233.024 445.763C233.322 445.763 233.655 445.778 234.023 445.808C234.401 445.827 234.714 445.862 234.963 445.912V450.879C234.734 450.799 234.371 450.729 233.874 450.67C233.387 450.6 232.914 450.565 232.457 450.565C231.472 450.565 230.588 450.779 229.802 451.207C229.026 451.624 228.415 452.206 227.968 452.952C227.52 453.697 227.296 454.558 227.296 455.532V469H221.897ZM259.71 446.091L251.551 469H245.586L237.427 446.091H243.184L248.449 463.109H248.688L253.968 446.091H259.71ZM263.446 469V446.091H268.845V469H263.446ZM266.161 442.839C265.305 442.839 264.57 442.556 263.953 441.989C263.337 441.413 263.028 440.722 263.028 439.916C263.028 439.101 263.337 438.41 263.953 437.843C264.57 437.266 265.305 436.978 266.161 436.978C267.026 436.978 267.761 437.266 268.368 437.843C268.984 438.41 269.293 439.101 269.293 439.916C269.293 440.722 268.984 441.413 268.368 441.989C267.761 442.556 267.026 442.839 266.161 442.839ZM284.39 469.447C282.103 469.447 280.139 468.945 278.499 467.941C276.868 466.937 275.61 465.55 274.725 463.78C273.85 462 273.413 459.952 273.413 457.635C273.413 455.308 273.86 453.255 274.755 451.475C275.65 449.685 276.913 448.293 278.544 447.299C280.184 446.295 282.123 445.793 284.36 445.793C286.22 445.793 287.865 446.136 289.297 446.822C290.739 447.498 291.887 448.457 292.742 449.7C293.597 450.933 294.085 452.375 294.204 454.026H289.044C288.835 452.922 288.338 452.002 287.552 451.266C286.776 450.521 285.737 450.148 284.435 450.148C283.331 450.148 282.362 450.446 281.526 451.043C280.691 451.629 280.04 452.474 279.573 453.578C279.115 454.682 278.887 456.004 278.887 457.545C278.887 459.107 279.115 460.449 279.573 461.572C280.03 462.686 280.671 463.546 281.497 464.153C282.332 464.749 283.311 465.048 284.435 465.048C285.23 465.048 285.941 464.898 286.568 464.6C287.204 464.292 287.736 463.849 288.164 463.273C288.591 462.696 288.884 461.995 289.044 461.17H294.204C294.075 462.79 293.597 464.227 292.772 465.48C291.947 466.723 290.823 467.697 289.401 468.403C287.98 469.099 286.309 469.447 284.39 469.447ZM308.779 469.447C306.483 469.447 304.499 468.97 302.828 468.016C301.168 467.051 299.89 465.689 298.995 463.929C298.1 462.159 297.653 460.076 297.653 457.68C297.653 455.323 298.1 453.255 298.995 451.475C299.9 449.685 301.163 448.293 302.784 447.299C304.404 446.295 306.309 445.793 308.496 445.793C309.908 445.793 311.24 446.021 312.493 446.479C313.756 446.926 314.87 447.622 315.834 448.567C316.809 449.511 317.574 450.714 318.131 452.176C318.688 453.628 318.966 455.358 318.966 457.366V459.022H300.189V455.383H313.791C313.781 454.349 313.557 453.429 313.12 452.624C312.682 451.808 312.071 451.167 311.285 450.7C310.51 450.232 309.605 449.999 308.571 449.999C307.467 449.999 306.498 450.267 305.662 450.804C304.827 451.331 304.176 452.027 303.708 452.892C303.251 453.747 303.017 454.687 303.007 455.711V458.888C303.007 460.22 303.251 461.364 303.738 462.318C304.225 463.263 304.907 463.989 305.782 464.496C306.657 464.993 307.681 465.241 308.854 465.241C309.64 465.241 310.35 465.132 310.987 464.913C311.623 464.685 312.175 464.352 312.642 463.914C313.11 463.477 313.463 462.935 313.701 462.288L318.743 462.855C318.424 464.187 317.818 465.351 316.923 466.345C316.038 467.33 314.904 468.095 313.522 468.642C312.14 469.179 310.559 469.447 308.779 469.447ZM330.141 438.455L329.649 460.021H324.846L324.369 438.455H330.141ZM327.248 469.328C326.343 469.328 325.567 469.01 324.921 468.374C324.285 467.737 323.966 466.962 323.966 466.047C323.966 465.152 324.285 464.386 324.921 463.75C325.567 463.114 326.343 462.795 327.248 462.795C328.133 462.795 328.898 463.114 329.545 463.75C330.201 464.386 330.529 465.152 330.529 466.047C330.529 466.653 330.375 467.205 330.067 467.702C329.768 468.2 329.371 468.597 328.873 468.896C328.386 469.184 327.844 469.328 327.248 469.328Z"/>
<defs>
<linearGradient gradientUnits="userSpaceOnUse" y2="188" x2="702.5" y1="631" x1="398" id="paint0_linear_566_25">
<stop stop-color="#984D95"/>
<stop stop-color="#D889BD" offset="1"/>
</linearGradient>
<clipPath id="clip0_566_25">
<rect transform="translate(111 515)" fill="white" height="18" width="17.5896"/>
</clipPath>
</defs>
</svg>