<svg width="15" height="12" viewBox="0 0 15 12" fill="none" xmlns="http://www.w3.org/2000/svg">
<path d="M14.2241 2.32759V9.56897C14.2241 9.98051 14.0607 10.3752 13.7696 10.6662C13.4786 10.9572 13.084 11.1207 12.6724 11.1207H2.32759C1.91604 11.1207 1.52136 10.9572 1.23035 10.6662C0.939347 10.3752 0.775862 9.98051 0.775862 9.56897V2.32759M14.2241 2.32759C14.2241 1.91604 14.0607 1.52136 13.7696 1.23035C13.4786 0.939347 13.084 0.775862 12.6724 0.775862H2.32759C1.91604 0.775862 1.52136 0.939347 1.23035 1.23035C0.939347 1.52136 0.775862 1.91604 0.775862 2.32759M14.2241 2.32759V2.49517C14.2242 2.7601 14.1564 3.02062 14.0272 3.25193C13.898 3.48323 13.7118 3.67761 13.4862 3.81655L8.31379 6.99931C8.06911 7.15002 7.78738 7.22983 7.5 7.22983C7.21262 7.22983 6.93089 7.15002 6.68621 6.99931L1.51379 3.81724C1.28822 3.6783 1.10198 3.48392 0.972806 3.25262C0.843633 3.02131 0.775833 2.76079 0.775862 2.49586V2.32759" stroke="white" stroke-width="1.5" stroke-linecap="round" stroke-linejoin="round"/>
</svg>
