<svg width="253" height="110" viewBox="0 0 253 110" fill="none" xmlns="http://www.w3.org/2000/svg">
<g filter="url(#filter0_d_689_467)">
<rect x="4" width="245" height="102" rx="30" fill="white"/>
</g>
<path d="M118.386 41.1818C118.386 42.4242 118.159 43.4924 117.705 44.3864C117.25 45.2765 116.627 45.9621 115.835 46.4432C115.047 46.9205 114.152 47.1591 113.148 47.1591C112.14 47.1591 111.241 46.9205 110.449 46.4432C109.661 45.9621 109.04 45.2746 108.585 44.3807C108.131 43.4867 107.903 42.4205 107.903 41.1818C107.903 39.9394 108.131 38.8731 108.585 37.983C109.04 37.089 109.661 36.4034 110.449 35.9261C111.241 35.4451 112.14 35.2045 113.148 35.2045C114.152 35.2045 115.047 35.4451 115.835 35.9261C116.627 36.4034 117.25 37.089 117.705 37.983C118.159 38.8731 118.386 39.9394 118.386 41.1818ZM116.648 41.1818C116.648 40.2348 116.494 39.4375 116.188 38.7898C115.884 38.1383 115.468 37.6458 114.938 37.3125C114.411 36.9754 113.814 36.8068 113.148 36.8068C112.477 36.8068 111.879 36.9754 111.352 37.3125C110.826 37.6458 110.409 38.1383 110.102 38.7898C109.799 39.4375 109.648 40.2348 109.648 41.1818C109.648 42.1288 109.799 42.928 110.102 43.5795C110.409 44.2273 110.826 44.7197 111.352 45.0568C111.879 45.3902 112.477 45.5568 113.148 45.5568C113.814 45.5568 114.411 45.3902 114.938 45.0568C115.468 44.7197 115.884 44.2273 116.188 43.5795C116.494 42.928 116.648 42.1288 116.648 41.1818ZM120.575 47V35.3636H122.274V39.6875H122.376C122.475 39.5057 122.617 39.2955 122.803 39.0568C122.988 38.8182 123.246 38.6098 123.575 38.4318C123.905 38.25 124.34 38.1591 124.882 38.1591C125.587 38.1591 126.215 38.3371 126.768 38.6932C127.321 39.0492 127.755 39.5625 128.07 40.233C128.388 40.9034 128.547 41.7102 128.547 42.6534C128.547 43.5966 128.39 44.4053 128.075 45.0795C127.761 45.75 127.329 46.267 126.78 46.6307C126.231 46.9905 125.604 47.1705 124.899 47.1705C124.369 47.1705 123.935 47.0814 123.598 46.9034C123.265 46.7254 123.003 46.517 122.814 46.2784C122.625 46.0398 122.479 45.8277 122.376 45.642H122.234V47H120.575ZM122.24 42.6364C122.24 43.25 122.329 43.7879 122.507 44.25C122.685 44.7121 122.943 45.0739 123.28 45.3352C123.617 45.5928 124.03 45.7216 124.518 45.7216C125.026 45.7216 125.45 45.5871 125.791 45.3182C126.132 45.0455 126.39 44.6761 126.564 44.2102C126.742 43.7443 126.831 43.2197 126.831 42.6364C126.831 42.0606 126.744 41.5436 126.57 41.0852C126.399 40.6269 126.142 40.2652 125.797 40C125.456 39.7348 125.03 39.6023 124.518 39.6023C124.026 39.6023 123.609 39.7292 123.268 39.983C122.931 40.2367 122.676 40.5909 122.501 41.0455C122.327 41.5 122.24 42.0303 122.24 42.6364ZM136.994 40.4034L135.455 40.6761C135.39 40.4792 135.288 40.2917 135.148 40.1136C135.011 39.9356 134.826 39.7898 134.591 39.6761C134.356 39.5625 134.063 39.5057 133.71 39.5057C133.229 39.5057 132.828 39.6136 132.506 39.8295C132.184 40.0417 132.023 40.3163 132.023 40.6534C132.023 40.9451 132.131 41.1799 132.347 41.358C132.563 41.536 132.911 41.6818 133.392 41.7955L134.778 42.1136C135.581 42.2992 136.18 42.5852 136.574 42.9716C136.968 43.358 137.165 43.8598 137.165 44.4773C137.165 45 137.013 45.4659 136.71 45.875C136.411 46.2803 135.992 46.5985 135.455 46.8295C134.92 47.0606 134.301 47.1761 133.597 47.1761C132.619 47.1761 131.822 46.9678 131.205 46.5511C130.587 46.1307 130.208 45.5341 130.068 44.7614L131.71 44.5114C131.813 44.9394 132.023 45.2633 132.341 45.483C132.659 45.6989 133.074 45.8068 133.585 45.8068C134.142 45.8068 134.587 45.6913 134.92 45.4602C135.254 45.2254 135.42 44.9394 135.42 44.6023C135.42 44.3295 135.318 44.1004 135.114 43.9148C134.913 43.7292 134.604 43.589 134.188 43.4943L132.71 43.1705C131.896 42.9848 131.294 42.6894 130.903 42.2841C130.517 41.8788 130.324 41.3655 130.324 40.7443C130.324 40.2292 130.468 39.7784 130.756 39.392C131.044 39.0057 131.441 38.7045 131.949 38.4886C132.456 38.2689 133.038 38.1591 133.693 38.1591C134.636 38.1591 135.379 38.3636 135.92 38.7727C136.462 39.178 136.82 39.7216 136.994 40.4034ZM143.107 38.2727V39.6364H138.339V38.2727H143.107ZM139.618 36.1818H141.317V44.4375C141.317 44.767 141.366 45.0152 141.464 45.1818C141.563 45.3447 141.69 45.4564 141.845 45.517C142.004 45.5739 142.177 45.6023 142.362 45.6023C142.499 45.6023 142.618 45.5928 142.72 45.5739C142.822 45.5549 142.902 45.5398 142.959 45.5284L143.266 46.9318C143.167 46.9697 143.027 47.0076 142.845 47.0455C142.663 47.0871 142.436 47.1098 142.163 47.1136C141.716 47.1212 141.3 47.0417 140.913 46.875C140.527 46.7083 140.214 46.4508 139.976 46.1023C139.737 45.7538 139.618 45.3163 139.618 44.7898V36.1818ZM148.653 47.1761C147.794 47.1761 147.053 46.9924 146.432 46.625C145.814 46.2538 145.337 45.733 145 45.0625C144.667 44.3883 144.5 43.5985 144.5 42.6932C144.5 41.7992 144.667 41.0114 145 40.3295C145.337 39.6477 145.807 39.1155 146.409 38.733C147.015 38.3504 147.723 38.1591 148.534 38.1591C149.027 38.1591 149.504 38.2405 149.966 38.4034C150.428 38.5663 150.843 38.822 151.21 39.1705C151.578 39.5189 151.867 39.9716 152.08 40.5284C152.292 41.0814 152.398 41.7538 152.398 42.5455V43.1477H145.46V41.875H150.733C150.733 41.428 150.642 41.0322 150.46 40.6875C150.278 40.339 150.023 40.0644 149.693 39.8636C149.367 39.6629 148.985 39.5625 148.545 39.5625C148.068 39.5625 147.652 39.6799 147.295 39.9148C146.943 40.1458 146.67 40.4489 146.477 40.8239C146.288 41.1951 146.193 41.5985 146.193 42.0341V43.0284C146.193 43.6117 146.295 44.108 146.5 44.517C146.708 44.9261 146.998 45.2386 147.369 45.4545C147.741 45.6667 148.174 45.7727 148.67 45.7727C148.992 45.7727 149.286 45.7273 149.551 45.6364C149.816 45.5417 150.045 45.4015 150.239 45.2159C150.432 45.0303 150.58 44.8011 150.682 44.5284L152.29 44.8182C152.161 45.2917 151.93 45.7064 151.597 46.0625C151.267 46.4148 150.852 46.6894 150.352 46.8864C149.856 47.0795 149.29 47.1761 148.653 47.1761ZM158.357 38.2727V39.6364H153.589V38.2727H158.357ZM154.868 36.1818H156.567V44.4375C156.567 44.767 156.616 45.0152 156.714 45.1818C156.813 45.3447 156.94 45.4564 157.095 45.517C157.254 45.5739 157.427 45.6023 157.612 45.6023C157.749 45.6023 157.868 45.5928 157.97 45.5739C158.072 45.5549 158.152 45.5398 158.209 45.5284L158.516 46.9318C158.417 46.9697 158.277 47.0076 158.095 47.0455C157.913 47.0871 157.686 47.1098 157.413 47.1136C156.966 47.1212 156.55 47.0417 156.163 46.875C155.777 46.7083 155.464 46.4508 155.226 46.1023C154.987 45.7538 154.868 45.3163 154.868 44.7898V36.1818ZM160.236 47V38.2727H161.878V39.6591H161.969C162.128 39.1894 162.408 38.8201 162.81 38.5511C163.215 38.2784 163.673 38.142 164.185 38.142C164.291 38.142 164.416 38.1458 164.56 38.1534C164.707 38.161 164.823 38.1705 164.906 38.1818V39.8068C164.838 39.7879 164.717 39.767 164.543 39.7443C164.368 39.7178 164.194 39.7045 164.02 39.7045C163.618 39.7045 163.26 39.7898 162.946 39.9602C162.635 40.1269 162.389 40.3598 162.207 40.6591C162.026 40.9545 161.935 41.2917 161.935 41.6705V47H160.236ZM166.376 47V38.2727H168.075V47H166.376ZM167.234 36.9261C166.939 36.9261 166.685 36.8277 166.473 36.6307C166.265 36.4299 166.161 36.1913 166.161 35.9148C166.161 35.6345 166.265 35.3958 166.473 35.1989C166.685 34.9981 166.939 34.8977 167.234 34.8977C167.53 34.8977 167.782 34.9981 167.99 35.1989C168.202 35.3958 168.308 35.6345 168.308 35.9148C168.308 36.1913 168.202 36.4299 167.99 36.6307C167.782 36.8277 167.53 36.9261 167.234 36.9261ZM174.037 47.1761C173.192 47.1761 172.465 46.9848 171.855 46.6023C171.249 46.2159 170.783 45.6837 170.457 45.0057C170.132 44.3277 169.969 43.5511 169.969 42.6761C169.969 41.7898 170.135 41.0076 170.469 40.3295C170.802 39.6477 171.272 39.1155 171.878 38.733C172.484 38.3504 173.198 38.1591 174.02 38.1591C174.683 38.1591 175.274 38.2822 175.793 38.5284C176.312 38.7708 176.73 39.1117 177.048 39.5511C177.37 39.9905 177.562 40.5038 177.622 41.0909H175.969C175.878 40.6818 175.67 40.3295 175.344 40.0341C175.022 39.7386 174.59 39.5909 174.048 39.5909C173.575 39.5909 173.16 39.7159 172.804 39.9659C172.452 40.2121 172.177 40.5644 171.98 41.0227C171.783 41.4773 171.685 42.0152 171.685 42.6364C171.685 43.2727 171.781 43.822 171.974 44.2841C172.168 44.7462 172.44 45.1042 172.793 45.358C173.149 45.6117 173.567 45.7386 174.048 45.7386C174.37 45.7386 174.662 45.6799 174.923 45.5625C175.188 45.4413 175.41 45.2689 175.588 45.0455C175.77 44.822 175.897 44.553 175.969 44.2386H177.622C177.562 44.803 177.378 45.3068 177.071 45.75C176.764 46.1932 176.353 46.5417 175.838 46.7955C175.327 47.0492 174.726 47.1761 174.037 47.1761ZM185.979 40.4034L184.439 40.6761C184.375 40.4792 184.272 40.2917 184.132 40.1136C183.996 39.9356 183.81 39.7898 183.575 39.6761C183.34 39.5625 183.047 39.5057 182.695 39.5057C182.214 39.5057 181.812 39.6136 181.49 39.8295C181.168 40.0417 181.007 40.3163 181.007 40.6534C181.007 40.9451 181.115 41.1799 181.331 41.358C181.547 41.536 181.895 41.6818 182.376 41.7955L183.763 42.1136C184.566 42.2992 185.164 42.5852 185.558 42.9716C185.952 43.358 186.149 43.8598 186.149 44.4773C186.149 45 185.998 45.4659 185.695 45.875C185.395 46.2803 184.977 46.5985 184.439 46.8295C183.905 47.0606 183.286 47.1761 182.581 47.1761C181.604 47.1761 180.806 46.9678 180.189 46.5511C179.571 46.1307 179.193 45.5341 179.053 44.7614L180.695 44.5114C180.797 44.9394 181.007 45.2633 181.325 45.483C181.643 45.6989 182.058 45.8068 182.57 45.8068C183.126 45.8068 183.571 45.6913 183.905 45.4602C184.238 45.2254 184.405 44.9394 184.405 44.6023C184.405 44.3295 184.303 44.1004 184.098 43.9148C183.897 43.7292 183.589 43.589 183.172 43.4943L181.695 43.1705C180.88 42.9848 180.278 42.6894 179.888 42.2841C179.501 41.8788 179.308 41.3655 179.308 40.7443C179.308 40.2292 179.452 39.7784 179.74 39.392C180.028 39.0057 180.426 38.7045 180.933 38.4886C181.441 38.2689 182.022 38.1591 182.678 38.1591C183.621 38.1591 184.363 38.3636 184.905 38.7727C185.446 39.178 185.804 39.7216 185.979 40.4034ZM111.528 66.1648C110.748 66.1648 110.076 66.0227 109.511 65.7386C108.951 65.4545 108.519 65.0682 108.216 64.5795C107.913 64.0871 107.761 63.5303 107.761 62.9091C107.761 62.4356 107.86 62.0152 108.057 61.6477C108.254 61.2765 108.528 60.9337 108.881 60.6193C109.233 60.3049 109.64 59.9886 110.102 59.6705L111.977 58.3466C112.295 58.1383 112.544 57.9186 112.722 57.6875C112.9 57.4527 112.989 57.1629 112.989 56.8182C112.989 56.5455 112.871 56.2841 112.636 56.0341C112.402 55.7841 112.087 55.6591 111.693 55.6591C111.42 55.6591 111.18 55.7254 110.972 55.858C110.767 55.9905 110.606 56.161 110.489 56.3693C110.375 56.5739 110.318 56.7898 110.318 57.017C110.318 57.2822 110.39 57.5492 110.534 57.8182C110.682 58.0871 110.871 58.3655 111.102 58.6534C111.333 58.9375 111.576 59.233 111.83 59.5398L117.233 66H115.312L110.841 60.7443C110.466 60.3011 110.117 59.8845 109.795 59.4943C109.473 59.1004 109.212 58.7027 109.011 58.3011C108.814 57.8958 108.716 57.4583 108.716 56.9886C108.716 56.4545 108.837 55.9811 109.08 55.5682C109.326 55.1515 109.669 54.8258 110.108 54.5909C110.547 54.3561 111.062 54.2386 111.653 54.2386C112.252 54.2386 112.765 54.3561 113.193 54.5909C113.625 54.822 113.956 55.1307 114.188 55.517C114.422 55.8996 114.54 56.3182 114.54 56.7727C114.54 57.3258 114.402 57.8144 114.125 58.2386C113.852 58.6591 113.475 59.0455 112.994 59.3977L110.659 61.1193C110.205 61.4527 109.888 61.7822 109.71 62.108C109.536 62.4299 109.449 62.6818 109.449 62.8636C109.449 63.197 109.534 63.5057 109.705 63.7898C109.879 64.0739 110.121 64.3011 110.432 64.4716C110.746 64.642 111.114 64.7273 111.534 64.7273C111.966 64.7273 112.386 64.6345 112.795 64.4489C113.208 64.2595 113.581 63.9886 113.915 63.6364C114.252 63.2841 114.519 62.8617 114.716 62.3693C114.913 61.8769 115.011 61.3258 115.011 60.7159H116.545C116.545 61.4659 116.46 62.1004 116.29 62.6193C116.119 63.1345 115.913 63.5549 115.67 63.8807C115.432 64.2027 115.206 64.4545 114.994 64.6364C114.926 64.697 114.862 64.7576 114.801 64.8182C114.741 64.8788 114.676 64.9394 114.608 65C114.214 65.3977 113.737 65.6913 113.176 65.8807C112.619 66.0701 112.07 66.1648 111.528 66.1648ZM130.81 58.0398C130.7 57.6951 130.552 57.3864 130.366 57.1136C130.185 56.8371 129.967 56.6023 129.713 56.4091C129.459 56.2121 129.17 56.0625 128.844 55.9602C128.522 55.858 128.168 55.8068 127.781 55.8068C127.126 55.8068 126.535 55.9754 126.009 56.3125C125.482 56.6496 125.065 57.1439 124.759 57.7955C124.455 58.4432 124.304 59.2367 124.304 60.1761C124.304 61.1193 124.457 61.9167 124.764 62.5682C125.071 63.2197 125.491 63.714 126.026 64.0511C126.56 64.3883 127.168 64.5568 127.849 64.5568C128.482 64.5568 129.033 64.428 129.503 64.1705C129.976 63.9129 130.342 63.5492 130.599 63.0795C130.861 62.6061 130.991 62.0492 130.991 61.4091L131.446 61.4943H128.116V60.0455H132.69V61.3693C132.69 62.3466 132.482 63.1951 132.065 63.9148C131.652 64.6307 131.08 65.1837 130.349 65.5739C129.622 65.964 128.789 66.1591 127.849 66.1591C126.796 66.1591 125.872 65.9167 125.077 65.4318C124.285 64.947 123.668 64.2595 123.224 63.3693C122.781 62.4754 122.56 61.4148 122.56 60.1875C122.56 59.2595 122.688 58.4261 122.946 57.6875C123.204 56.9489 123.565 56.322 124.031 55.8068C124.501 55.2879 125.052 54.892 125.685 54.6193C126.321 54.3428 127.016 54.2045 127.77 54.2045C128.399 54.2045 128.984 54.2973 129.526 54.483C130.071 54.6686 130.556 54.9318 130.98 55.2727C131.408 55.6136 131.762 56.0189 132.043 56.4886C132.323 56.9545 132.512 57.4716 132.611 58.0398H130.81ZM135.857 69.2727C135.603 69.2727 135.372 69.2519 135.163 69.2102C134.955 69.1723 134.8 69.1307 134.697 69.0852L135.107 67.6932C135.417 67.7765 135.694 67.8125 135.936 67.8011C136.179 67.7898 136.393 67.6989 136.578 67.5284C136.768 67.358 136.934 67.0795 137.078 66.6932L137.288 66.1136L134.095 57.2727H135.913L138.124 64.0455H138.214L140.425 57.2727H142.249L138.652 67.1648C138.485 67.6193 138.273 68.0038 138.016 68.3182C137.758 68.6364 137.451 68.875 137.095 69.0341C136.739 69.1932 136.326 69.2727 135.857 69.2727ZM145.544 60.8182V66H143.845V57.2727H145.476V58.6932H145.584C145.785 58.2311 146.099 57.8598 146.527 57.5795C146.959 57.2992 147.502 57.1591 148.158 57.1591C148.752 57.1591 149.273 57.2841 149.72 57.5341C150.167 57.7803 150.514 58.1477 150.76 58.6364C151.006 59.125 151.129 59.7292 151.129 60.4489V66H149.43V60.6534C149.43 60.0208 149.266 59.5265 148.936 59.1705C148.607 58.8106 148.154 58.6307 147.578 58.6307C147.184 58.6307 146.834 58.7159 146.527 58.8864C146.224 59.0568 145.983 59.3068 145.805 59.6364C145.631 59.9621 145.544 60.3561 145.544 60.8182ZM155.947 66.1932C155.394 66.1932 154.894 66.0909 154.447 65.8864C154 65.678 153.646 65.3769 153.385 64.983C153.127 64.589 152.999 64.1061 152.999 63.5341C152.999 63.0417 153.093 62.6364 153.283 62.3182C153.472 62 153.728 61.7481 154.05 61.5625C154.372 61.3769 154.732 61.2367 155.129 61.142C155.527 61.0473 155.932 60.9754 156.345 60.9261C156.868 60.8655 157.292 60.8163 157.618 60.7784C157.944 60.7367 158.18 60.6705 158.328 60.5795C158.476 60.4886 158.55 60.3409 158.55 60.1364V60.0966C158.55 59.6004 158.41 59.2159 158.129 58.9432C157.853 58.6705 157.44 58.5341 156.891 58.5341C156.319 58.5341 155.868 58.661 155.538 58.9148C155.213 59.1648 154.987 59.4432 154.862 59.75L153.266 59.3864C153.455 58.8561 153.732 58.428 154.095 58.1023C154.463 57.7727 154.885 57.5341 155.362 57.3864C155.839 57.2348 156.341 57.1591 156.868 57.1591C157.216 57.1591 157.586 57.2008 157.976 57.2841C158.37 57.3636 158.737 57.5114 159.078 57.7273C159.423 57.9432 159.705 58.2519 159.925 58.6534C160.144 59.0511 160.254 59.5682 160.254 60.2045V66H158.595V64.8068H158.527C158.417 65.0265 158.252 65.2424 158.033 65.4545C157.813 65.6667 157.531 65.8428 157.186 65.983C156.841 66.1231 156.429 66.1932 155.947 66.1932ZM156.317 64.8295C156.786 64.8295 157.188 64.7367 157.521 64.5511C157.858 64.3655 158.114 64.1231 158.288 63.8239C158.466 63.5208 158.555 63.197 158.555 62.8523V61.7273C158.495 61.7879 158.377 61.8447 158.203 61.8977C158.033 61.947 157.838 61.9905 157.618 62.0284C157.398 62.0625 157.184 62.0947 156.976 62.125C156.768 62.1515 156.593 62.1742 156.453 62.1932C156.124 62.2348 155.822 62.3049 155.55 62.4034C155.281 62.5019 155.065 62.6439 154.902 62.8295C154.743 63.0114 154.663 63.2538 154.663 63.5568C154.663 63.9773 154.819 64.2955 155.129 64.5114C155.44 64.7235 155.836 64.8295 156.317 64.8295ZM166.278 66.1761C165.419 66.1761 164.678 65.9924 164.057 65.625C163.439 65.2538 162.962 64.733 162.625 64.0625C162.292 63.3883 162.125 62.5985 162.125 61.6932C162.125 60.7992 162.292 60.0114 162.625 59.3295C162.962 58.6477 163.432 58.1155 164.034 57.733C164.64 57.3504 165.348 57.1591 166.159 57.1591C166.652 57.1591 167.129 57.2405 167.591 57.4034C168.053 57.5663 168.468 57.822 168.835 58.1705C169.203 58.5189 169.492 58.9716 169.705 59.5284C169.917 60.0814 170.023 60.7538 170.023 61.5455V62.1477H163.085V60.875H168.358C168.358 60.428 168.267 60.0322 168.085 59.6875C167.903 59.339 167.648 59.0644 167.318 58.8636C166.992 58.6629 166.61 58.5625 166.17 58.5625C165.693 58.5625 165.277 58.6799 164.92 58.9148C164.568 59.1458 164.295 59.4489 164.102 59.8239C163.913 60.1951 163.818 60.5985 163.818 61.0341V62.0284C163.818 62.6117 163.92 63.108 164.125 63.517C164.333 63.9261 164.623 64.2386 164.994 64.4545C165.366 64.6667 165.799 64.7727 166.295 64.7727C166.617 64.7727 166.911 64.7273 167.176 64.6364C167.441 64.5417 167.67 64.4015 167.864 64.2159C168.057 64.0303 168.205 63.8011 168.307 63.5284L169.915 63.8182C169.786 64.2917 169.555 64.7064 169.222 65.0625C168.892 65.4148 168.477 65.6894 167.977 65.8864C167.481 66.0795 166.915 66.1761 166.278 66.1761ZM175.584 66.1761C174.739 66.1761 174.012 65.9848 173.402 65.6023C172.796 65.2159 172.33 64.6837 172.004 64.0057C171.679 63.3277 171.516 62.5511 171.516 61.6761C171.516 60.7898 171.682 60.0076 172.016 59.3295C172.349 58.6477 172.819 58.1155 173.425 57.733C174.031 57.3504 174.745 57.1591 175.567 57.1591C176.23 57.1591 176.821 57.2822 177.339 57.5284C177.858 57.7708 178.277 58.1117 178.595 58.5511C178.917 58.9905 179.108 59.5038 179.169 60.0909H177.516C177.425 59.6818 177.216 59.3295 176.891 59.0341C176.569 58.7386 176.137 58.5909 175.595 58.5909C175.122 58.5909 174.707 58.7159 174.351 58.9659C173.999 59.2121 173.724 59.5644 173.527 60.0227C173.33 60.4773 173.232 61.0152 173.232 61.6364C173.232 62.2727 173.328 62.822 173.521 63.2841C173.714 63.7462 173.987 64.1042 174.339 64.358C174.696 64.6117 175.114 64.7386 175.595 64.7386C175.917 64.7386 176.209 64.6799 176.47 64.5625C176.735 64.4413 176.957 64.2689 177.135 64.0455C177.317 63.822 177.444 63.553 177.516 63.2386H179.169C179.108 63.803 178.925 64.3068 178.618 64.75C178.311 65.1932 177.9 65.5417 177.385 65.7955C176.874 66.0492 176.273 66.1761 175.584 66.1761ZM184.662 66.1761C183.844 66.1761 183.13 65.9886 182.52 65.6136C181.91 65.2386 181.437 64.714 181.099 64.0398C180.762 63.3655 180.594 62.5777 180.594 61.6761C180.594 60.7708 180.762 59.9792 181.099 59.3011C181.437 58.6231 181.91 58.0966 182.52 57.7216C183.13 57.3466 183.844 57.1591 184.662 57.1591C185.48 57.1591 186.194 57.3466 186.804 57.7216C187.414 58.0966 187.887 58.6231 188.224 59.3011C188.562 59.9792 188.73 60.7708 188.73 61.6761C188.73 62.5777 188.562 63.3655 188.224 64.0398C187.887 64.714 187.414 65.2386 186.804 65.6136C186.194 65.9886 185.48 66.1761 184.662 66.1761ZM184.668 64.75C185.198 64.75 185.637 64.6098 185.986 64.3295C186.334 64.0492 186.592 63.6761 186.759 63.2102C186.929 62.7443 187.014 62.2311 187.014 61.6705C187.014 61.1136 186.929 60.6023 186.759 60.1364C186.592 59.6667 186.334 59.2898 185.986 59.0057C185.637 58.7216 185.198 58.5795 184.668 58.5795C184.134 58.5795 183.69 58.7216 183.338 59.0057C182.99 59.2898 182.73 59.6667 182.56 60.1364C182.393 60.6023 182.31 61.1136 182.31 61.6705C182.31 62.2311 182.393 62.7443 182.56 63.2102C182.73 63.6761 182.99 64.0492 183.338 64.3295C183.69 64.6098 184.134 64.75 184.668 64.75ZM192.325 54.3636V66H190.626V54.3636H192.325ZM198.287 66.1761C197.469 66.1761 196.755 65.9886 196.145 65.6136C195.535 65.2386 195.062 64.714 194.724 64.0398C194.387 63.3655 194.219 62.5777 194.219 61.6761C194.219 60.7708 194.387 59.9792 194.724 59.3011C195.062 58.6231 195.535 58.0966 196.145 57.7216C196.755 57.3466 197.469 57.1591 198.287 57.1591C199.105 57.1591 199.819 57.3466 200.429 57.7216C201.039 58.0966 201.512 58.6231 201.849 59.3011C202.187 59.9792 202.355 60.7708 202.355 61.6761C202.355 62.5777 202.187 63.3655 201.849 64.0398C201.512 64.714 201.039 65.2386 200.429 65.6136C199.819 65.9886 199.105 66.1761 198.287 66.1761ZM198.293 64.75C198.823 64.75 199.262 64.6098 199.611 64.3295C199.959 64.0492 200.217 63.6761 200.384 63.2102C200.554 62.7443 200.639 62.2311 200.639 61.6705C200.639 61.1136 200.554 60.6023 200.384 60.1364C200.217 59.6667 199.959 59.2898 199.611 59.0057C199.262 58.7216 198.823 58.5795 198.293 58.5795C197.759 58.5795 197.315 58.7216 196.963 59.0057C196.615 59.2898 196.355 59.6667 196.185 60.1364C196.018 60.6023 195.935 61.1136 195.935 61.6705C195.935 62.2311 196.018 62.7443 196.185 63.2102C196.355 63.6761 196.615 64.0492 196.963 64.3295C197.315 64.6098 197.759 64.75 198.293 64.75ZM207.911 69.4545C207.217 69.4545 206.621 69.3636 206.121 69.1818C205.625 69 205.219 68.7595 204.905 68.4602C204.59 68.161 204.356 67.8333 204.2 67.4773L205.661 66.875C205.763 67.0417 205.899 67.2178 206.07 67.4034C206.244 67.5928 206.479 67.7538 206.774 67.8864C207.073 68.0189 207.458 68.0852 207.928 68.0852C208.571 68.0852 209.104 67.928 209.524 67.6136C209.945 67.303 210.155 66.8068 210.155 66.125V64.4091H210.047C209.945 64.5947 209.797 64.8011 209.604 65.0284C209.414 65.2557 209.153 65.4527 208.82 65.6193C208.486 65.786 208.053 65.8693 207.518 65.8693C206.829 65.8693 206.208 65.7083 205.655 65.3864C205.106 65.0606 204.67 64.5814 204.348 63.9489C204.03 63.3125 203.871 62.5303 203.871 61.6023C203.871 60.6742 204.028 59.8788 204.342 59.2159C204.661 58.553 205.096 58.0455 205.649 57.6932C206.202 57.3371 206.829 57.1591 207.53 57.1591C208.071 57.1591 208.509 57.25 208.842 57.4318C209.176 57.6098 209.435 57.8182 209.621 58.0568C209.81 58.2955 209.956 58.5057 210.058 58.6875H210.183V57.2727H211.848V66.1932C211.848 66.9432 211.674 67.5587 211.325 68.0398C210.977 68.5208 210.505 68.8769 209.911 69.108C209.32 69.339 208.653 69.4545 207.911 69.4545ZM207.893 64.4602C208.382 64.4602 208.795 64.3466 209.132 64.1193C209.473 63.8883 209.731 63.5587 209.905 63.1307C210.083 62.6989 210.172 62.1818 210.172 61.5795C210.172 60.9924 210.085 60.4754 209.911 60.0284C209.736 59.5814 209.481 59.233 209.143 58.983C208.806 58.7292 208.39 58.6023 207.893 58.6023C207.382 58.6023 206.956 58.7348 206.615 59C206.274 59.2614 206.017 59.6174 205.842 60.0682C205.672 60.5189 205.587 61.0227 205.587 61.5795C205.587 62.1515 205.674 62.6534 205.848 63.0852C206.022 63.517 206.28 63.8542 206.621 64.0966C206.965 64.339 207.39 64.4602 207.893 64.4602ZM215.2 69.2727C214.946 69.2727 214.715 69.2519 214.507 69.2102C214.299 69.1723 214.143 69.1307 214.041 69.0852L214.45 67.6932C214.761 67.7765 215.037 67.8125 215.28 67.8011C215.522 67.7898 215.736 67.6989 215.922 67.5284C216.111 67.358 216.278 67.0795 216.422 66.6932L216.632 66.1136L213.439 57.2727H215.257L217.467 64.0455H217.558L219.768 57.2727H221.592L217.996 67.1648C217.829 67.6193 217.617 68.0038 217.359 68.3182C217.102 68.6364 216.795 68.875 216.439 69.0341C216.083 69.1932 215.67 69.2727 215.2 69.2727Z" fill="#5C5C5C"/>
<ellipse cx="62.5" cy="51.125" rx="31.5" ry="31.125" fill="#964A94"/>
<path d="M58.7215 54.7213L58.2563 55.1785L57.7912 54.7213C56.7385 53.6863 55.0265 53.6863 53.9738 54.7213C53.4626 55.2237 53.1814 55.8923 53.1814 56.6037C53.1814 57.3151 53.4631 57.9837 53.9738 58.4861L58.0929 62.5367C58.1381 62.5814 58.1972 62.6038 58.2563 62.6038C58.3155 62.6038 58.3741 62.5814 58.4198 62.5367L62.5388 58.4861C63.0501 57.9837 63.3313 57.3151 63.3313 56.6037C63.3313 55.8923 63.0496 55.2237 62.5388 54.7213C61.4861 53.6863 59.7737 53.6863 58.7215 54.7213Z" fill="white"/>
<path d="M48.9445 37.8337H47.4546V39.2305H48.9445V37.8337Z" fill="white"/>
<path d="M43.7298 57.9473H40.75V59.344H43.7298V57.9473Z" fill="white"/>
<path d="M43.4786 52.1922L42.491 53.1799L44.7258 55.4147L45.7134 54.427L43.4786 52.1922Z" fill="white"/>
<path d="M44.7257 61.8764L42.491 64.1112L43.4787 65.0989L45.7134 62.8641L44.7257 61.8764Z" fill="white"/>
<path d="M57.9142 66.6175C55.149 66.6175 52.4109 65.4047 50.732 63.4268C49.0391 61.4322 48.4645 58.696 49.2323 56.2856C50.0741 53.6415 52.2973 51.4225 54.4474 49.2766C56.1067 47.6205 57.8159 45.9136 58.8998 43.9959C59.5433 44.2883 60.2649 44.4466 61.0033 44.4466C61.5239 44.4466 62.0523 44.3679 62.5668 44.2031L62.1403 42.8729C60.5582 43.3804 58.7457 42.7462 58.0999 41.4603C57.1185 39.5062 58.8602 36.6745 62.76 33.886L61.9476 32.75C55.4484 37.3961 56.2185 40.8275 56.8512 42.087C57.0696 42.5218 57.3694 42.9055 57.7279 43.2304C56.752 45.0016 55.149 46.6018 53.4608 48.2877C51.1924 50.5519 48.8468 52.8933 47.9016 55.8615C46.9891 58.7267 47.666 61.9719 49.6676 64.3305C51.1151 66.036 53.2364 67.2489 55.5364 67.7531C55.7883 68.4506 55.9577 68.6871 56.4354 69.3058C56.4815 69.3659 56.5314 69.4302 56.5849 69.5L57.693 68.6494C57.6385 68.5786 57.5882 68.5129 57.5408 68.452C57.3885 68.255 57.28 68.1139 57.1939 67.9887C57.4346 68.0045 57.6753 68.0138 57.9165 68.0138C57.984 68.0138 58.052 68.0134 58.1199 68.012L58.0934 66.6157C58.0333 66.6171 57.9738 66.6175 57.9142 66.6175ZM72.0355 54.8744C71.7287 51.3736 73.0151 48.0298 74.5995 44.3348C76.1439 40.733 77.5057 37.1764 77.2115 33.2654L75.8184 33.3702C76.089 36.9659 74.789 40.348 73.3159 43.7845C72.5528 45.5645 71.8246 47.3146 71.3041 49.1565C70.7025 51.2852 70.4865 53.1955 70.6443 54.9964C70.859 57.4445 71.7739 59.6532 72.6585 61.7894C73.6628 64.2141 74.6116 66.5049 74.5744 69.0647L75.9712 69.0847C76.0126 66.2362 74.9636 63.7039 73.9491 61.2544C73.1045 59.2165 72.2315 57.1083 72.0355 54.8744Z" fill="white"/>
<defs>
<filter id="filter0_d_689_467" x="0" y="0" width="253" height="110" filterUnits="userSpaceOnUse" color-interpolation-filters="sRGB">
<feFlood flood-opacity="0" result="BackgroundImageFix"/>
<feColorMatrix in="SourceAlpha" type="matrix" values="0 0 0 0 0 0 0 0 0 0 0 0 0 0 0 0 0 0 127 0" result="hardAlpha"/>
<feOffset dy="4"/>
<feGaussianBlur stdDeviation="2"/>
<feComposite in2="hardAlpha" operator="out"/>
<feColorMatrix type="matrix" values="0 0 0 0 0 0 0 0 0 0 0 0 0 0 0 0 0 0 0.15 0"/>
<feBlend mode="normal" in2="BackgroundImageFix" result="effect1_dropShadow_689_467"/>
<feBlend mode="normal" in="SourceGraphic" in2="effect1_dropShadow_689_467" result="shape"/>
</filter>
</defs>
</svg>
