<svg xmlns="http://www.w3.org/2000/svg" fill="none" viewBox="791.136 14.453074433656958 524.8000000000001 396.80258899676375" style="max-height: 500px" width="524.8000000000001" height="396.80258899676375">
<g clip-path="url(#clip0_218_784)">
<rect fill-opacity="0.16" fill="#D6A0C2" rx="40" height="387" width="1312" y="19" data-figma-bg-blur-radius="20"/>
<g filter="url(#filter1_f_218_784)">
<path fill-opacity="0.46" fill="#D39CC0" d="M1857.82 114.198L1855.75 129.951C1852.35 129.03 1848.86 128.262 1845.25 127.704C1821.52 124.04 1795.59 133.647 1771.22 137.54C1758.91 139.509 1746.5 141.088 1734.17 142.8C1725.11 144.058 1715.95 145.022 1707.19 144.29C1680.8 142.083 1661.95 126.028 1646.48 112.991C1639.1 106.78 1632.33 100.207 1625.19 93.8588C1621.44 90.5326 1617.27 87.4536 1612.42 84.9452C1604.42 80.8031 1594.69 78.5089 1583.92 79.0468C1560.43 80.2208 1537.15 92.2877 1517.12 102.247C1489.72 115.868 1462.68 130.17 1432.92 140.32C1424.48 143.199 1415.89 145.708 1407.18 147.812C1398.35 149.946 1389.22 152.249 1380.22 152.871C1364.42 153.962 1352.12 147.74 1337.27 146.507C1327.51 145.697 1317.19 147.053 1308.6 152.318C1299.86 157.675 1294.31 165.363 1289.67 172.538C1276.15 193.456 1267.12 215.209 1248.95 234.949C1238.24 246.577 1224.85 257.025 1209.06 265.199C1188.71 275.742 1165.5 282.109 1142.39 285.724C1123.7 288.648 1104.29 289.286 1086.35 296.28C1072.73 301.59 1063.12 310.266 1055.65 319.842C1044.11 334.648 1036.26 350.524 1027.33 365.929C1019 380.287 1012.71 395.236 1006.85 409.927C996.96 434.728 988.793 459.602 978.269 484.331L941.42 486.341C952.134 461.207 960.442 435.928 970.249 410.695C975.957 396.015 982.483 381.413 989.964 366.947C998.199 351.027 1007.39 334.816 1018.23 319.43C1025.47 309.14 1034.38 298.833 1047.69 291.737C1061.61 284.32 1078.29 281.172 1094.04 279.018C1118.96 275.612 1143.6 270.657 1166.72 260.785C1184.28 253.289 1199.96 243.358 1212.83 231.746C1234.56 212.14 1246.7 189.491 1260.07 167.327C1268.24 153.799 1279.25 134.676 1301.86 131.289C1315.73 129.208 1327.66 133.174 1339.49 136.067C1346.1 137.681 1352.98 138.783 1360.43 138.403C1370.11 137.91 1380.01 135.46 1389.54 133.184C1421.72 125.491 1451.43 112.025 1480.06 97.7883C1493.69 91.0089 1507.4 83.5718 1521.62 77.0651L1611.92 72.1402C1617.76 76.409 1622.49 81.4406 1627.66 86.1347C1634.26 92.1242 1641.06 97.9953 1648.27 103.588C1657.74 110.928 1667.96 118.073 1680.18 123.138C1688.22 126.462 1697.2 128.658 1707.06 128.99C1716.26 129.302 1725.74 128.117 1735.1 126.817C1748.24 124.988 1761.45 123.472 1774.56 121.224C1787.95 118.932 1801.16 115.584 1814.52 113.157C1826.05 111.062 1837.32 110.395 1848.15 112.136C1851.47 112.671 1854.68 113.373 1857.82 114.204L1857.82 114.198Z"/>
<path fill-opacity="0.46" fill="#D39CC0" d="M1854.36 140.59L1852.29 156.355C1845.27 154.302 1837.78 152.948 1829.73 153.094C1818.64 153.289 1807.5 156.388 1796.57 158.912C1782.13 162.251 1767.81 164.234 1753.26 166.442C1734.26 169.322 1716.08 172.944 1699.42 167.094C1687.52 162.917 1677.87 156.142 1669 149.356C1661.75 143.814 1654.95 137.964 1648.34 132.006C1643.09 127.273 1638.28 122.199 1632.19 118.014C1624.81 112.947 1615.56 109.155 1604.49 108.765C1594.36 108.409 1583.89 110.865 1574.11 114.252C1548.36 123.179 1525.32 137.195 1501.22 148.564C1486.8 155.366 1471.94 161.643 1456.47 166.67C1447.09 169.72 1437.51 172.216 1427.86 174.415C1420.34 176.129 1412.69 177.603 1405.2 177.306C1390.83 176.737 1378.88 171.033 1363.75 172.401C1353.69 173.31 1345.21 177.578 1338.98 183.85C1331.51 191.379 1327.12 200.2 1322.82 208.55C1317.35 219.175 1312.21 229.863 1305.41 240.245C1297.92 251.677 1288.41 262.711 1275.84 272.017C1260.58 283.309 1241.69 291.235 1221.91 296.132C1208 299.573 1193.8 301.607 1179.73 302.79C1170.71 303.546 1161.67 304.271 1152.65 305.963C1138.93 308.534 1127.02 313.553 1118.08 322.28C1105.48 334.589 1098.27 349.6 1090.63 363.261C1082.22 378.315 1074.57 393.37 1068.16 408.718C1058.12 432.768 1050.15 456.942 1039.95 480.966L1003.1 482.976C1013.5 458.529 1021.58 433.933 1031.52 409.427C1037.48 394.761 1044.12 380.071 1052.38 365.728C1061.09 350.621 1068.62 334.794 1080.82 320.533C1088.7 311.32 1099.02 303.993 1112.76 299.849C1133.02 293.742 1154.39 293.898 1174.97 290.008C1196.73 285.897 1218.28 278.919 1236.62 268.016C1251.15 259.372 1262.97 248.639 1272.3 237.06C1280.77 226.556 1287.21 215.5 1293.24 204.42C1298.3 195.115 1302.92 185.616 1309.46 176.619C1314.26 170.014 1320.6 163.194 1330.04 159.549C1341.02 155.313 1353.11 156.5 1363.25 158.615C1370.54 160.139 1377.5 162.268 1385.37 162.718C1393.56 163.189 1401.98 161.609 1410.25 159.753C1427.74 155.823 1444.67 150.635 1461.13 144.026C1488.88 132.889 1514.12 118.546 1540.89 106.1C1560.04 97.1991 1583.05 87.9251 1603.92 91.9169C1615.35 94.1008 1624.08 99.748 1631.11 106.059C1643.58 117.251 1655.57 128.715 1670.01 138.606C1684.79 148.733 1701.67 156.606 1724.79 154.591C1734.8 153.716 1744.85 151.821 1754.86 150.428C1769.73 148.356 1784.3 145.979 1799.04 142.635C1810.06 140.132 1821.28 137.369 1832.4 137.366C1840.21 137.364 1847.5 138.648 1854.37 140.584L1854.36 140.59Z"/>
<path fill-opacity="0.46" fill="#D39CC0" d="M1850.89 167.016L1848.83 182.696C1838.77 179.665 1827.82 178.305 1815.56 180.635C1802.78 183.062 1790.32 186.938 1777.48 189.169C1765.63 191.223 1753.69 192.893 1741.82 194.818C1733.47 196.174 1725.1 197.039 1717.24 195.732C1706.55 193.949 1697.9 188.983 1690.28 183.923C1675.86 174.356 1664.26 162.958 1651.81 152.085C1644.87 146.019 1636.13 140.529 1624.7 138.899C1603.68 135.906 1581.11 147.159 1562.85 156.246C1535.92 169.645 1509.56 183.804 1479.83 192.913C1463.82 197.819 1446.1 203.141 1430.02 200.981C1417.67 199.318 1404.75 195.586 1391.18 200.077C1381.25 203.365 1375.12 210.409 1370.8 217.247C1364.94 226.549 1361.31 236.302 1356.86 245.829C1351.71 256.881 1345.74 267.972 1336.72 278.137C1326.56 289.593 1312.69 299.124 1296.21 305.568C1272.4 314.879 1247.13 317.056 1222.29 318.353C1208.57 319.066 1192.55 320.044 1180.53 327.34C1167.24 335.407 1160.58 348.701 1154.4 359.49C1145.29 375.395 1136.69 391.286 1129.57 407.503C1119.34 430.799 1111.51 454.29 1101.6 477.615L1064.75 479.625C1074.83 455.887 1082.73 431.989 1092.85 408.246C1099.57 392.463 1107.71 377.03 1116.41 361.548C1123.43 349.047 1130.3 334.696 1143.18 323.983C1153.15 315.687 1166.55 312.317 1180.16 310.637C1191.26 309.265 1202.29 308.975 1213.39 307.719C1226.52 306.236 1239.74 303.857 1252.52 300.063C1270.97 294.579 1287.93 285.998 1301.09 274.562C1312.27 264.85 1320.27 253.721 1326.69 242.423C1332.46 232.275 1336.87 221.925 1342.26 211.719C1346.27 204.12 1350.93 195.752 1359.36 189.66C1367.67 183.658 1378.31 182.059 1388.44 182.769C1396.04 183.304 1402.89 185.189 1410.2 186.309C1417.54 187.433 1424.8 187.263 1432.64 185.793C1466.32 179.471 1497.4 166.171 1526.94 151.394C1548.19 140.762 1570.73 127.054 1595.21 122.122C1605.31 120.087 1615.29 120.266 1623.96 123.03C1637.6 127.378 1645.67 136.528 1654.63 144.543C1665.52 154.287 1676.85 164.109 1690.53 171.881C1698.04 176.143 1706.6 179.816 1716.75 180.726C1725.11 181.472 1733.87 180.236 1742.48 178.843C1755.24 176.783 1768.09 175.257 1780.81 172.868C1793.25 170.532 1805.49 166.769 1817.96 164.716C1829.89 162.747 1840.7 163.998 1850.89 167.028L1850.89 167.016Z"/>
<path fill-opacity="0.46" fill="#D39CC0" d="M1847.44 193.269L1845.34 209.2C1835.04 205.86 1823.74 204.334 1810.63 207.02C1797.01 209.816 1783.81 213.157 1770.01 214.836C1760 216.055 1749.94 217.948 1739.94 218.874C1715.03 221.179 1698.44 208.139 1684.15 197.016C1667.73 184.237 1652.15 164.724 1621.21 170.624C1610.24 172.714 1599.81 177.139 1589.97 181.679C1577.64 187.363 1565.71 193.584 1553.45 199.351C1539.15 206.074 1524.4 212.25 1509.01 217.087C1492.99 222.124 1476.39 226.958 1460.25 225.085C1448.37 223.707 1435.16 221.803 1423.1 227.759C1413.48 232.508 1408.2 240.606 1404.16 247.91C1392.64 268.708 1386.18 291.049 1362.81 308.306C1347.46 319.645 1327.62 326.287 1307.64 329.742C1294.31 332.049 1281.21 332.572 1267.92 333.718C1260.85 334.327 1253.56 335.102 1246.59 337.02C1232.78 340.825 1225.06 349.585 1218.87 358.8C1208.57 374.134 1199.94 390.16 1192.32 405.989C1181.41 428.602 1173.16 451.504 1163.33 474.241L1126.42 476.254C1136.23 453.181 1144.08 429.936 1154.42 406.916C1161.76 390.579 1170.5 374.468 1179.94 358.471C1185.73 348.652 1192.47 336.465 1206.04 330.299C1220.83 323.573 1239.18 324.642 1254.57 323.869C1277.99 322.693 1303.06 318.977 1324.47 308.661C1354.51 294.188 1366.59 270.512 1376.3 247.854C1382.43 233.528 1389.53 211.242 1414.81 208.562C1429.79 206.973 1442.33 212.754 1457.29 210.998C1466.16 209.954 1475.26 207.315 1483.89 204.937C1492.42 202.587 1500.79 199.796 1508.98 196.673C1536.01 186.37 1559.87 172.088 1585.94 160.482C1595.5 156.224 1605.79 152.251 1616.42 150.89C1626.82 149.556 1636.33 151.282 1644.19 155.077C1649.12 157.459 1653.33 160.49 1657.1 163.754C1664.4 170.059 1671.25 176.627 1678.77 182.793C1687.93 190.312 1697.72 198.16 1710.11 203.081C1717.26 205.914 1725.21 207.127 1734.05 206.342C1743.42 205.512 1752.82 203.295 1762.17 201.882C1776.55 199.704 1790.37 197.18 1804.54 193.576C1815.08 190.894 1825.12 188.929 1835.38 190.48C1839.55 191.112 1843.57 192.077 1847.44 193.272L1847.44 193.269Z"/>
<path fill-opacity="0.46" fill="#D39CC0" d="M1843.96 219.758L1841.91 235.376C1832.25 232.007 1821.66 230.227 1809.64 232.099C1796.59 234.132 1783.92 236.76 1770.81 237.893C1760.94 238.748 1750.84 240.19 1741.07 240.217C1712.95 240.291 1696.1 221.828 1678.22 210.444C1670.22 205.352 1660.13 201.377 1648.45 201.23C1638.24 201.104 1627.9 203.924 1618.25 207.531C1606.33 211.984 1595.05 217.549 1583.64 222.776C1569.62 229.197 1555.36 235.282 1540.46 240.22C1525.31 245.244 1508.95 250.337 1493.29 249.429C1480.98 248.716 1467.93 248.287 1456.47 254.913C1446.95 260.414 1441.52 268.767 1436.89 276.396C1430.94 286.215 1425.86 296.224 1418.44 305.701C1409.82 316.724 1398.17 326.503 1383.3 333.5C1373.39 338.164 1362.59 341.487 1351.68 343.842C1340.41 346.274 1329.11 347.271 1317.78 349.076C1304.63 351.172 1292.29 354.27 1283.55 362.931C1277.95 368.473 1274.03 374.781 1270.26 380.877C1265.54 388.512 1260.7 396.205 1256.52 403.944C1244.56 426.072 1235.18 448.5 1225.11 470.87L1188.18 472.884C1198.08 450.315 1206.74 427.606 1218.04 405.207C1221.94 397.475 1226.41 389.915 1230.8 382.272C1235.13 374.746 1239.41 367.1 1244.98 359.864C1252.01 350.721 1261.05 344.613 1274.75 341.868C1283.11 340.193 1291.61 339.462 1299.99 338.761C1313.43 337.636 1327.02 335.681 1340.21 332.009C1358.15 327.016 1374.42 318.725 1386.43 307.284C1396.35 297.842 1402.85 287.146 1408.49 276.471C1413.26 267.431 1417.22 257.994 1424.06 249.391C1429.69 242.298 1437.74 236.584 1448.64 234.669C1463.29 232.096 1476.17 236.979 1490.78 234.504C1522.84 229.068 1553.03 214.888 1581.23 201.328C1599.93 192.333 1622.52 180.306 1644.14 182.559C1656.44 183.842 1666.06 189.443 1673.69 195.655C1685 204.848 1696.61 214.374 1710.76 221.412C1718.08 225.054 1726.31 227.694 1735.99 227.703C1745.21 227.711 1754.77 225.999 1764.08 224.882C1777.79 223.24 1791.02 221.203 1804.62 218.289C1815.54 215.952 1825.35 214.979 1835.4 217.287C1838.39 217.974 1841.23 218.813 1843.96 219.761L1843.96 219.758Z"/>
<path fill-opacity="0.46" fill="#D39CC0" d="M1840.5 246.095L1838.44 261.786C1829.35 258.324 1819.79 255.934 1808.38 256.966C1795.94 258.091 1783.74 259.947 1771.32 260.401C1761.47 260.758 1751.24 261.563 1741.7 260.681C1731.03 259.692 1722.01 255.984 1713.69 251.862C1701.38 245.765 1691.19 237.53 1676.28 234.215C1654.91 229.466 1633.4 238.026 1613.06 246.634C1599.44 252.4 1585.85 258.184 1571.7 263.035C1557.2 268.01 1541.38 273.259 1526.1 273.515C1513.24 273.731 1500.42 274.982 1489.4 282.029C1479.93 288.081 1474.01 296.429 1468.41 304.23C1461.49 313.875 1454.67 323.602 1445.02 332.254C1432.56 343.432 1416.33 351.651 1398.52 356.939C1382.45 361.712 1363.52 363.113 1348.74 370.925C1334.85 378.276 1328.25 391.851 1321.73 402.348C1308.36 423.845 1297.38 445.562 1286.95 467.496L1249.93 469.515C1259.99 447.255 1269.57 424.813 1282.69 403.058C1287.18 395.601 1291.68 388.089 1296.64 380.735C1300.16 375.514 1304.05 370.09 1309.7 365.697C1319.92 357.751 1335.55 355.331 1348.7 353.296C1370.29 349.949 1391.86 344.621 1409.78 333.25C1422.44 325.22 1431.61 315.099 1438.93 304.52C1449.18 289.715 1457.23 267.179 1481.82 260.83C1495.98 257.175 1509.32 260.727 1523.47 257.746C1540.05 254.251 1556.43 248.666 1571.94 242.443C1584.95 237.228 1597.49 231.304 1610.28 225.764C1620.37 221.396 1630.92 217.072 1641.99 215.051C1672.89 209.406 1689.52 227.556 1709.19 238.444C1717.25 242.902 1726.16 247.103 1736.9 248.247C1745.87 249.204 1755.5 248.109 1764.81 247.465C1777.87 246.564 1790.59 245.104 1803.66 242.968C1814.92 241.126 1824.51 241.131 1834.37 244.034C1836.47 244.657 1838.51 245.347 1840.49 246.092L1840.5 246.095Z"/>
<path fill-opacity="0.46" fill="#D39CC0" d="M1837.05 272.388L1835 287.968C1826.35 284.132 1816.35 281.423 1805.36 281.592C1793.31 281.776 1781.41 282.396 1769.45 282.07C1759.72 281.805 1749.74 281.743 1740.53 280.115C1728.05 277.906 1716.98 273.261 1706.29 268.775C1696.77 264.78 1683.61 263.175 1671.68 264.145C1660.96 265.014 1650.48 268.164 1640.37 271.744C1627.26 276.381 1614.44 281.572 1601.25 286.057C1587.11 290.866 1572.28 295.803 1557.38 297.42C1544.31 298.836 1531.6 302.316 1521.07 309.35C1511.57 315.689 1504.77 323.725 1497.74 331.358C1489.02 340.827 1479.63 349.959 1467.71 357.618C1451.96 367.736 1433.81 373.176 1415.94 380.315C1410.21 382.604 1404.49 385.047 1399.74 388.471C1394.69 392.117 1390.99 396.572 1387.67 400.995C1372.39 421.361 1359.58 442.699 1348.79 464.127L1311.86 466.142C1322.62 444.161 1334.56 422.545 1348.53 401.071C1354.92 391.253 1361.73 380.676 1375.47 374.808C1392.43 367.566 1411.41 365.067 1428.44 357.792C1443.83 351.212 1456.73 342.139 1466.9 331.475C1474.99 323.006 1481.11 313.872 1488.72 305.233C1495.22 297.844 1503.23 290.985 1514.28 287.145C1527.8 282.447 1541.53 284.114 1555.23 280.771C1571.16 276.886 1586.68 271.542 1601.77 265.65C1613.8 260.952 1625.58 255.714 1637.84 251.445C1647.82 247.975 1658.26 245.332 1668.7 245.306C1682.39 245.273 1693.53 249.381 1703.63 254.61C1713.67 259.805 1724.23 265.256 1736.6 267.807C1745.31 269.602 1754.86 269.453 1764.26 269.341C1776.78 269.19 1789.01 268.653 1801.68 267.416C1813.11 266.302 1822.49 267.198 1832.12 270.523C1833.8 271.102 1835.44 271.727 1837.05 272.391L1837.05 272.388Z"/>
</g>
</g>
<defs>
<clipPath transform="translate(20 1)" id="bgblur_1_218_784_clip_path"><rect rx="40" height="387" width="1312" y="19"/>
</clipPath><filter color-interpolation-filters="sRGB" filterUnits="userSpaceOnUse" height="470.629" width="966.722" y="37.4118" x="919.72" id="filter1_f_218_784">
<feFlood result="BackgroundImageFix" flood-opacity="0"/>
<feBlend result="shape" in2="BackgroundImageFix" in="SourceGraphic" mode="normal"/>
<feGaussianBlur result="effect1_foregroundBlur_218_784" stdDeviation="10.85"/>
</filter>
<clipPath id="clip0_218_784">
<rect fill="white" rx="50" height="406" width="1312"/>
</clipPath>
</defs>
</svg>