<svg width="19" height="18" viewBox="0 0 19 18" fill="none" xmlns="http://www.w3.org/2000/svg">
<path d="M1.9375 9.57C1.9375 10.77 2.77975 11.8155 3.96775 11.9903C4.76875 12.108 5.57875 12.1995 6.39625 12.2633C6.74575 12.291 7.066 12.474 7.261 12.7665L9.25 15.75L11.239 12.7665C11.434 12.474 11.7543 12.291 12.1038 12.264C12.9213 12.1995 13.7312 12.108 14.5322 11.9903C15.7202 11.8155 16.5625 10.7708 16.5625 9.56925V5.05575C16.5625 3.85425 15.7202 2.8095 14.5322 2.63475C12.7832 2.37804 11.0178 2.24944 9.25 2.25C7.456 2.25 5.692 2.38125 3.96775 2.63475C2.77975 2.8095 1.9375 3.855 1.9375 5.05575V9.56925V9.57Z" stroke="white" stroke-width="1.5" stroke-linecap="round" stroke-linejoin="round"/>
</svg>
