<svg width="47" height="47" viewBox="0 0 47 47" fill="none" xmlns="http://www.w3.org/2000/svg">
<path d="M23.1612 13.5139C23.3881 13.5139 23.6031 13.4085 23.7051 13.2073C23.8119 12.9968 23.7565 12.7557 23.588 12.5872L23.5811 12.5803L23.5743 12.5745C23.5318 12.5374 23.4822 12.5163 23.4698 12.511C23.4453 12.5004 23.4168 12.4899 23.3878 12.4797C23.329 12.4592 23.2513 12.4348 23.1592 12.4075C22.974 12.3525 22.7182 12.2821 22.4112 12.2014C21.7965 12.0399 20.9691 11.835 20.0753 11.6252C18.2908 11.2066 15.3111 10.5091 13.4473 10.0706C11.5807 9.63135 9.96074 9.25431 9.84283 9.22485L9.83307 9.22192H9.83112C9.82758 9.19221 9.82526 9.14961 9.82526 9.08716C9.82525 8.95527 9.80762 8.82687 9.76569 8.71704C9.72834 8.6193 9.65067 8.48714 9.49908 8.42993L9.50006 8.42896C9.49758 8.42796 9.49473 8.42795 9.49225 8.427C9.48962 8.42606 9.48711 8.42399 9.48444 8.4231L9.48346 8.42407C9.26549 8.34482 9.05465 8.42594 8.91901 8.53833C8.80571 8.63221 8.71298 8.77109 8.68073 8.93384C8.64516 8.92758 8.60234 8.91917 8.55084 8.90845C8.40202 8.87744 8.20087 8.8299 7.92584 8.76489H7.92291C7.65824 8.70463 7.49395 8.67168 7.37018 8.63599C7.31164 8.61911 7.27684 8.60596 7.25592 8.59497C7.24631 8.58991 7.24082 8.58617 7.23834 8.58423C7.23723 8.58335 7.23671 8.58258 7.23639 8.58228V8.5813L7.23541 8.58032C7.23505 8.57974 7.23423 8.5789 7.23346 8.57739C7.23162 8.57373 7.22818 8.56661 7.22467 8.55493C7.21711 8.52967 7.20954 8.48959 7.20319 8.42603C7.18987 8.29254 7.18693 8.11716 7.17389 7.83813C7.16326 7.57735 7.06358 6.05066 6.9444 4.44165C6.8896 3.63466 6.83749 2.89251 6.79889 2.34595C6.77992 2.07729 6.76303 1.85605 6.75201 1.69751C6.7664 1.69689 6.78134 1.6952 6.79694 1.69458C7.00604 1.6863 7.31063 1.67834 7.68854 1.67212C8.444 1.65969 9.48674 1.65259 10.6319 1.65259C11.9884 1.65259 13.0428 1.64277 13.7637 1.62524C14.1237 1.6165 14.4039 1.60553 14.5977 1.59302C14.6934 1.58683 14.7733 1.57967 14.8331 1.57153C14.862 1.56759 14.8943 1.56259 14.9239 1.55493C14.9381 1.55124 14.9603 1.54427 14.9844 1.53345C14.994 1.52914 15.034 1.51241 15.0733 1.47388L15.1114 1.42798L15.1212 1.41333L15.129 1.39771C15.1728 1.30971 15.1807 1.21016 15.1807 1.14185C15.1807 1.06464 15.1702 0.980225 15.1485 0.900635L15.1465 0.893799C15.137 0.861827 15.1143 0.789099 15.0547 0.721924C14.9942 0.653812 14.9188 0.616355 14.8477 0.593018C14.72 0.551142 14.5281 0.532006 14.2462 0.519775C13.6639 0.494519 12.5461 0.494385 10.3829 0.494385C8.42648 0.494385 7.31165 0.500057 6.67877 0.522705C6.36574 0.533908 6.15484 0.549022 6.01471 0.574463C5.9455 0.587047 5.87427 0.60539 5.81158 0.636963C5.74248 0.671831 5.67103 0.730188 5.63092 0.823486L5.62506 0.835205L5.88776 0.933838L5.62604 0.836182C5.60842 0.883333 5.60531 0.932544 5.60455 0.94165C5.6027 0.96418 5.60136 0.989957 5.60065 1.01685C5.5992 1.07165 5.59864 1.14457 5.59967 1.23071C5.60174 1.40359 5.60859 1.64172 5.6192 1.927C5.64048 2.49892 5.67766 3.26697 5.7276 4.09106C5.77736 4.91218 5.8173 5.66032 5.84088 6.2063C5.85082 6.43654 5.85672 6.62966 5.86041 6.77661C5.78848 6.76242 5.70514 6.74629 5.61237 6.72681C5.26516 6.6539 4.78892 6.54721 4.26764 6.4231H4.26666C3.46338 6.23467 2.97765 6.12671 2.67975 6.08228C2.53312 6.06041 2.40866 6.04952 2.30573 6.06079C2.18987 6.07349 2.07866 6.11693 1.99518 6.21704L1.98737 6.22583L1.98053 6.2356C1.95152 6.27704 1.93066 6.32599 1.91803 6.35767C1.90271 6.39606 1.88731 6.44201 1.87115 6.49146C1.83873 6.5907 1.80113 6.7178 1.76178 6.86157C1.68281 7.15007 1.59154 7.51655 1.5069 7.88208C1.42231 8.2474 1.34312 8.61585 1.28815 8.90845C1.26078 9.05414 1.23926 9.18433 1.22565 9.28735C1.21887 9.33868 1.21345 9.38711 1.211 9.42896C1.20907 9.46194 1.20679 9.52013 1.21881 9.57544C1.25386 9.73687 1.38327 9.82322 1.46881 9.86938C1.56533 9.92145 1.69877 9.97056 1.8692 10.0227C2.21415 10.1282 2.78169 10.2672 3.69049 10.4758L4.57135 10.676C4.84679 10.7362 5.09942 10.7895 5.31647 10.8323C5.53297 10.8749 5.71652 10.9081 5.8526 10.929C5.92011 10.9393 5.98041 10.9472 6.02838 10.9514C6.05189 10.9535 6.07737 10.9544 6.10162 10.9543C6.10986 10.9543 6.13675 10.9528 6.17096 10.9465C6.17242 10.9899 6.17584 11.0347 6.17584 11.0803C6.17584 11.7538 6.22714 12.2731 6.34381 12.5842C6.39732 12.7269 6.49862 12.9201 6.70514 12.9807C6.92997 13.0466 7.11363 12.9141 7.22174 12.804C7.3634 12.6623 7.38833 12.4523 7.39557 12.2268C7.4035 11.9788 7.3883 11.5993 7.35358 11.0139L7.3526 11.01C7.32296 10.6197 7.30383 10.2593 7.29401 9.99536C7.29227 9.94882 7.29121 9.90522 7.2901 9.86548C7.43797 9.88966 7.62881 9.9248 7.83209 9.96899H7.83307L8.44537 10.0999L8.43951 10.2151L8.43561 10.4329C8.43962 10.4981 8.45083 10.5793 8.4903 10.6565C8.58603 10.8435 8.7705 10.8823 8.87408 10.8987C9.00587 10.9211 9.15378 10.9107 9.28717 10.8137C9.40228 10.7299 9.47021 10.605 9.51959 10.4915C9.53578 10.4568 9.55183 10.4223 9.56647 10.3899C9.66213 10.41 9.79113 10.4366 9.95416 10.4729C10.3713 10.5659 11.0096 10.7121 11.8956 10.9182L20.3858 12.9182C21.0649 13.083 21.7119 13.2298 22.2061 13.3362C22.4533 13.3894 22.664 13.4331 22.8214 13.4631C22.8995 13.478 22.9662 13.4899 23.0186 13.4983C23.0627 13.5053 23.1189 13.5139 23.1612 13.5139ZM5.24225 9.62134L5.24127 9.62231C4.92067 9.54009 4.1151 9.36143 3.45709 9.21411L3.45807 9.21313C3.04599 9.1188 2.75035 9.04162 2.56061 8.97876C2.52688 8.96758 2.49905 8.95476 2.47467 8.94556C2.4818 8.90949 2.49062 8.86863 2.50006 8.82349C2.53397 8.66146 2.5807 8.45089 2.63092 8.23267C2.71075 7.88576 2.79915 7.52842 2.85748 7.30981C3.13742 7.37899 3.76677 7.53045 4.45026 7.68579C4.88724 7.78511 5.29069 7.88184 5.58893 7.95825C5.71022 7.98933 5.81225 8.01771 5.89166 8.04028C5.8874 8.07254 5.88443 8.10927 5.87799 8.14966C5.847 8.34395 5.79407 8.60837 5.72565 8.89185L5.72467 8.8938L5.53815 9.6897L5.24225 9.62134Z" fill="white" stroke="white" stroke-width="0.559633"/>
<path d="M40.3446 10.1211C40.4648 10.1143 40.5684 10.0578 40.6444 9.96582C40.7098 9.8865 40.75 9.78628 40.7792 9.6875C40.8095 9.58473 40.8357 9.45731 40.8593 9.30273C40.9526 8.69038 41.0327 7.50749 41.1718 5.30762L41.1727 5.30566C41.2425 4.11932 41.3023 3.02898 41.3397 2.22754C41.3584 1.82718 41.3708 1.49708 41.3768 1.2627C41.3798 1.14615 41.3816 1.05043 41.3807 0.980469C41.3803 0.946061 41.379 0.913093 41.3768 0.885742C41.3758 0.87256 41.3741 0.855021 41.371 0.836914C41.3694 0.827904 41.3668 0.814369 41.3622 0.798828C41.3592 0.788806 41.3494 0.765062 41.3329 0.736328L41.3348 0.735352C41.3333 0.732743 41.3305 0.731013 41.329 0.728516C41.3272 0.725674 41.327 0.721638 41.3251 0.71875L41.3231 0.720703C41.2948 0.677967 41.264 0.650893 41.246 0.638672C41.2235 0.623523 41.2024 0.614773 41.1893 0.609375C41.1636 0.598742 41.1395 0.592423 41.1239 0.588867C41.0909 0.581403 41.053 0.575414 41.0165 0.571289C40.9411 0.562791 40.8369 0.556188 40.7079 0.549805C40.448 0.536953 40.0671 0.526665 39.5692 0.518555C38.5727 0.502321 37.0958 0.495118 35.1522 0.495117C32.5873 0.495117 31.1125 0.499221 30.2733 0.520508C29.8564 0.531085 29.585 0.5463 29.412 0.568359C29.3275 0.579156 29.2488 0.594163 29.1835 0.618164C29.1299 0.63784 29.0283 0.686322 28.9735 0.800781L28.9706 0.798828C28.9673 0.805382 28.9657 0.812684 28.9628 0.819336C28.9622 0.820788 28.9604 0.82177 28.9598 0.823242L28.9608 0.824219C28.9245 0.908481 28.911 0.998634 28.911 1.07324C28.911 1.14802 28.9243 1.23877 28.9608 1.32324H28.9598C28.9606 1.32521 28.962 1.32717 28.9628 1.3291C28.9655 1.33521 28.9676 1.34163 28.9706 1.34766L28.9735 1.34668C29.0267 1.45748 29.1238 1.50741 29.1786 1.52832C29.2432 1.5529 29.3199 1.56726 29.4012 1.57812C29.568 1.60039 29.8281 1.61539 30.2255 1.62598C31.025 1.64728 32.4277 1.65234 34.8632 1.65234H40.1649V1.89062C40.1649 2.16798 40.0757 3.76049 39.9657 5.44043C39.8413 7.33089 39.7784 8.40993 39.7733 9.02539C39.7708 9.32857 39.7814 9.54349 39.8143 9.69336C39.8312 9.77012 39.8582 9.84936 39.9061 9.91895C39.959 9.99571 40.0283 10.0468 40.1053 10.0762H40.1063C40.1579 10.0957 40.2454 10.1266 40.3446 10.1211Z" fill="white" stroke="white" stroke-width="0.559633"/>
<path d="M25.3085 15.9377C25.4169 15.9074 25.5191 15.8431 25.6132 15.7737C25.7113 15.7013 25.8251 15.6044 25.9579 15.4866L25.9599 15.4846C26.7521 14.7673 27.1194 13.9755 27.1093 12.9348L27.0966 12.5344C27.0703 12.167 27.0011 11.8872 26.8671 11.5774L26.8642 11.5715C26.787 11.4042 26.7127 11.2619 26.6396 11.1477C26.5687 11.0372 26.4854 10.932 26.3837 10.8616C26.2704 10.7833 26.1272 10.7451 25.9755 10.7922C25.8439 10.8332 25.7462 10.9271 25.6757 11.0129V11.0139C25.6316 11.0673 25.5921 11.1327 25.5702 11.2141C25.5486 11.2948 25.548 11.3742 25.5585 11.4495C25.5779 11.5885 25.6404 11.7548 25.7235 11.9553L25.7255 11.9592C25.8382 12.2193 25.9053 12.555 25.9169 12.8918C25.9285 13.2303 25.8829 13.5445 25.7929 13.7659L25.7919 13.7678C25.7667 13.8308 25.6888 13.9578 25.5663 14.1223C25.4492 14.2796 25.307 14.4513 25.1698 14.5979V14.5989C24.9639 14.8147 24.8164 14.983 24.7353 15.1243C24.6929 15.1981 24.6563 15.2842 24.6493 15.3811C24.6418 15.4864 24.6707 15.5776 24.7167 15.6526L24.7226 15.6614C24.7707 15.7336 24.8381 15.8249 24.9345 15.886C25.0512 15.9599 25.1814 15.9733 25.3085 15.9377Z" fill="white" stroke="white" stroke-width="0.559633"/>
<path d="M17.2513 22.1616C17.3985 22.1837 17.5455 22.153 17.6682 22.0571C17.7833 21.9672 17.8531 21.8391 17.8968 21.7114C17.9827 21.4597 17.9988 21.1118 17.968 20.7075C17.8705 19.4098 16.9172 18.1114 15.7454 17.7134C15.6007 17.6643 15.4826 17.6239 15.3889 17.5972C15.3005 17.5719 15.2029 17.5484 15.1087 17.5522C14.9912 17.557 14.8912 17.6026 14.8128 17.6831C14.754 17.7435 14.7118 17.823 14.6848 17.8706L14.6819 17.8745C14.6255 17.9786 14.5985 18.0965 14.6136 18.2183C14.6286 18.3389 14.6829 18.443 14.7561 18.5269C14.8969 18.688 15.1162 18.7878 15.3548 18.8394C15.4072 18.8512 15.4979 18.89 15.6194 18.9683C15.7364 19.0436 15.8661 19.1448 15.9944 19.2603C16.2556 19.4954 16.4843 19.7677 16.5921 19.979L16.596 19.9868H16.597C16.732 20.2333 16.7815 20.4656 16.7815 21.0581V21.062C16.784 21.2475 16.7864 21.3959 16.7923 21.5122C16.798 21.6246 16.8079 21.7279 16.8313 21.814C16.8568 21.9075 16.9061 22.0098 17.011 22.0806C17.1004 22.1407 17.2003 22.1553 17.2513 22.1626V22.1616Z" fill="white" stroke="white" stroke-width="0.559633"/>
<path d="M23.4997 19.8433C23.5524 19.8433 23.6455 19.843 23.7321 19.813C23.8478 19.7728 23.9281 19.6905 23.9743 19.5854C24.0112 19.5012 24.0257 19.4036 24.0348 19.314L24.0583 18.9487V18.9478C24.0734 18.6201 24.06 18.3403 23.9821 18.1343C23.9409 18.0254 23.8755 17.9202 23.7721 17.8442C23.6667 17.7669 23.5467 17.7378 23.4303 17.7378C23.322 17.7378 23.2262 17.7818 23.1579 17.8306C23.0902 17.879 23.0241 17.9522 22.985 18.0483L22.9841 18.0474C22.9835 18.0485 22.9836 18.0501 22.9831 18.0513C22.982 18.054 22.9802 18.0564 22.9792 18.0591L22.9811 18.0601C22.958 18.1202 22.9481 18.1894 22.944 18.23C22.9383 18.2871 22.9343 18.3555 22.9323 18.4292C22.9283 18.5766 22.9318 18.7581 22.9421 18.939C22.9494 19.0891 22.9558 19.2124 22.9655 19.3091C22.9747 19.4001 22.9885 19.499 23.0251 19.5835C23.0706 19.6885 23.1506 19.772 23.2673 19.813C23.3541 19.8434 23.4471 19.8433 23.4997 19.8433Z" fill="white" stroke="white" stroke-width="0.559633"/>
<path d="M27.3038 23.1575C27.414 23.1747 27.5502 23.1746 27.6729 23.1047C27.8082 23.0276 27.8727 22.8984 27.8926 22.7737C27.9111 22.658 27.8946 22.5353 27.8653 22.4202C27.835 22.3014 27.7857 22.1698 27.7217 22.0286C27.3159 21.1079 27.5616 20.0132 28.3389 19.3245L28.5166 19.1565C28.57 19.101 28.6174 19.0455 28.6582 18.9915C28.7374 18.8867 28.8047 18.7685 28.8301 18.6428C28.8577 18.5062 28.8355 18.3502 28.7198 18.2278C28.6167 18.1189 28.4754 18.0762 28.3506 18.0598L28.3487 18.0588C28.1767 18.0374 28.0171 18.102 27.878 18.1897C27.7371 18.2786 27.5825 18.4129 27.4082 18.5872C27.0388 18.9566 26.7739 19.3104 26.6045 19.7122C26.4774 20.0138 26.4092 20.3316 26.3829 20.6877L26.3702 21.0579C26.3653 21.3889 26.3747 21.6325 26.4161 21.8508C26.4586 22.0754 26.5326 22.2602 26.6377 22.4758L26.6397 22.4817C26.7287 22.6545 26.8205 22.8039 26.917 22.9163C27.0079 23.022 27.1356 23.1319 27.3038 23.1575Z" fill="white" stroke="white" stroke-width="0.559633"/>
<path d="M6.93314 46.4832L6.93509 46.4822C7.04701 46.4657 7.19282 46.424 7.29349 46.2986C7.40013 46.1656 7.40361 46.0069 7.3804 45.8816C7.3574 45.7576 7.30133 45.623 7.22903 45.4822C7.15499 45.338 7.05455 45.1702 6.93021 44.9773C5.66668 43.0178 4.69442 40.286 4.17044 37.2068L4.07181 36.5857C3.98045 35.9798 3.91964 34.6009 3.90091 33.1218C3.88227 31.6489 3.90542 30.1045 3.97415 29.1746L4.05032 28.2595L5.23001 27.7L5.23294 27.699C5.5933 27.5238 5.93298 27.3525 6.189 27.2156C6.31654 27.1474 6.42702 27.086 6.50931 27.0359C6.54992 27.0111 6.58822 26.9866 6.61966 26.9636C6.63523 26.9522 6.6525 26.938 6.66946 26.9226C6.68034 26.9127 6.70433 26.8887 6.72708 26.8542L6.72903 26.8552C6.73147 26.8516 6.73267 26.8472 6.73489 26.8435C6.73595 26.8417 6.73777 26.8404 6.7388 26.8386H6.73782C6.77245 26.7793 6.78099 26.7215 6.78372 26.6921C6.78724 26.654 6.78571 26.6167 6.78275 26.5857C6.77672 26.5229 6.76188 26.4529 6.74368 26.3835C6.70681 26.2431 6.647 26.0735 6.57181 25.907L6.5679 25.9001C6.50864 25.7777 6.45884 25.6634 6.42044 25.572C6.45572 25.5537 6.49511 25.5331 6.53763 25.5115C6.71729 25.4201 6.95008 25.3049 7.18314 25.1921C7.41638 25.0792 7.64851 24.969 7.82571 24.8875C7.87328 24.8656 7.91677 24.8468 7.95462 24.8298C7.96045 24.8415 7.96768 24.8531 7.97318 24.866L7.97513 24.8728H7.9761C8.0941 25.1304 8.33543 25.3004 8.6011 25.2732C8.73381 25.2595 8.85961 25.195 8.94778 25.0828C9.03353 24.9735 9.07036 24.8373 9.0679 24.696L9.06204 24.5671C9.0578 24.5164 9.04976 24.4663 9.04251 24.4197C9.13967 24.3583 9.29322 24.2712 9.50735 24.1589C9.93897 23.9327 10.5921 23.6137 11.4576 23.2058C12.1869 22.8661 12.8602 22.5406 13.3579 22.2898C13.6064 22.1646 13.8133 22.0565 13.9624 21.9744C14.0365 21.9336 14.1002 21.898 14.148 21.8679C14.1715 21.8531 14.1954 21.8368 14.2163 21.821C14.221 21.8176 14.2351 21.807 14.2525 21.7908L14.3081 21.7244L14.3101 21.7224L14.3452 21.655C14.4156 21.4958 14.4074 21.3203 14.3609 21.1843C14.3124 21.0427 14.1734 20.828 13.9117 20.8279C13.8735 20.8279 13.8419 20.8358 13.8345 20.8376C13.8211 20.8409 13.8083 20.8452 13.7984 20.8484C13.778 20.855 13.7547 20.8637 13.731 20.8728C13.6826 20.8914 13.6185 20.9177 13.5425 20.95C13.3896 21.0149 13.1785 21.108 12.9253 21.2214C12.418 21.4488 11.7364 21.7613 11.0034 22.1003H11.0015C10.2699 22.4438 9.59833 22.7552 9.10599 22.9802C8.85992 23.0927 8.65878 23.1834 8.5181 23.2458C8.51663 23.2465 8.51467 23.2472 8.51321 23.2478V23.2468L8.51224 23.2439C8.47018 23.1298 8.40391 22.9998 8.27786 22.9158C8.14263 22.8258 7.99492 22.8239 7.87259 22.8455V22.8464C7.76354 22.864 7.58425 22.906 7.49075 23.0964C7.45333 23.1728 7.4406 23.2541 7.43509 23.322C7.42945 23.3918 7.42961 23.4718 7.43216 23.5583V23.5642L7.4429 23.7732L6.67825 24.1228L6.67532 24.1238C6.42672 24.2408 6.19259 24.3398 6.01712 24.405C5.972 24.4218 5.93129 24.4337 5.897 24.4451C5.89561 24.4427 5.89452 24.4397 5.8931 24.4373C5.83944 24.3459 5.77459 24.2214 5.71341 24.0896L5.71243 24.0906C5.62589 23.9023 5.54147 23.7447 5.44485 23.6326C5.34078 23.5118 5.20196 23.4198 5.02103 23.4197C4.95552 23.4197 4.88525 23.4389 4.84134 23.4519C4.7867 23.4681 4.72204 23.4908 4.65091 23.5173C4.50797 23.5707 4.32488 23.6461 4.11868 23.7351C3.70559 23.9134 3.18665 24.152 2.67825 24.3953C2.16994 24.6385 1.66878 24.8876 1.29153 25.0876C1.10359 25.1873 0.942482 25.277 0.825714 25.3484C0.768348 25.3834 0.715616 25.4177 0.674347 25.449C0.65431 25.4642 0.630165 25.4847 0.607941 25.5076C0.596779 25.5191 0.580679 25.5364 0.565948 25.5583C0.55444 25.5756 0.537286 25.6097 0.525909 25.656L0.52298 25.655C0.521943 25.6592 0.522837 25.6637 0.522003 25.6677C0.521545 25.67 0.519485 25.6722 0.519073 25.6746L0.521027 25.6755C0.51285 25.7213 0.514459 25.7595 0.516144 25.7751C0.518791 25.7995 0.523343 25.8228 0.527863 25.8425C0.537098 25.8827 0.551246 25.9289 0.566925 25.9763C0.598657 26.0722 0.644669 26.196 0.701691 26.3367C0.81626 26.6193 0.97858 26.9856 1.1597 27.3679C1.33594 27.7427 1.47702 28.0359 1.5972 28.2576C1.7146 28.4741 1.82625 28.6498 1.95071 28.7673C2.09174 28.9004 2.25579 28.9655 2.44583 28.9451C2.57555 28.9311 2.70316 28.8745 2.82083 28.8171C2.81064 28.9832 2.79866 29.1869 2.77884 29.405L2.77786 29.4089C2.64719 31.0678 2.67738 34.804 2.83939 36.1912L2.95755 37.1052C3.25816 39.1919 3.72373 40.9686 4.42239 42.6931V42.6941C4.82092 43.6677 5.29175 44.5982 5.71048 45.283C5.91904 45.624 6.11991 45.9125 6.29739 46.116C6.38541 46.2169 6.4761 46.3064 6.56595 46.3708C6.63455 46.4201 6.7444 46.486 6.87552 46.4871L6.93314 46.4832ZM2.50735 27.4861C2.42316 27.3027 2.31976 27.0714 2.21927 26.8425C2.11876 26.6136 2.0214 26.3883 1.94974 26.2166C1.936 26.1836 1.92319 26.153 1.91165 26.1248C1.98281 26.0843 2.07209 26.0336 2.17728 25.9773C2.45951 25.8263 2.83964 25.631 3.22708 25.4373C3.61422 25.2437 4.00675 25.0527 4.314 24.9089C4.46075 24.8403 4.58669 24.7829 4.68216 24.7419C4.69482 24.7639 4.7113 24.7873 4.7261 24.8142C4.77136 24.8964 4.82264 24.9959 4.87845 25.1072L5.05618 25.4734C5.17984 25.7405 5.29099 25.9869 5.37064 26.1707C5.38631 26.2068 5.39971 26.2407 5.41263 26.2712C5.33353 26.3129 5.23324 26.3644 5.11673 26.4226C4.80967 26.5761 4.39882 26.7745 3.98587 26.9695C3.57274 27.1646 3.15919 27.3561 2.84818 27.4949C2.74038 27.543 2.64524 27.5831 2.5679 27.616C2.54942 27.5765 2.52893 27.5331 2.50735 27.4861Z" fill="white" stroke="white" stroke-width="0.559633"/>
<path d="M41.675 44.011C41.7653 44.0146 41.8665 44.0035 41.9601 43.968C42.0504 43.9338 42.1696 43.8617 42.2277 43.7209L42.2287 43.72C43.7991 39.8945 44.3826 36.6266 44.2922 32.1858C44.2872 31.7177 44.2827 31.2913 44.2814 30.9817C44.2813 30.9582 44.2815 30.9354 44.2814 30.9133C44.3828 30.9639 44.4945 31.0132 44.6056 31.0198C44.6858 31.0245 44.7655 31.0086 44.84 30.968C44.9005 30.935 44.9459 30.8904 44.9806 30.8508H44.9816C44.9823 30.8501 44.9829 30.8486 44.9836 30.8479C44.9873 30.8436 44.9918 30.8403 44.9953 30.8362L44.9933 30.8352C45.0441 30.7785 45.1005 30.6966 45.1515 30.6145C45.2116 30.5178 45.2817 30.3969 45.3566 30.262C45.5067 29.9915 45.6822 29.6557 45.8478 29.3245C46.0134 28.9933 46.1713 28.6632 46.2863 28.4045C46.3436 28.2758 46.3914 28.1604 46.425 28.0706C46.4415 28.0263 46.4565 27.9828 46.467 27.9446C46.4721 27.9256 46.478 27.9028 46.4816 27.8792C46.4843 27.8613 46.4904 27.816 46.4806 27.7639L46.4797 27.761C46.4606 27.666 46.401 27.6 46.3801 27.5774C46.3485 27.5433 46.3104 27.5109 46.2726 27.4807C46.1959 27.4194 46.0927 27.348 45.9728 27.2717C45.7315 27.1182 45.3985 26.9278 45.0119 26.7219L45.008 26.72L43.8322 26.1145L43.6095 24.9719V24.9709C43.4971 24.4036 43.4248 24.0573 43.3508 23.8538C43.313 23.7502 43.2625 23.6456 43.1759 23.5667C43.0807 23.4798 42.9755 23.4549 42.8976 23.4436C42.7973 23.4285 42.6479 23.4195 42.5138 23.5051C42.3688 23.5979 42.3176 23.749 42.3 23.8733C42.2824 23.9974 42.2904 24.1473 42.3097 24.3157C42.3295 24.488 42.3638 24.7 42.4113 24.9553C42.4447 25.1411 42.4711 25.3164 42.4914 25.4631C42.4007 25.4181 42.3124 25.3778 42.2258 25.3547C42.1055 25.3228 41.9713 25.3144 41.8361 25.3704C41.707 25.4238 41.6144 25.5212 41.5422 25.6204C41.4705 25.7186 41.4024 25.8424 41.3322 25.9827L41.1447 26.3459C41.1217 26.3365 41.0963 26.3272 41.0695 26.3157C40.8904 26.2388 40.6462 26.1236 40.3801 25.9905L40.3781 25.9895C40.1433 25.8746 39.9684 25.7881 39.8381 25.719C39.7354 25.6645 39.6698 25.6255 39.6281 25.5969C39.6902 25.4297 39.7348 25.2612 39.7179 25.1077C39.7082 25.0193 39.6784 24.9304 39.6174 24.8528C39.557 24.7762 39.4798 24.7275 39.4045 24.6965L39.3937 24.6917V24.6926C39.0474 24.5667 38.7081 24.7279 38.5666 25.0403C38.5124 25.0139 38.4462 24.9811 38.3683 24.9426C38.1434 24.8314 37.8249 24.6727 37.4377 24.4778C36.6634 24.0881 35.6126 23.5548 34.4718 22.9719L34.4709 22.9709C33.3295 22.3928 32.2797 21.8648 31.509 21.4807C31.1238 21.2887 30.8076 21.1321 30.5842 21.0237C30.4727 20.9696 30.3826 20.9273 30.3185 20.8977C30.2869 20.8831 30.2592 20.8697 30.2375 20.8606C30.2272 20.8563 30.2152 20.8512 30.2033 20.8469C30.1975 20.8449 30.1878 20.8421 30.1769 20.8391C30.1736 20.8382 30.1404 20.8284 30.0988 20.8284C30.0245 20.8284 29.9546 20.8488 29.9006 20.8733C29.8566 20.8933 29.8014 20.9278 29.7531 20.9797C29.7065 21.024 29.6796 21.0722 29.6672 21.0989C29.6491 21.1378 29.6361 21.1781 29.6271 21.2141C29.6091 21.2864 29.5988 21.3692 29.5988 21.4465C29.5988 21.5944 29.6774 21.7064 29.757 21.7864C29.8358 21.8654 29.9473 21.9452 30.0871 22.0315C30.2283 22.1187 30.4158 22.2233 30.6603 22.3528L31.5773 22.8235C33.6548 23.8797 35.2762 24.7082 36.3888 25.2844C36.9454 25.5727 37.3737 25.7976 37.6681 25.9553C37.8155 26.0342 37.9276 26.0959 38.0051 26.1399C38.0074 26.1413 38.0096 26.1435 38.0119 26.1448C37.9642 26.235 37.9377 26.3364 37.9259 26.425C37.9149 26.5085 37.9108 26.6246 37.9494 26.7278C38.0545 27.0148 38.3351 27.0902 38.5461 27.0618C38.7308 27.0368 38.92 26.9337 39.0451 26.7629L39.0939 26.6858L39.0978 26.679L39.0988 26.677L39.8293 27.0481L39.8332 27.05C40.1033 27.1827 40.3458 27.3104 40.5197 27.4065C40.5466 27.4214 40.5708 27.4374 40.5939 27.4504C40.5534 27.5382 40.503 27.6461 40.4455 27.7571C40.3711 27.9005 40.3038 28.0496 40.2551 28.177C40.2308 28.2404 40.2099 28.3015 40.1945 28.3557C40.1813 28.4022 40.1643 28.4694 40.1642 28.5334C40.1642 28.6523 40.2329 28.7348 40.2551 28.761C40.2879 28.7999 40.3275 28.8353 40.3654 28.8655C40.4426 28.927 40.5483 28.9969 40.674 29.0725C40.9276 29.2252 41.2945 29.4204 41.7551 29.6506L43.0451 30.2971L43.1154 31.3821C43.1937 32.8081 43.0354 35.9558 42.799 37.512C42.5725 39.0085 42.0299 41.0499 41.5314 42.262L41.5304 42.2639C41.4087 42.5683 41.3038 42.8626 41.2326 43.093C41.1972 43.2076 41.1684 43.3114 41.1506 43.3948C41.1418 43.4358 41.1347 43.4779 41.131 43.5168C41.1288 43.5405 41.1209 43.6152 41.1486 43.6907C41.199 43.8298 41.3111 43.9072 41.3957 43.9465C41.4852 43.9881 41.5845 44.0073 41.675 44.011ZM42.1857 26.6624C42.1862 26.6625 42.1875 26.6626 42.1896 26.6633L42.1916 26.6653L42.1857 26.6624ZM44.0705 29.4866C43.7677 29.3416 43.3676 29.1401 42.9679 28.9329C42.5683 28.7256 42.1719 28.5137 41.8761 28.3489C41.7534 28.2804 41.6498 28.2211 41.5715 28.1741C41.59 28.1298 41.6117 28.0778 41.6379 28.0208C41.7208 27.8401 41.8341 27.6148 41.9513 27.3938C42.0687 27.1725 42.1881 26.9601 42.2834 26.8049C42.3014 26.7757 42.3199 26.7504 42.3351 26.7268C42.422 26.7657 42.5367 26.8174 42.672 26.8821C42.9771 27.0278 43.3836 27.229 43.8156 27.4475L45.1457 28.1252L44.7629 28.8401L44.7619 28.8411C44.6002 29.1471 44.4475 29.4296 44.3478 29.6145C44.2719 29.5807 44.1779 29.538 44.0705 29.4866Z" fill="white" stroke="white" stroke-width="0.559633"/>
<path d="M23.4317 46.4783C23.509 46.4783 23.5933 46.4668 23.6729 46.4451L23.6837 46.4421C23.7149 46.4323 23.7707 46.4138 23.8262 46.3738C23.8865 46.3304 23.9306 46.2738 23.962 46.2097C24.0156 46.1002 24.0369 45.9558 24.0499 45.7869C24.0771 45.433 24.0792 44.7781 24.0792 43.5544V41.1082L27.585 37.6023C29.3692 35.8181 30.3452 34.8299 30.8174 34.2673C30.9364 34.1255 31.0297 34.0041 31.0967 33.8992C31.1612 33.7983 31.2154 33.6921 31.2354 33.5837C31.2584 33.4593 31.2356 33.3294 31.1456 33.2234C31.0736 33.1387 30.9777 33.0965 30.9131 33.071L30.9141 33.0691C30.8156 33.028 30.726 33.0511 30.6924 33.0613C30.6499 33.0742 30.6118 33.0941 30.5821 33.1111C30.5215 33.1458 30.4516 33.1959 30.3751 33.2566C30.2192 33.3801 30.0003 33.5746 29.7071 33.8484C29.1189 34.3977 28.2108 35.2881 26.8702 36.6287L23.5001 39.9988L20.129 36.6277C19.1471 35.6508 18.2502 34.7607 17.5958 34.115C17.2686 33.7922 17.001 33.53 16.8145 33.3484C16.7216 33.2579 16.6481 33.1863 16.5967 33.1375C16.5713 33.1133 16.5501 33.0933 16.5342 33.0789C16.5267 33.072 16.5172 33.0644 16.5089 33.0574C16.5052 33.0543 16.4975 33.0483 16.4883 33.0417C16.4841 33.0387 16.4736 33.0307 16.46 33.0232C16.4532 33.0194 16.441 33.0128 16.4249 33.0066C16.413 33.002 16.3744 32.988 16.3233 32.988C16.2611 32.9881 16.2078 33.0083 16.1915 33.0144C16.1645 33.0245 16.1365 33.037 16.1114 33.0496C16.0605 33.075 16.003 33.1085 15.9493 33.1443V33.1453C15.8749 33.1877 15.8092 33.2427 15.7598 33.3035C15.7228 33.3491 15.677 33.4192 15.6563 33.5056L15.6446 33.5964L15.6553 33.6716C15.6605 33.691 15.6656 33.705 15.668 33.7107C15.6756 33.7286 15.6844 33.7432 15.6895 33.7517C15.6998 33.7689 15.7113 33.7842 15.7198 33.7957C15.7379 33.8198 15.7606 33.8488 15.7862 33.8787C15.8383 33.9394 15.9131 34.0217 16.0059 34.1218C16.1926 34.3231 16.462 34.6044 16.7921 34.9451C17.4525 35.6267 18.363 36.5502 19.3653 37.5525L22.921 41.1082V43.5544C22.921 44.3633 22.9316 45.0129 22.9493 45.4666C22.9581 45.6923 22.9685 45.8738 22.9815 46.0037C22.9879 46.0676 22.9953 46.1263 23.0049 46.1736C23.0096 46.1964 23.0167 46.2257 23.0274 46.2546C23.0328 46.2691 23.0411 46.2904 23.0547 46.3132C23.0667 46.3331 23.0949 46.3741 23.1456 46.408L23.1602 46.4177L23.1758 46.4255C23.2639 46.4695 23.3633 46.4783 23.4317 46.4783Z" fill="white" stroke="white" stroke-width="0.559633"/>
</svg>
