<svg width="60" height="60" viewBox="0 0 60 60" fill="none" xmlns="http://www.w3.org/2000/svg">
<path d="M44.418 7.5H46.7437C50.6512 17.3099 52.6349 25.1327 52.625 32.3144C52.6154 39.3326 50.703 45.6392 46.9945 52.5001H44.5174C48.5075 45.4274 50.4726 39.206 50.4821 32.3111C50.4916 25.36 48.5144 17.6134 44.418 7.5ZM13.5064 7.5H15.8321C11.7357 17.6134 9.75847 25.36 9.76802 32.3111C9.77748 39.206 11.7427 45.4274 15.7327 52.5001H13.2556C9.54708 45.6392 7.63478 39.3326 7.62516 32.3144C7.6153 25.1327 9.59886 17.3099 13.5064 7.5ZM29.0537 39.4329V52.5H31.1966V39.4326L39.9741 30.2164L38.4589 28.6254L30.125 37.3758L21.7912 28.6254L20.276 30.2164L29.0537 39.4329Z" fill="white"/>
<path fill-rule="evenodd" clip-rule="evenodd" d="M31.5665 20.3752L33.5431 18.0692C34.8572 16.5361 34.7985 14.1914 33.4095 12.7329C32.9627 12.2638 32.3567 12.0002 31.725 12.0002H28.5252C27.8934 12.0002 27.2874 12.2638 26.8406 12.7329C25.4516 14.1914 25.393 16.5361 26.707 18.0692L28.6836 20.3752L23.9715 25.8726L25.5644 27.3779L30.1251 22.057L34.6859 27.3779L36.2786 25.8726L31.5665 20.3752ZM28.5252 14.2502C28.4617 14.2502 28.4007 14.2767 28.3559 14.3239C27.7727 14.9361 27.7481 15.9205 28.2997 16.564L30.1251 18.6935L31.9504 16.564C32.502 15.9205 32.4774 14.9361 31.8942 14.3239C31.8494 14.2767 31.7885 14.2502 31.725 14.2502H28.5252Z" fill="white"/>
</svg>
