<svg width="49" height="49" viewBox="0 0 49 49" fill="none" xmlns="http://www.w3.org/2000/svg">
<path d="M23.9617 29.295L23.3416 29.9046L22.7214 29.295C21.3178 27.915 19.0351 27.915 17.6315 29.295C16.9499 29.9648 16.575 30.8563 16.575 31.8049C16.575 32.7534 16.9505 33.6449 17.6315 34.3147L23.1237 39.7156C23.1839 39.7752 23.2627 39.8049 23.3416 39.8049C23.4204 39.8049 23.4986 39.7752 23.5594 39.7156L29.0516 34.3147C29.7332 33.6449 30.1081 32.7534 30.1081 31.8049C30.1081 30.8563 29.7326 29.9648 29.0516 29.295C27.648 27.915 25.3647 27.915 23.9617 29.295Z" fill="white"/>
<path d="M10.9259 6.77832H8.93941V8.64068H10.9259V6.77832Z" fill="white"/>
<path d="M3.97304 33.5964H0V35.4588H3.97304V33.5964Z" fill="white"/>
<path d="M3.63785 25.9231L2.32098 27.24L5.30072 30.2196L6.61758 28.9027L3.63785 25.9231Z" fill="white"/>
<path d="M5.30061 38.8352L2.32098 41.8149L3.6379 43.1318L6.61753 40.1521L5.30061 38.8352Z" fill="white"/>
<path d="M22.8859 45.1567C19.1991 45.1567 15.5482 43.5396 13.3097 40.9024C11.0525 38.243 10.2864 34.5946 11.3101 31.3808C12.4325 27.8554 15.3967 24.8967 18.2635 22.0355C20.476 19.8273 22.7549 17.5515 24.2001 14.9945C25.0581 15.3844 26.0203 15.5954 27.0048 15.5954C27.6989 15.5954 28.4035 15.4905 29.0895 15.2708L28.5208 13.4972C26.4114 14.1738 23.9946 13.3283 23.1336 11.6137C21.825 9.00825 24.1474 5.23262 29.3471 1.51472L28.2638 0C19.5982 6.19484 20.625 10.77 21.4687 12.4493C21.7598 13.0291 22.1596 13.5406 22.6376 13.9739C21.3364 16.3354 19.1991 18.469 16.9481 20.7169C13.9236 23.7358 10.7961 26.8578 9.53589 30.8153C8.31914 34.6356 9.22177 38.9625 11.8905 42.1074C13.8206 44.3813 16.6489 45.9985 19.7156 46.6708C20.0514 47.6007 20.2774 47.9161 20.9143 48.7411C20.9758 48.8212 21.0422 48.9069 21.1136 49L22.591 47.8658C22.5184 47.7715 22.4514 47.6839 22.3881 47.6026C22.1851 47.34 22.0404 47.1519 21.9256 46.9849C22.2465 47.006 22.5675 47.0184 22.889 47.0184C22.979 47.0184 23.0697 47.0178 23.1603 47.016L23.1249 45.1542C23.0448 45.1561 22.9654 45.1567 22.8859 45.1567ZM41.7144 29.4992C41.3053 24.8315 43.0205 20.373 45.1331 15.4464C47.1922 10.644 49.008 5.90183 48.6157 0.687212L46.7583 0.826889C47.119 5.62123 45.3857 10.1306 43.4216 14.7127C42.4041 17.0859 41.4332 19.4195 40.7391 21.8753C39.9371 24.7136 39.649 27.2606 39.8595 29.6618C40.1457 32.9259 41.3655 35.871 42.545 38.7191C43.8841 41.9522 45.1492 45.0065 45.0996 48.4196L46.9619 48.4463C47.0172 44.6483 45.6185 41.2718 44.2658 38.0059C43.1397 35.2887 41.9758 32.4777 41.7144 29.4992Z" fill="white"/>
</svg>
