<svg width="310" height="210" viewBox="0 0 310 210" fill="none" xmlns="http://www.w3.org/2000/svg">
<rect width="310" height="210" rx="50" fill="#F8B0E8" fill-opacity="0.22"/>
<path d="M29.2912 52V38.9091H34.2003C35.206 38.9091 36.0497 39.0966 36.7315 39.4716C37.4176 39.8466 37.9354 40.3622 38.2848 41.0185C38.6385 41.6705 38.8153 42.4119 38.8153 43.2429C38.8153 44.0824 38.6385 44.8281 38.2848 45.4801C37.9311 46.1321 37.4091 46.6456 36.7188 47.0206C36.0284 47.3913 35.1783 47.5767 34.1683 47.5767H30.9148V45.6271H33.8487C34.4368 45.6271 34.9183 45.5249 35.2933 45.3203C35.6683 45.1158 35.9453 44.8345 36.1243 44.4766C36.3075 44.1186 36.3991 43.7074 36.3991 43.2429C36.3991 42.7784 36.3075 42.3693 36.1243 42.0156C35.9453 41.6619 35.6662 41.3871 35.2869 41.1911C34.9119 40.9908 34.4283 40.8906 33.8359 40.8906H31.6626V52H29.2912ZM40.7729 52V42.1818H43.0165V43.8182H43.1188C43.2978 43.2514 43.6046 42.8146 44.0392 42.5078C44.4782 42.1967 44.9789 42.0412 45.5414 42.0412C45.6692 42.0412 45.812 42.0476 45.9696 42.0604C46.1316 42.0689 46.2658 42.0838 46.3723 42.1051V44.2337C46.2743 44.1996 46.1188 44.1697 45.9057 44.1442C45.6969 44.1143 45.4945 44.0994 45.2985 44.0994C44.8766 44.0994 44.4973 44.1911 44.1607 44.3743C43.8283 44.5533 43.5662 44.8026 43.3745 45.1222C43.1827 45.4418 43.0868 45.8104 43.0868 46.228V52H40.7729ZM47.9096 52V42.1818H50.2235V52H47.9096ZM49.073 40.7884C48.7065 40.7884 48.3912 40.6669 48.127 40.424C47.8627 40.1768 47.7306 39.8807 47.7306 39.5355C47.7306 39.1861 47.8627 38.8899 48.127 38.647C48.3912 38.3999 48.7065 38.2763 49.073 38.2763C49.4437 38.2763 49.7591 38.3999 50.019 38.647C50.2832 38.8899 50.4153 39.1861 50.4153 39.5355C50.4153 39.8807 50.2832 40.1768 50.019 40.424C49.7591 40.6669 49.4437 40.7884 49.073 40.7884ZM54.0412 55.6818C53.7259 55.6818 53.4339 55.6563 53.1655 55.6051C52.9013 55.5582 52.6903 55.5028 52.5327 55.4389L53.0696 53.6364C53.4063 53.7344 53.7067 53.7813 53.9709 53.777C54.2351 53.7727 54.4673 53.6896 54.6676 53.5277C54.8722 53.37 55.0447 53.1058 55.1854 52.7351L55.3835 52.2045L51.8232 42.1818H54.2777L56.5405 49.5966H56.6428L58.9119 42.1818H61.3729L57.4418 53.1889C57.2585 53.7088 57.0156 54.1541 56.7131 54.5249C56.4105 54.8999 56.0398 55.1854 55.6009 55.3814C55.1662 55.5817 54.6463 55.6818 54.0412 55.6818ZM65.5181 52.1982C64.896 52.1982 64.3356 52.0874 63.837 51.8658C63.3427 51.6399 62.9506 51.3075 62.6609 50.8686C62.3754 50.4297 62.2326 49.8885 62.2326 49.245C62.2326 48.6911 62.3349 48.233 62.5394 47.8707C62.744 47.5085 63.0231 47.2188 63.3768 47.0014C63.7305 46.7841 64.1289 46.62 64.5721 46.5092C65.0195 46.3942 65.4819 46.3111 65.9592 46.2599C66.5344 46.2003 67.0011 46.147 67.359 46.1001C67.717 46.049 67.9769 45.9723 68.1388 45.87C68.305 45.7635 68.3881 45.5994 68.3881 45.3778V45.3395C68.3881 44.858 68.2454 44.4851 67.9599 44.2209C67.6744 43.9567 67.2631 43.8246 66.7262 43.8246C66.1594 43.8246 65.7099 43.9482 65.3775 44.1953C65.0494 44.4425 64.8278 44.7344 64.7127 45.071L62.5522 44.7642C62.7227 44.1676 63.0039 43.669 63.396 43.2685C63.788 42.8636 64.2674 42.5611 64.8342 42.3608C65.4009 42.1562 66.0273 42.054 66.7134 42.054C67.1864 42.054 67.6573 42.1094 68.1261 42.2202C68.5948 42.331 69.0231 42.5142 69.4109 42.7699C69.7987 43.0213 70.1097 43.3643 70.3441 43.799C70.5827 44.2337 70.7021 44.777 70.7021 45.429V52H68.4776V50.6513H68.4009C68.2603 50.924 68.0621 51.1797 67.8065 51.4183C67.555 51.6527 67.2376 51.8423 66.854 51.9872C66.4748 52.1278 66.0295 52.1982 65.5181 52.1982ZM66.119 50.4979C66.5835 50.4979 66.9862 50.4062 67.3271 50.223C67.668 50.0355 67.93 49.7884 68.1133 49.4815C68.3008 49.1747 68.3945 48.8402 68.3945 48.478V47.321C68.3221 47.3807 68.1985 47.4361 68.0238 47.4872C67.8533 47.5384 67.6616 47.5831 67.4485 47.6214C67.2354 47.6598 67.0245 47.6939 66.8157 47.7237C66.6069 47.7536 66.4258 47.7791 66.2724 47.8004C65.9272 47.8473 65.6183 47.924 65.3455 48.0305C65.0728 48.1371 64.8576 48.2862 64.6999 48.478C64.5423 48.6655 64.4634 48.9084 64.4634 49.2067C64.4634 49.6328 64.619 49.9545 64.93 50.1719C65.2411 50.3892 65.6374 50.4979 66.119 50.4979ZM75.3427 46.2472V52H73.0288V42.1818H75.2404V43.8501H75.3555C75.5813 43.3004 75.9414 42.8636 76.4357 42.5398C76.9343 42.2159 77.5501 42.054 78.283 42.054C78.9606 42.054 79.5508 42.1989 80.0536 42.4886C80.5607 42.7784 80.9528 43.1982 81.2298 43.7479C81.511 44.2976 81.6495 44.9645 81.6452 45.7486V52H79.3313V46.1065C79.3313 45.4503 79.1609 44.9368 78.82 44.5661C78.4833 44.1953 78.0167 44.0099 77.4201 44.0099C77.0153 44.0099 76.6552 44.0994 76.3398 44.2784C76.0288 44.4531 75.7837 44.7067 75.6048 45.0391C75.43 45.3714 75.3427 45.7741 75.3427 46.2472ZM86.1069 48.919L86.1005 46.1257H86.4712L89.9996 42.1818H92.7035L88.3633 47.0142H87.8839L86.1069 48.919ZM83.9975 52V38.9091H86.3114V52H83.9975ZM90.1594 52L86.9634 47.532L88.5231 45.902L92.9272 52H90.1594ZM97.0708 52.1982C96.4487 52.1982 95.8883 52.0874 95.3897 51.8658C94.8954 51.6399 94.5034 51.3075 94.2136 50.8686C93.9281 50.4297 93.7853 49.8885 93.7853 49.245C93.7853 48.6911 93.8876 48.233 94.0922 47.8707C94.2967 47.5085 94.5758 47.2188 94.9295 47.0014C95.2832 46.7841 95.6816 46.62 96.1248 46.5092C96.5723 46.3942 97.0346 46.3111 97.5119 46.2599C98.0872 46.2003 98.5538 46.147 98.9118 46.1001C99.2697 46.049 99.5297 45.9723 99.6916 45.87C99.8578 45.7635 99.9409 45.5994 99.9409 45.3778V45.3395C99.9409 44.858 99.7981 44.4851 99.5126 44.2209C99.2271 43.9567 98.8159 43.8246 98.2789 43.8246C97.7122 43.8246 97.2626 43.9482 96.9302 44.1953C96.6021 44.4425 96.3805 44.7344 96.2654 45.071L94.1049 44.7642C94.2754 44.1676 94.5566 43.669 94.9487 43.2685C95.3407 42.8636 95.8201 42.5611 96.3869 42.3608C96.9537 42.1562 97.5801 42.054 98.2662 42.054C98.7392 42.054 99.2101 42.1094 99.6788 42.2202C100.148 42.331 100.576 42.5142 100.964 42.7699C101.351 43.0213 101.662 43.3643 101.897 43.799C102.135 44.2337 102.255 44.777 102.255 45.429V52H100.03V50.6513H99.9537C99.813 50.924 99.6149 51.1797 99.3592 51.4183C99.1078 51.6527 98.7903 51.8423 98.4068 51.9872C98.0275 52.1278 97.5822 52.1982 97.0708 52.1982ZM97.6717 50.4979C98.1362 50.4979 98.5389 50.4062 98.8798 50.223C99.2207 50.0355 99.4828 49.7884 99.666 49.4815C99.8535 49.1747 99.9473 48.8402 99.9473 48.478V47.321C99.8748 47.3807 99.7512 47.4361 99.5765 47.4872C99.4061 47.5384 99.2143 47.5831 99.0012 47.6214C98.7882 47.6598 98.5772 47.6939 98.3684 47.7237C98.1596 47.7536 97.9785 47.7791 97.8251 47.8004C97.4799 47.8473 97.171 47.924 96.8983 48.0305C96.6255 48.1371 96.4103 48.2862 96.2527 48.478C96.095 48.6655 96.0162 48.9084 96.0162 49.2067C96.0162 49.6328 96.1717 49.9545 96.4828 50.1719C96.7939 50.3892 97.1902 50.4979 97.6717 50.4979ZM109.149 52V38.9091H111.52V50.0121H117.286V52H109.149ZM119.242 52V42.1818H121.556V52H119.242ZM120.405 40.7884C120.039 40.7884 119.723 40.6669 119.459 40.424C119.195 40.1768 119.063 39.8807 119.063 39.5355C119.063 39.1861 119.195 38.8899 119.459 38.647C119.723 38.3999 120.039 38.2763 120.405 38.2763C120.776 38.2763 121.091 38.3999 121.351 38.647C121.615 38.8899 121.747 39.1861 121.747 39.5355C121.747 39.8807 121.615 40.1768 121.351 40.424C121.091 40.6669 120.776 40.7884 120.405 40.7884ZM126.249 46.2472V52H123.935V42.1818H126.147V43.8501H126.262C126.488 43.3004 126.848 42.8636 127.342 42.5398C127.841 42.2159 128.456 42.054 129.189 42.054C129.867 42.054 130.457 42.1989 130.96 42.4886C131.467 42.7784 131.859 43.1982 132.136 43.7479C132.417 44.2976 132.556 44.9645 132.551 45.7486V52H130.238V46.1065C130.238 45.4503 130.067 44.9368 129.726 44.5661C129.39 44.1953 128.923 44.0099 128.326 44.0099C127.922 44.0099 127.561 44.0994 127.246 44.2784C126.935 44.4531 126.69 44.7067 126.511 45.0391C126.336 45.3714 126.249 45.7741 126.249 46.2472ZM139.174 55.8864C138.343 55.8864 137.629 55.7734 137.032 55.5476C136.436 55.326 135.956 55.0277 135.594 54.6527C135.232 54.2777 134.98 53.8622 134.84 53.4062L136.924 52.9013C137.017 53.093 137.154 53.2827 137.333 53.4702C137.512 53.6619 137.752 53.8196 138.055 53.9432C138.362 54.071 138.748 54.1349 139.212 54.1349C139.868 54.1349 140.412 53.9751 140.842 53.6555C141.272 53.3402 141.488 52.8203 141.488 52.0959V50.2358H141.373C141.253 50.4744 141.078 50.7195 140.848 50.9709C140.623 51.2223 140.322 51.4332 139.947 51.6037C139.576 51.7741 139.11 51.8594 138.547 51.8594C137.793 51.8594 137.109 51.6825 136.495 51.3288C135.886 50.9709 135.4 50.4382 135.038 49.7308C134.68 49.0192 134.501 48.1286 134.501 47.0589C134.501 45.9808 134.68 45.071 135.038 44.3295C135.4 43.5838 135.888 43.0192 136.502 42.6357C137.115 42.2479 137.799 42.054 138.554 42.054C139.129 42.054 139.602 42.152 139.973 42.348C140.348 42.5398 140.646 42.772 140.868 43.0447C141.089 43.3132 141.257 43.5668 141.373 43.8054H141.5V42.1818H143.782V52.1598C143.782 52.9993 143.582 53.6939 143.181 54.2436C142.781 54.7933 142.233 55.2045 141.539 55.4773C140.844 55.75 140.056 55.8864 139.174 55.8864ZM139.193 50.044C139.683 50.044 140.1 49.9247 140.446 49.6861C140.791 49.4474 141.053 49.1044 141.232 48.657C141.411 48.2095 141.5 47.6726 141.5 47.0462C141.5 46.4283 141.411 45.8871 141.232 45.4226C141.057 44.9581 140.797 44.598 140.452 44.3423C140.111 44.0824 139.691 43.9524 139.193 43.9524C138.677 43.9524 138.247 44.0866 137.902 44.3551C137.556 44.6236 137.297 44.9922 137.122 45.4609C136.947 45.9254 136.86 46.4538 136.86 47.0462C136.86 47.647 136.947 48.1733 137.122 48.625C137.301 49.0724 137.563 49.4219 137.908 49.6733C138.257 49.9205 138.686 50.044 139.193 50.044ZM148.979 52.1982C148.357 52.1982 147.797 52.0874 147.298 51.8658C146.804 51.6399 146.412 51.3075 146.122 50.8686C145.836 50.4297 145.694 49.8885 145.694 49.245C145.694 48.6911 145.796 48.233 146 47.8707C146.205 47.5085 146.484 47.2188 146.838 47.0014C147.191 46.7841 147.59 46.62 148.033 46.5092C148.48 46.3942 148.943 46.3111 149.42 46.2599C149.995 46.2003 150.462 46.147 150.82 46.1001C151.178 46.049 151.438 45.9723 151.6 45.87C151.766 45.7635 151.849 45.5994 151.849 45.3778V45.3395C151.849 44.858 151.706 44.4851 151.421 44.2209C151.135 43.9567 150.724 43.8246 150.187 43.8246C149.62 43.8246 149.171 43.9482 148.838 44.1953C148.51 44.4425 148.289 44.7344 148.174 45.071L146.013 44.7642C146.184 44.1676 146.465 43.669 146.857 43.2685C147.249 42.8636 147.728 42.5611 148.295 42.3608C148.862 42.1562 149.488 42.054 150.174 42.054C150.647 42.054 151.118 42.1094 151.587 42.2202C152.056 42.331 152.484 42.5142 152.872 42.7699C153.26 43.0213 153.571 43.3643 153.805 43.799C154.044 44.2337 154.163 44.777 154.163 45.429V52H151.939V50.6513H151.862C151.721 50.924 151.523 51.1797 151.267 51.4183C151.016 51.6527 150.699 51.8423 150.315 51.9872C149.936 52.1278 149.49 52.1982 148.979 52.1982ZM149.58 50.4979C150.044 50.4979 150.447 50.4062 150.788 50.223C151.129 50.0355 151.391 49.7884 151.574 49.4815C151.762 49.1747 151.855 48.8402 151.855 48.478V47.321C151.783 47.3807 151.659 47.4361 151.485 47.4872C151.314 47.5384 151.123 47.5831 150.909 47.6214C150.696 47.6598 150.485 47.6939 150.277 47.7237C150.068 47.7536 149.887 47.7791 149.733 47.8004C149.388 47.8473 149.079 47.924 148.806 48.0305C148.534 48.1371 148.319 48.2862 148.161 48.478C148.003 48.6655 147.924 48.9084 147.924 49.2067C147.924 49.6328 148.08 49.9545 148.391 50.1719C148.702 50.3892 149.098 50.4979 149.58 50.4979ZM158.516 52L155.742 42.1818H158.1L159.826 49.0852H159.916L161.68 42.1818H164.013L165.777 49.0469H165.873L167.574 42.1818H169.939L167.158 52H164.748L162.907 45.3651H162.773L160.932 52H158.516ZM174.379 52.1982C173.757 52.1982 173.197 52.0874 172.698 51.8658C172.204 51.6399 171.812 51.3075 171.522 50.8686C171.237 50.4297 171.094 49.8885 171.094 49.245C171.094 48.6911 171.196 48.233 171.401 47.8707C171.605 47.5085 171.884 47.2188 172.238 47.0014C172.592 46.7841 172.99 46.62 173.433 46.5092C173.881 46.3942 174.343 46.3111 174.82 46.2599C175.396 46.2003 175.862 46.147 176.22 46.1001C176.578 46.049 176.838 45.9723 177 45.87C177.166 45.7635 177.249 45.5994 177.249 45.3778V45.3395C177.249 44.858 177.107 44.4851 176.821 44.2209C176.536 43.9567 176.124 43.8246 175.588 43.8246C175.021 43.8246 174.571 43.9482 174.239 44.1953C173.911 44.4425 173.689 44.7344 173.574 45.071L171.414 44.7642C171.584 44.1676 171.865 43.669 172.257 43.2685C172.649 42.8636 173.129 42.5611 173.695 42.3608C174.262 42.1562 174.889 42.054 175.575 42.054C176.048 42.054 176.519 42.1094 176.987 42.2202C177.456 42.331 177.884 42.5142 178.272 42.7699C178.66 43.0213 178.971 43.3643 179.205 43.799C179.444 44.2337 179.563 44.777 179.563 45.429V52H177.339V50.6513H177.262C177.122 50.924 176.923 51.1797 176.668 51.4183C176.416 51.6527 176.099 51.8423 175.715 51.9872C175.336 52.1278 174.891 52.1982 174.379 52.1982ZM174.98 50.4979C175.445 50.4979 175.847 50.4062 176.188 50.223C176.529 50.0355 176.791 49.7884 176.975 49.4815C177.162 49.1747 177.256 48.8402 177.256 48.478V47.321C177.183 47.3807 177.06 47.4361 176.885 47.4872C176.715 47.5384 176.523 47.5831 176.31 47.6214C176.097 47.6598 175.886 47.6939 175.677 47.7237C175.468 47.7536 175.287 47.7791 175.134 47.8004C174.789 47.8473 174.48 47.924 174.207 48.0305C173.934 48.1371 173.719 48.2862 173.561 48.478C173.404 48.6655 173.325 48.9084 173.325 49.2067C173.325 49.6328 173.48 49.9545 173.791 50.1719C174.102 50.3892 174.499 50.4979 174.98 50.4979ZM184.204 38.9091V52H181.89V38.9091H184.204ZM190.93 52.1918C189.946 52.1918 189.096 51.9872 188.38 51.5781C187.668 51.1648 187.12 50.581 186.737 49.8267C186.353 49.0682 186.162 48.1754 186.162 47.1484C186.162 46.1385 186.353 45.2521 186.737 44.4893C187.125 43.7223 187.666 43.1257 188.36 42.6996C189.055 42.2692 189.871 42.054 190.809 42.054C191.414 42.054 191.985 42.152 192.522 42.348C193.063 42.5398 193.54 42.8381 193.953 43.2429C194.371 43.6477 194.699 44.1634 194.938 44.7898C195.176 45.4119 195.296 46.1534 195.296 47.0142V47.7237H187.248V46.1641H193.078C193.074 45.7209 192.978 45.3267 192.79 44.9815C192.603 44.6321 192.341 44.3572 192.004 44.157C191.672 43.9567 191.284 43.8565 190.841 43.8565C190.368 43.8565 189.952 43.9716 189.594 44.2017C189.236 44.4276 188.957 44.7259 188.757 45.0966C188.561 45.4631 188.461 45.8658 188.456 46.3047V47.6662C188.456 48.2372 188.561 48.7273 188.77 49.1364C188.978 49.5412 189.27 49.8523 189.645 50.0696C190.02 50.2827 190.459 50.3892 190.962 50.3892C191.299 50.3892 191.603 50.3423 191.876 50.2486C192.149 50.1506 192.385 50.0078 192.586 49.8203C192.786 49.6328 192.937 49.4006 193.039 49.1236L195.2 49.3665C195.064 49.9375 194.804 50.4361 194.42 50.8622C194.041 51.2841 193.555 51.6122 192.963 51.8466C192.37 52.0767 191.693 52.1918 190.93 52.1918Z" fill="#5C5C5C"/>
<path d="M40.6307 87.4545C40.6307 88.8352 40.3814 90.0284 39.8828 91.0341C39.3842 92.0398 38.7003 92.8153 37.831 93.3608C36.9616 93.9062 35.9688 94.179 34.8523 94.179C33.7358 94.179 32.7429 93.9062 31.8736 93.3608C31.0043 92.8153 30.3203 92.0398 29.8217 91.0341C29.3232 90.0284 29.0739 88.8352 29.0739 87.4545C29.0739 86.0739 29.3232 84.8807 29.8217 83.875C30.3203 82.8693 31.0043 82.0938 31.8736 81.5483C32.7429 81.0028 33.7358 80.7301 34.8523 80.7301C35.9688 80.7301 36.9616 81.0028 37.831 81.5483C38.7003 82.0938 39.3842 82.8693 39.8828 83.875C40.3814 84.8807 40.6307 86.0739 40.6307 87.4545ZM39.0966 87.4545C39.0966 86.321 38.907 85.3643 38.5277 84.5845C38.1527 83.8047 37.6435 83.2145 37 82.8139C36.3608 82.4134 35.6449 82.2131 34.8523 82.2131C34.0597 82.2131 33.3416 82.4134 32.6982 82.8139C32.0589 83.2145 31.5497 83.8047 31.1705 84.5845C30.7955 85.3643 30.608 86.321 30.608 87.4545C30.608 88.5881 30.7955 89.5447 31.1705 90.3246C31.5497 91.1044 32.0589 91.6946 32.6982 92.0952C33.3416 92.4957 34.0597 92.696 34.8523 92.696C35.6449 92.696 36.3608 92.4957 37 92.0952C37.6435 91.6946 38.1527 91.1044 38.5277 90.3246C38.907 89.5447 39.0966 88.5881 39.0966 87.4545ZM44.6001 88.0938V94H43.0916V84.1818H44.549V85.7159H44.6768C44.907 85.2173 45.2564 84.8168 45.7251 84.5142C46.1939 84.2074 46.799 84.054 47.5405 84.054C48.2053 84.054 48.7869 84.1903 49.2855 84.4631C49.7841 84.7315 50.1719 85.1406 50.4489 85.6903C50.7259 86.2358 50.8643 86.9261 50.8643 87.7614V94H49.3558V87.8636C49.3558 87.0923 49.1555 86.4915 48.755 86.0611C48.3544 85.6264 47.8047 85.4091 47.1058 85.4091C46.6243 85.4091 46.1939 85.5135 45.8146 85.7223C45.4396 85.9311 45.1435 86.2358 44.9261 86.6364C44.7088 87.0369 44.6001 87.5227 44.6001 88.0938ZM57.7374 94.2045C56.7914 94.2045 55.9753 93.9957 55.2892 93.5781C54.6074 93.1562 54.0811 92.5682 53.7104 91.8139C53.3439 91.0554 53.1607 90.1733 53.1607 89.1676C53.1607 88.1619 53.3439 87.2756 53.7104 86.5085C54.0811 85.7372 54.5968 85.1364 55.2573 84.706C55.9221 84.2713 56.6976 84.054 57.584 84.054C58.0953 84.054 58.6003 84.1392 59.0989 84.3097C59.5975 84.4801 60.0513 84.7571 60.4604 85.1406C60.8695 85.5199 61.1955 86.0227 61.4384 86.6491C61.6813 87.2756 61.8027 88.0469 61.8027 88.9631V89.6023H54.2346V88.2983H60.2686C60.2686 87.7443 60.1578 87.25 59.9363 86.8153C59.7189 86.3807 59.4078 86.0376 59.003 85.7862C58.6025 85.5348 58.1294 85.4091 57.584 85.4091C56.9831 85.4091 56.4632 85.5582 56.0243 85.8565C55.5897 86.1506 55.2551 86.5341 55.0208 87.0071C54.7864 87.4801 54.6692 87.9872 54.6692 88.5284V89.3977C54.6692 90.1392 54.7971 90.7678 55.0527 91.2834C55.3127 91.7947 55.6728 92.1847 56.133 92.4531C56.5932 92.7173 57.128 92.8494 57.7374 92.8494C58.1337 92.8494 58.4917 92.794 58.8113 92.6832C59.1351 92.5682 59.4142 92.3977 59.6486 92.1719C59.883 91.9418 60.0641 91.6562 60.1919 91.3153L61.6493 91.7244C61.4959 92.2188 61.2381 92.6534 60.8759 93.0284C60.5137 93.3991 60.0662 93.6889 59.5336 93.8977C59.0009 94.1023 58.4022 94.2045 57.7374 94.2045ZM73.1486 94.2045C72.2623 94.2045 71.4846 93.9936 70.8155 93.5717C70.1507 93.1499 69.6309 92.5597 69.2559 91.8011C68.8851 91.0426 68.6998 90.1562 68.6998 89.142C68.6998 88.1193 68.8851 87.2266 69.2559 86.4638C69.6309 85.701 70.1507 85.1087 70.8155 84.6868C71.4846 84.2649 72.2623 84.054 73.1486 84.054C74.035 84.054 74.8105 84.2649 75.4753 84.6868C76.1444 85.1087 76.6642 85.701 77.035 86.4638C77.41 87.2266 77.5975 88.1193 77.5975 89.142C77.5975 90.1562 77.41 91.0426 77.035 91.8011C76.6642 92.5597 76.1444 93.1499 75.4753 93.5717C74.8105 93.9936 74.035 94.2045 73.1486 94.2045ZM73.1486 92.8494C73.8219 92.8494 74.3759 92.6768 74.8105 92.3317C75.2452 91.9865 75.5669 91.5327 75.7757 90.9702C75.9846 90.4077 76.089 89.7983 76.089 89.142C76.089 88.4858 75.9846 87.8743 75.7757 87.3075C75.5669 86.7408 75.2452 86.2827 74.8105 85.9332C74.3759 85.5838 73.8219 85.4091 73.1486 85.4091C72.4753 85.4091 71.9213 85.5838 71.4867 85.9332C71.052 86.2827 70.7303 86.7408 70.5215 87.3075C70.3127 87.8743 70.2083 88.4858 70.2083 89.142C70.2083 89.7983 70.3127 90.4077 70.5215 90.9702C70.7303 91.5327 71.052 91.9865 71.4867 92.3317C71.9213 92.6768 72.4753 92.8494 73.1486 92.8494ZM84.2724 84.1818V85.4602H78.9798V84.1818H84.2724ZM80.565 94V82.8267C80.565 82.2642 80.6971 81.7955 80.9613 81.4205C81.2255 81.0455 81.5685 80.7642 81.9904 80.5767C82.4123 80.3892 82.8576 80.2955 83.3263 80.2955C83.6971 80.2955 83.9996 80.3253 84.234 80.3849C84.4684 80.4446 84.6431 80.5 84.7582 80.5511L84.3235 81.8551C84.2468 81.8295 84.1403 81.7976 84.0039 81.7592C83.8718 81.7209 83.6971 81.7017 83.4798 81.7017C82.9812 81.7017 82.6211 81.8274 82.3995 82.0788C82.1822 82.3303 82.0735 82.6989 82.0735 83.1847V94H80.565ZM95.7189 84.1818V85.4602H90.6309V84.1818H95.7189ZM92.1138 81.8295H93.6223V91.1875C93.6223 91.6136 93.6841 91.9332 93.8077 92.1463C93.9355 92.3551 94.0975 92.4957 94.2935 92.5682C94.4938 92.6364 94.7047 92.6705 94.9263 92.6705C95.0925 92.6705 95.2289 92.6619 95.3354 92.6449C95.4419 92.6236 95.5272 92.6065 95.5911 92.5938L95.8979 93.9489C95.7956 93.9872 95.6529 94.0256 95.4696 94.0639C95.2864 94.1065 95.0542 94.1278 94.7729 94.1278C94.3468 94.1278 93.9292 94.0362 93.5201 93.853C93.1152 93.6697 92.7786 93.3906 92.5101 93.0156C92.2459 92.6406 92.1138 92.1676 92.1138 91.5966V81.8295ZM99.7076 88.0938V94H98.199V80.9091H99.7076V85.7159H99.8354C100.066 85.2088 100.411 84.8061 100.871 84.5078C101.335 84.2053 101.953 84.054 102.725 84.054C103.394 84.054 103.98 84.1882 104.482 84.4567C104.985 84.7209 105.375 85.1278 105.652 85.6776C105.933 86.223 106.074 86.9176 106.074 87.7614V94H104.566V87.8636C104.566 87.0838 104.363 86.4808 103.958 86.0547C103.558 85.6243 103.002 85.4091 102.29 85.4091C101.796 85.4091 101.352 85.5135 100.96 85.7223C100.573 85.9311 100.266 86.2358 100.04 86.6364C99.8184 87.0369 99.7076 87.5227 99.7076 88.0938ZM112.95 94.2045C112.004 94.2045 111.188 93.9957 110.502 93.5781C109.82 93.1562 109.294 92.5682 108.923 91.8139C108.557 91.0554 108.374 90.1733 108.374 89.1676C108.374 88.1619 108.557 87.2756 108.923 86.5085C109.294 85.7372 109.81 85.1364 110.47 84.706C111.135 84.2713 111.911 84.054 112.797 84.054C113.308 84.054 113.813 84.1392 114.312 84.3097C114.81 84.4801 115.264 84.7571 115.673 85.1406C116.082 85.5199 116.408 86.0227 116.651 86.6491C116.894 87.2756 117.016 88.0469 117.016 88.9631V89.6023H109.447V88.2983H115.482C115.482 87.7443 115.371 87.25 115.149 86.8153C114.932 86.3807 114.621 86.0376 114.216 85.7862C113.815 85.5348 113.342 85.4091 112.797 85.4091C112.196 85.4091 111.676 85.5582 111.237 85.8565C110.803 86.1506 110.468 86.5341 110.234 87.0071C109.999 87.4801 109.882 87.9872 109.882 88.5284V89.3977C109.882 90.1392 110.01 90.7678 110.266 91.2834C110.526 91.7947 110.886 92.1847 111.346 92.4531C111.806 92.7173 112.341 92.8494 112.95 92.8494C113.347 92.8494 113.705 92.794 114.024 92.6832C114.348 92.5682 114.627 92.3977 114.862 92.1719C115.096 91.9418 115.277 91.6562 115.405 91.3153L116.862 91.7244C116.709 92.2188 116.451 92.6534 116.089 93.0284C115.727 93.3991 115.279 93.6889 114.746 93.8977C114.214 94.1023 113.615 94.2045 112.95 94.2045ZM124.577 94V80.9091H126.086V85.7415H126.214C126.325 85.571 126.478 85.3537 126.674 85.0895C126.874 84.821 127.16 84.5824 127.531 84.3736C127.906 84.1605 128.413 84.054 129.052 84.054C129.879 84.054 130.607 84.2607 131.238 84.674C131.869 85.0874 132.361 85.6733 132.714 86.4318C133.068 87.1903 133.245 88.0852 133.245 89.1165C133.245 90.1562 133.068 91.0575 132.714 91.8203C132.361 92.5788 131.871 93.1669 131.244 93.5845C130.618 93.9979 129.896 94.2045 129.077 94.2045C128.447 94.2045 127.942 94.1001 127.562 93.8913C127.183 93.6783 126.891 93.4375 126.687 93.169C126.482 92.8963 126.325 92.6705 126.214 92.4915H126.035V94H124.577ZM126.06 89.0909C126.06 89.8324 126.169 90.4865 126.386 91.0533C126.604 91.6158 126.921 92.0568 127.339 92.3764C127.756 92.6918 128.268 92.8494 128.873 92.8494C129.504 92.8494 130.03 92.6832 130.452 92.3509C130.878 92.0142 131.197 91.5625 131.411 90.9957C131.628 90.4247 131.737 89.7898 131.737 89.0909C131.737 88.4006 131.63 87.7784 131.417 87.2244C131.208 86.6662 130.891 86.2251 130.464 85.9013C130.043 85.5732 129.512 85.4091 128.873 85.4091C128.259 85.4091 127.744 85.5646 127.326 85.8757C126.908 86.1825 126.593 86.6129 126.38 87.1669C126.167 87.7166 126.06 88.358 126.06 89.0909ZM139.669 94.2045C138.723 94.2045 137.907 93.9957 137.221 93.5781C136.539 93.1562 136.013 92.5682 135.642 91.8139C135.276 91.0554 135.092 90.1733 135.092 89.1676C135.092 88.1619 135.276 87.2756 135.642 86.5085C136.013 85.7372 136.528 85.1364 137.189 84.706C137.854 84.2713 138.629 84.054 139.516 84.054C140.027 84.054 140.532 84.1392 141.031 84.3097C141.529 84.4801 141.983 84.7571 142.392 85.1406C142.801 85.5199 143.127 86.0227 143.37 86.6491C143.613 87.2756 143.734 88.0469 143.734 88.9631V89.6023H136.166V88.2983H142.2C142.2 87.7443 142.089 87.25 141.868 86.8153C141.651 86.3807 141.339 86.0376 140.935 85.7862C140.534 85.5348 140.061 85.4091 139.516 85.4091C138.915 85.4091 138.395 85.5582 137.956 85.8565C137.521 86.1506 137.187 86.5341 136.952 87.0071C136.718 87.4801 136.601 87.9872 136.601 88.5284V89.3977C136.601 90.1392 136.729 90.7678 136.984 91.2834C137.244 91.7947 137.604 92.1847 138.065 92.4531C138.525 92.7173 139.06 92.8494 139.669 92.8494C140.065 92.8494 140.423 92.794 140.743 92.6832C141.067 92.5682 141.346 92.3977 141.58 92.1719C141.815 91.9418 141.996 91.6562 142.124 91.3153L143.581 91.7244C143.428 92.2188 143.17 92.6534 142.808 93.0284C142.445 93.3991 141.998 93.6889 141.465 93.8977C140.933 94.1023 140.334 94.2045 139.669 94.2045ZM152.984 86.3807L151.629 86.7642C151.543 86.5384 151.418 86.3189 151.251 86.1058C151.089 85.8885 150.868 85.7095 150.587 85.5689C150.305 85.4283 149.945 85.358 149.506 85.358C148.906 85.358 148.405 85.4964 148.004 85.7734C147.608 86.0462 147.41 86.3935 147.41 86.8153C147.41 87.1903 147.546 87.4865 147.819 87.7038C148.092 87.9212 148.518 88.1023 149.097 88.2472L150.555 88.6051C151.433 88.8182 152.087 89.1442 152.517 89.5831C152.947 90.0178 153.163 90.5781 153.163 91.2642C153.163 91.8267 153.001 92.3295 152.677 92.7727C152.357 93.2159 151.91 93.5653 151.335 93.821C150.759 94.0767 150.09 94.2045 149.327 94.2045C148.326 94.2045 147.497 93.9872 146.841 93.5526C146.185 93.1179 145.769 92.483 145.594 91.6477L147.026 91.2898C147.163 91.8182 147.42 92.2145 147.8 92.4787C148.183 92.7429 148.684 92.875 149.302 92.875C150.005 92.875 150.563 92.7259 150.977 92.4276C151.394 92.125 151.603 91.7628 151.603 91.3409C151.603 91 151.484 90.7145 151.245 90.4844C151.006 90.25 150.64 90.0753 150.146 89.9602L148.509 89.5767C147.61 89.3636 146.95 89.0334 146.528 88.5859C146.11 88.1342 145.901 87.5696 145.901 86.892C145.901 86.3381 146.057 85.848 146.368 85.4219C146.683 84.9957 147.112 84.6612 147.653 84.4183C148.198 84.1754 148.816 84.054 149.506 84.054C150.478 84.054 151.241 84.267 151.795 84.6932C152.353 85.1193 152.749 85.6818 152.984 86.3807ZM159.703 84.1818V85.4602H154.615V84.1818H159.703ZM156.098 81.8295H157.607V91.1875C157.607 91.6136 157.669 91.9332 157.792 92.1463C157.92 92.3551 158.082 92.4957 158.278 92.5682C158.478 92.6364 158.689 92.6705 158.911 92.6705C159.077 92.6705 159.213 92.6619 159.32 92.6449C159.426 92.6236 159.512 92.6065 159.575 92.5938L159.882 93.9489C159.78 93.9872 159.637 94.0256 159.454 94.0639C159.271 94.1065 159.039 94.1278 158.757 94.1278C158.331 94.1278 157.914 94.0362 157.504 93.853C157.1 93.6697 156.763 93.3906 156.494 93.0156C156.23 92.6406 156.098 92.1676 156.098 91.5966V81.8295ZM170.998 97.8864C170.269 97.8864 169.643 97.7926 169.119 97.6051C168.595 97.4219 168.158 97.179 167.808 96.8764C167.463 96.5781 167.188 96.2585 166.984 95.9176L168.186 95.0739C168.322 95.2528 168.494 95.4574 168.703 95.6875C168.912 95.9219 169.198 96.1243 169.56 96.2947C169.926 96.4695 170.406 96.5568 170.998 96.5568C171.791 96.5568 172.445 96.3651 172.96 95.9815C173.476 95.598 173.734 94.9972 173.734 94.179V92.1847H173.606C173.495 92.3636 173.338 92.5852 173.133 92.8494C172.933 93.1094 172.643 93.3416 172.264 93.5462C171.889 93.7464 171.382 93.8466 170.742 93.8466C169.95 93.8466 169.238 93.6591 168.607 93.2841C167.981 92.9091 167.485 92.3636 167.118 91.6477C166.756 90.9318 166.575 90.0625 166.575 89.0398C166.575 88.0341 166.752 87.1584 167.105 86.4126C167.459 85.6626 167.951 85.0831 168.582 84.674C169.213 84.2607 169.941 84.054 170.768 84.054C171.407 84.054 171.914 84.1605 172.289 84.3736C172.669 84.5824 172.958 84.821 173.159 85.0895C173.363 85.3537 173.521 85.571 173.632 85.7415H173.785V84.1818H175.242V94.2812C175.242 95.125 175.051 95.8111 174.667 96.3395C174.288 96.8722 173.776 97.2621 173.133 97.5092C172.494 97.7607 171.782 97.8864 170.998 97.8864ZM170.947 92.4915C171.552 92.4915 172.063 92.353 172.481 92.076C172.899 91.799 173.216 91.4006 173.433 90.8807C173.651 90.3608 173.759 89.7386 173.759 89.0142C173.759 88.3068 173.653 87.6825 173.44 87.1413C173.227 86.6001 172.911 86.1761 172.494 85.8693C172.076 85.5625 171.561 85.4091 170.947 85.4091C170.308 85.4091 169.775 85.571 169.349 85.8949C168.927 86.2187 168.61 86.6534 168.396 87.1989C168.188 87.7443 168.083 88.3494 168.083 89.0142C168.083 89.696 168.19 90.299 168.403 90.8232C168.62 91.343 168.94 91.7521 169.362 92.0504C169.788 92.3445 170.316 92.4915 170.947 92.4915ZM178.975 97.6818C178.72 97.6818 178.492 97.6605 178.291 97.6179C178.091 97.5795 177.953 97.5412 177.876 97.5028L178.259 96.1733C178.626 96.267 178.95 96.3011 179.231 96.2756C179.512 96.25 179.762 96.1243 179.979 95.8984C180.2 95.6768 180.403 95.3168 180.586 94.8182L180.867 94.0511L177.237 84.1818H178.873L181.583 92.0057H181.686L184.396 84.1818H186.032L181.865 95.4318C181.677 95.9389 181.445 96.3587 181.168 96.6911C180.891 97.0277 180.569 97.277 180.203 97.4389C179.84 97.6009 179.431 97.6818 178.975 97.6818ZM189.532 88.0938V94H188.023V84.1818H189.481V85.7159H189.608C189.839 85.2173 190.188 84.8168 190.657 84.5142C191.126 84.2074 191.731 84.054 192.472 84.054C193.137 84.054 193.719 84.1903 194.217 84.4631C194.716 84.7315 195.104 85.1406 195.381 85.6903C195.657 86.2358 195.796 86.9261 195.796 87.7614V94H194.287V87.8636C194.287 87.0923 194.087 86.4915 193.687 86.0611C193.286 85.6264 192.736 85.4091 192.037 85.4091C191.556 85.4091 191.126 85.5135 190.746 85.7223C190.371 85.9311 190.075 86.2358 189.858 86.6364C189.64 87.0369 189.532 87.5227 189.532 88.0938ZM201.442 94.2301C200.82 94.2301 200.255 94.1129 199.748 93.8786C199.241 93.6399 198.838 93.2969 198.54 92.8494C198.241 92.3977 198.092 91.8523 198.092 91.2131C198.092 90.6506 198.203 90.1946 198.425 89.8452C198.646 89.4915 198.942 89.2145 199.313 89.0142C199.684 88.8139 200.093 88.6648 200.54 88.5668C200.992 88.4645 201.446 88.3835 201.902 88.3239C202.499 88.2472 202.982 88.1896 203.353 88.1513C203.728 88.1087 204.001 88.0384 204.171 87.9403C204.346 87.8423 204.433 87.6719 204.433 87.429V87.3778C204.433 86.7472 204.261 86.2571 203.915 85.9077C203.575 85.5582 203.057 85.3835 202.362 85.3835C201.642 85.3835 201.077 85.5412 200.668 85.8565C200.259 86.1719 199.972 86.5085 199.805 86.8665L198.374 86.3551C198.629 85.7585 198.97 85.294 199.396 84.9616C199.827 84.625 200.295 84.3906 200.803 84.2585C201.314 84.1222 201.817 84.054 202.311 84.054C202.626 84.054 202.989 84.0923 203.398 84.169C203.811 84.2415 204.21 84.3928 204.593 84.6229C204.981 84.853 205.303 85.2003 205.558 85.6648C205.814 86.1293 205.942 86.7514 205.942 87.5312V94H204.433V92.6705H204.357C204.254 92.8835 204.084 93.1115 203.845 93.3544C203.607 93.5973 203.289 93.804 202.893 93.9744C202.496 94.1449 202.013 94.2301 201.442 94.2301ZM201.672 92.875C202.268 92.875 202.771 92.7578 203.18 92.5234C203.594 92.2891 203.905 91.9865 204.114 91.6158C204.327 91.245 204.433 90.8551 204.433 90.446V89.0653C204.369 89.142 204.229 89.2124 204.011 89.2763C203.798 89.3359 203.551 89.3892 203.27 89.4361C202.993 89.4787 202.722 89.517 202.458 89.5511C202.198 89.581 201.987 89.6065 201.825 89.6278C201.433 89.679 201.067 89.7621 200.726 89.8771C200.389 89.9879 200.116 90.1562 199.908 90.3821C199.703 90.6037 199.601 90.9062 199.601 91.2898C199.601 91.8139 199.795 92.2102 200.183 92.4787C200.575 92.7429 201.071 92.875 201.672 92.875ZM212.812 94.2045C211.866 94.2045 211.05 93.9957 210.363 93.5781C209.682 93.1562 209.155 92.5682 208.785 91.8139C208.418 91.0554 208.235 90.1733 208.235 89.1676C208.235 88.1619 208.418 87.2756 208.785 86.5085C209.155 85.7372 209.671 85.1364 210.331 84.706C210.996 84.2713 211.772 84.054 212.658 84.054C213.17 84.054 213.675 84.1392 214.173 84.3097C214.672 84.4801 215.126 84.7571 215.535 85.1406C215.944 85.5199 216.27 86.0227 216.513 86.6491C216.756 87.2756 216.877 88.0469 216.877 88.9631V89.6023H209.309V88.2983H215.343C215.343 87.7443 215.232 87.25 215.01 86.8153C214.793 86.3807 214.482 86.0376 214.077 85.7862C213.677 85.5348 213.204 85.4091 212.658 85.4091C212.057 85.4091 211.537 85.5582 211.099 85.8565C210.664 86.1506 210.329 86.5341 210.095 87.0071C209.861 87.4801 209.743 87.9872 209.743 88.5284V89.3977C209.743 90.1392 209.871 90.7678 210.127 91.2834C210.387 91.7947 210.747 92.1847 211.207 92.4531C211.667 92.7173 212.202 92.8494 212.812 92.8494C213.208 92.8494 213.566 92.794 213.885 92.6832C214.209 92.5682 214.488 92.3977 214.723 92.1719C214.957 91.9418 215.138 91.6562 215.266 91.3153L216.724 91.7244C216.57 92.2188 216.312 92.6534 215.95 93.0284C215.588 93.3991 215.14 93.6889 214.608 93.8977C214.075 94.1023 213.476 94.2045 212.812 94.2045ZM222.854 95.26H240.854V77.26H222.854V95.26ZM33.625 120H29.5852V106.909H33.804C35.0739 106.909 36.1605 107.171 37.0639 107.695C37.9673 108.215 38.6598 108.963 39.1413 109.939C39.6229 110.911 39.8636 112.074 39.8636 113.429C39.8636 114.793 39.6207 115.967 39.1349 116.951C38.6491 117.931 37.9418 118.685 37.0128 119.214C36.0838 119.738 34.9545 120 33.625 120ZM31.1705 118.594H33.5227C34.6051 118.594 35.5021 118.385 36.2138 117.967C36.9254 117.55 37.456 116.955 37.8054 116.184C38.1548 115.413 38.3295 114.494 38.3295 113.429C38.3295 112.372 38.157 111.462 37.8118 110.7C37.4666 109.933 36.951 109.344 36.2649 108.935C35.5788 108.522 34.7244 108.315 33.7017 108.315H31.1705V118.594ZM42.3182 120V110.182H43.7756V111.665H43.8778C44.0568 111.179 44.3807 110.785 44.8494 110.482C45.3182 110.18 45.8466 110.028 46.4347 110.028C46.5455 110.028 46.6839 110.031 46.8501 110.035C47.0163 110.039 47.142 110.045 47.2273 110.054V111.588C47.1761 111.575 47.0589 111.556 46.8757 111.531C46.6967 111.501 46.5071 111.486 46.3068 111.486C45.8295 111.486 45.4034 111.586 45.0284 111.786C44.6577 111.982 44.3636 112.255 44.1463 112.604C43.9332 112.95 43.8267 113.344 43.8267 113.787V120H42.3182ZM54.0779 120V110.182H55.5865V120H54.0779ZM54.845 108.545C54.551 108.545 54.2974 108.445 54.0843 108.245C53.8755 108.045 53.7711 107.804 53.7711 107.523C53.7711 107.241 53.8755 107.001 54.0843 106.8C54.2974 106.6 54.551 106.5 54.845 106.5C55.139 106.5 55.3904 106.6 55.5993 106.8C55.8123 107.001 55.9189 107.241 55.9189 107.523C55.9189 107.804 55.8123 108.045 55.5993 108.245C55.3904 108.445 55.139 108.545 54.845 108.545ZM65.304 112.381L63.9489 112.764C63.8636 112.538 63.7379 112.319 63.5717 112.106C63.4098 111.888 63.1882 111.71 62.907 111.569C62.6257 111.428 62.2656 111.358 61.8267 111.358C61.2259 111.358 60.7251 111.496 60.3246 111.773C59.9283 112.046 59.7301 112.393 59.7301 112.815C59.7301 113.19 59.8665 113.487 60.1392 113.704C60.4119 113.921 60.8381 114.102 61.4176 114.247L62.875 114.605C63.7528 114.818 64.407 115.144 64.8374 115.583C65.2678 116.018 65.483 116.578 65.483 117.264C65.483 117.827 65.321 118.33 64.9972 118.773C64.6776 119.216 64.2301 119.565 63.6548 119.821C63.0795 120.077 62.4105 120.205 61.6477 120.205C60.6463 120.205 59.8175 119.987 59.1612 119.553C58.505 119.118 58.0895 118.483 57.9148 117.648L59.3466 117.29C59.483 117.818 59.7408 118.214 60.12 118.479C60.5036 118.743 61.0043 118.875 61.6222 118.875C62.3253 118.875 62.8835 118.726 63.2969 118.428C63.7145 118.125 63.9233 117.763 63.9233 117.341C63.9233 117 63.804 116.714 63.5653 116.484C63.3267 116.25 62.9602 116.075 62.4659 115.96L60.8295 115.577C59.9304 115.364 59.2699 115.033 58.848 114.586C58.4304 114.134 58.2216 113.57 58.2216 112.892C58.2216 112.338 58.3771 111.848 58.6882 111.422C59.0036 110.996 59.4318 110.661 59.973 110.418C60.5185 110.175 61.1364 110.054 61.8267 110.054C62.7983 110.054 63.5611 110.267 64.1151 110.693C64.6733 111.119 65.0696 111.682 65.304 112.381ZM80.8446 110.182L77.214 120H75.6799L72.0492 110.182H73.6855L76.3958 118.006H76.498L79.2083 110.182H80.8446ZM86.6007 120.205C85.6547 120.205 84.8386 119.996 84.1525 119.578C83.4707 119.156 82.9444 118.568 82.5737 117.814C82.2072 117.055 82.024 116.173 82.024 115.168C82.024 114.162 82.2072 113.276 82.5737 112.509C82.9444 111.737 83.46 111.136 84.1206 110.706C84.7853 110.271 85.5609 110.054 86.4473 110.054C86.9586 110.054 87.4636 110.139 87.9622 110.31C88.4608 110.48 88.9146 110.757 89.3237 111.141C89.7328 111.52 90.0588 112.023 90.3017 112.649C90.5446 113.276 90.666 114.047 90.666 114.963V115.602H83.0978V114.298H89.1319C89.1319 113.744 89.0211 113.25 88.7995 112.815C88.5822 112.381 88.2711 112.038 87.8663 111.786C87.4657 111.535 86.9927 111.409 86.4473 111.409C85.8464 111.409 85.3265 111.558 84.8876 111.857C84.4529 112.151 84.1184 112.534 83.8841 113.007C83.6497 113.48 83.5325 113.987 83.5325 114.528V115.398C83.5325 116.139 83.6603 116.768 83.916 117.283C84.176 117.795 84.536 118.185 84.9963 118.453C85.4565 118.717 85.9913 118.849 86.6007 118.849C86.997 118.849 87.3549 118.794 87.6745 118.683C87.9984 118.568 88.2775 118.398 88.5119 118.172C88.7463 117.942 88.9274 117.656 89.0552 117.315L90.5126 117.724C90.3592 118.219 90.1014 118.653 89.7392 119.028C89.377 119.399 88.9295 119.689 88.3968 119.898C87.8642 120.102 87.2654 120.205 86.6007 120.205ZM92.9608 120V110.182H94.4181V111.665H94.5204C94.6994 111.179 95.0233 110.785 95.492 110.482C95.9608 110.18 96.4892 110.028 97.0772 110.028C97.188 110.028 97.3265 110.031 97.4927 110.035C97.6589 110.039 97.7846 110.045 97.8699 110.054V111.588C97.8187 111.575 97.7015 111.556 97.5183 111.531C97.3393 111.501 97.1497 111.486 96.9494 111.486C96.4721 111.486 96.046 111.586 95.671 111.786C95.3002 111.982 95.0062 112.255 94.7889 112.604C94.5758 112.95 94.4693 113.344 94.4693 113.787V120H92.9608ZM100.928 123.682C100.673 123.682 100.445 123.661 100.244 123.618C100.044 123.58 99.9057 123.541 99.829 123.503L100.213 122.173C100.579 122.267 100.903 122.301 101.184 122.276C101.465 122.25 101.715 122.124 101.932 121.898C102.154 121.677 102.356 121.317 102.539 120.818L102.82 120.051L99.1898 110.182H100.826L103.536 118.006H103.639L106.349 110.182H107.985L103.818 121.432C103.63 121.939 103.398 122.359 103.121 122.691C102.844 123.028 102.522 123.277 102.156 123.439C101.794 123.601 101.384 123.682 100.928 123.682ZM118.746 120.205C117.928 120.205 117.206 119.998 116.579 119.585C115.953 119.167 115.463 118.579 115.109 117.82C114.756 117.058 114.579 116.156 114.579 115.116C114.579 114.085 114.756 113.19 115.109 112.432C115.463 111.673 115.955 111.087 116.586 110.674C117.216 110.261 117.945 110.054 118.772 110.054C119.411 110.054 119.916 110.161 120.287 110.374C120.662 110.582 120.947 110.821 121.143 111.089C121.344 111.354 121.499 111.571 121.61 111.741H121.738V106.909H123.246V120H121.789V118.491H121.61C121.499 118.67 121.341 118.896 121.137 119.169C120.932 119.437 120.64 119.678 120.261 119.891C119.882 120.1 119.377 120.205 118.746 120.205ZM118.951 118.849C119.556 118.849 120.067 118.692 120.485 118.376C120.903 118.057 121.22 117.616 121.437 117.053C121.655 116.487 121.763 115.832 121.763 115.091C121.763 114.358 121.657 113.717 121.444 113.167C121.231 112.613 120.915 112.183 120.498 111.876C120.08 111.565 119.564 111.409 118.951 111.409C118.312 111.409 117.779 111.573 117.353 111.901C116.931 112.225 116.613 112.666 116.4 113.224C116.192 113.778 116.087 114.401 116.087 115.091C116.087 115.79 116.194 116.425 116.407 116.996C116.624 117.562 116.944 118.014 117.366 118.351C117.792 118.683 118.32 118.849 118.951 118.849ZM130.207 120.205C129.321 120.205 128.543 119.994 127.874 119.572C127.209 119.15 126.689 118.56 126.314 117.801C125.944 117.043 125.758 116.156 125.758 115.142C125.758 114.119 125.944 113.227 126.314 112.464C126.689 111.701 127.209 111.109 127.874 110.687C128.543 110.265 129.321 110.054 130.207 110.054C131.094 110.054 131.869 110.265 132.534 110.687C133.203 111.109 133.723 111.701 134.094 112.464C134.469 113.227 134.656 114.119 134.656 115.142C134.656 116.156 134.469 117.043 134.094 117.801C133.723 118.56 133.203 119.15 132.534 119.572C131.869 119.994 131.094 120.205 130.207 120.205ZM130.207 118.849C130.881 118.849 131.434 118.677 131.869 118.332C132.304 117.987 132.626 117.533 132.834 116.97C133.043 116.408 133.148 115.798 133.148 115.142C133.148 114.486 133.043 113.874 132.834 113.308C132.626 112.741 132.304 112.283 131.869 111.933C131.434 111.584 130.881 111.409 130.207 111.409C129.534 111.409 128.98 111.584 128.545 111.933C128.111 112.283 127.789 112.741 127.58 113.308C127.371 113.874 127.267 114.486 127.267 115.142C127.267 115.798 127.371 116.408 127.58 116.97C127.789 117.533 128.111 117.987 128.545 118.332C128.98 118.677 129.534 118.849 130.207 118.849ZM138.849 120L135.858 110.182H137.443L139.565 117.699H139.667L141.764 110.182H143.375L145.446 117.673H145.548L147.67 110.182H149.256L146.264 120H144.781L142.633 112.457H142.48L140.332 120H138.849ZM152.758 114.094V120H151.25V110.182H152.707V111.716H152.835C153.065 111.217 153.415 110.817 153.883 110.514C154.352 110.207 154.957 110.054 155.699 110.054C156.363 110.054 156.945 110.19 157.444 110.463C157.942 110.732 158.33 111.141 158.607 111.69C158.884 112.236 159.023 112.926 159.023 113.761V120H157.514V113.864C157.514 113.092 157.314 112.491 156.913 112.061C156.513 111.626 155.963 111.409 155.264 111.409C154.782 111.409 154.352 111.513 153.973 111.722C153.598 111.931 153.302 112.236 153.084 112.636C152.867 113.037 152.758 113.523 152.758 114.094ZM171.112 110.182V111.46H166.023V110.182H171.112ZM167.506 107.83H169.015V117.188C169.015 117.614 169.077 117.933 169.2 118.146C169.328 118.355 169.49 118.496 169.686 118.568C169.886 118.636 170.097 118.67 170.319 118.67C170.485 118.67 170.621 118.662 170.728 118.645C170.835 118.624 170.92 118.607 170.984 118.594L171.29 119.949C171.188 119.987 171.045 120.026 170.862 120.064C170.679 120.107 170.447 120.128 170.165 120.128C169.739 120.128 169.322 120.036 168.913 119.853C168.508 119.67 168.171 119.391 167.903 119.016C167.638 118.641 167.506 118.168 167.506 117.597V107.83ZM177.264 120.205C176.377 120.205 175.6 119.994 174.931 119.572C174.266 119.15 173.746 118.56 173.371 117.801C173 117.043 172.815 116.156 172.815 115.142C172.815 114.119 173 113.227 173.371 112.464C173.746 111.701 174.266 111.109 174.931 110.687C175.6 110.265 176.377 110.054 177.264 110.054C178.15 110.054 178.926 110.265 179.591 110.687C180.26 111.109 180.779 111.701 181.15 112.464C181.525 113.227 181.713 114.119 181.713 115.142C181.713 116.156 181.525 117.043 181.15 117.801C180.779 118.56 180.26 119.15 179.591 119.572C178.926 119.994 178.15 120.205 177.264 120.205ZM177.264 118.849C177.937 118.849 178.491 118.677 178.926 118.332C179.36 117.987 179.682 117.533 179.891 116.97C180.1 116.408 180.204 115.798 180.204 115.142C180.204 114.486 180.1 113.874 179.891 113.308C179.682 112.741 179.36 112.283 178.926 111.933C178.491 111.584 177.937 111.409 177.264 111.409C176.591 111.409 176.037 111.584 175.602 111.933C175.167 112.283 174.846 112.741 174.637 113.308C174.428 113.874 174.324 114.486 174.324 115.142C174.324 115.798 174.428 116.408 174.637 116.97C174.846 117.533 175.167 117.987 175.602 118.332C176.037 118.677 176.591 118.849 177.264 118.849ZM190.586 114.094V120H189.078V106.909H190.586V111.716H190.714C190.944 111.209 191.29 110.806 191.75 110.508C192.214 110.205 192.832 110.054 193.604 110.054C194.273 110.054 194.858 110.188 195.361 110.457C195.864 110.721 196.254 111.128 196.531 111.678C196.812 112.223 196.953 112.918 196.953 113.761V120H195.444V113.864C195.444 113.084 195.242 112.481 194.837 112.055C194.437 111.624 193.881 111.409 193.169 111.409C192.675 111.409 192.231 111.513 191.839 111.722C191.452 111.931 191.145 112.236 190.919 112.636C190.697 113.037 190.586 113.523 190.586 114.094ZM203.829 120.205C202.883 120.205 202.067 119.996 201.381 119.578C200.699 119.156 200.173 118.568 199.802 117.814C199.436 117.055 199.252 116.173 199.252 115.168C199.252 114.162 199.436 113.276 199.802 112.509C200.173 111.737 200.689 111.136 201.349 110.706C202.014 110.271 202.789 110.054 203.676 110.054C204.187 110.054 204.692 110.139 205.191 110.31C205.689 110.48 206.143 110.757 206.552 111.141C206.961 111.52 207.287 112.023 207.53 112.649C207.773 113.276 207.895 114.047 207.895 114.963V115.602H200.326V114.298H206.36C206.36 113.744 206.25 113.25 206.028 112.815C205.811 112.381 205.5 112.038 205.095 111.786C204.694 111.535 204.221 111.409 203.676 111.409C203.075 111.409 202.555 111.558 202.116 111.857C201.681 112.151 201.347 112.534 201.113 113.007C200.878 113.48 200.761 113.987 200.761 114.528V115.398C200.761 116.139 200.889 116.768 201.145 117.283C201.404 117.795 201.765 118.185 202.225 118.453C202.685 118.717 203.22 118.849 203.829 118.849C204.225 118.849 204.583 118.794 204.903 118.683C205.227 118.568 205.506 118.398 205.74 118.172C205.975 117.942 206.156 117.656 206.284 117.315L207.741 117.724C207.588 118.219 207.33 118.653 206.968 119.028C206.605 119.399 206.158 119.689 205.625 119.898C205.093 120.102 204.494 120.205 203.829 120.205ZM213.078 120.23C212.456 120.23 211.892 120.113 211.385 119.879C210.877 119.64 210.475 119.297 210.176 118.849C209.878 118.398 209.729 117.852 209.729 117.213C209.729 116.651 209.84 116.195 210.061 115.845C210.283 115.491 210.579 115.214 210.95 115.014C211.321 114.814 211.73 114.665 212.177 114.567C212.629 114.464 213.083 114.384 213.539 114.324C214.135 114.247 214.619 114.19 214.99 114.151C215.365 114.109 215.637 114.038 215.808 113.94C215.983 113.842 216.07 113.672 216.07 113.429V113.378C216.07 112.747 215.897 112.257 215.552 111.908C215.211 111.558 214.694 111.384 213.999 111.384C213.279 111.384 212.714 111.541 212.305 111.857C211.896 112.172 211.608 112.509 211.442 112.866L210.01 112.355C210.266 111.759 210.607 111.294 211.033 110.962C211.463 110.625 211.932 110.391 212.439 110.259C212.951 110.122 213.453 110.054 213.948 110.054C214.263 110.054 214.625 110.092 215.034 110.169C215.448 110.241 215.846 110.393 216.23 110.623C216.618 110.853 216.939 111.2 217.195 111.665C217.451 112.129 217.578 112.751 217.578 113.531V120H216.07V118.67H215.993C215.891 118.884 215.721 119.112 215.482 119.354C215.243 119.597 214.926 119.804 214.529 119.974C214.133 120.145 213.65 120.23 213.078 120.23ZM213.309 118.875C213.905 118.875 214.408 118.758 214.817 118.523C215.23 118.289 215.542 117.987 215.75 117.616C215.963 117.245 216.07 116.855 216.07 116.446V115.065C216.006 115.142 215.865 115.212 215.648 115.276C215.435 115.336 215.188 115.389 214.907 115.436C214.63 115.479 214.359 115.517 214.095 115.551C213.835 115.581 213.624 115.607 213.462 115.628C213.07 115.679 212.703 115.762 212.363 115.877C212.026 115.988 211.753 116.156 211.544 116.382C211.34 116.604 211.238 116.906 211.238 117.29C211.238 117.814 211.431 118.21 211.819 118.479C212.211 118.743 212.708 118.875 213.309 118.875ZM220.332 120V110.182H221.789V111.665H221.892C222.07 111.179 222.394 110.785 222.863 110.482C223.332 110.18 223.86 110.028 224.448 110.028C224.559 110.028 224.698 110.031 224.864 110.035C225.03 110.039 225.156 110.045 225.241 110.054V111.588C225.19 111.575 225.073 111.556 224.889 111.531C224.71 111.501 224.521 111.486 224.32 111.486C223.843 111.486 223.417 111.586 223.042 111.786C222.671 111.982 222.377 112.255 222.16 112.604C221.947 112.95 221.84 113.344 221.84 113.787V120H220.332ZM231.914 110.182V111.46H226.826V110.182H231.914ZM228.309 107.83H229.818V117.188C229.818 117.614 229.879 117.933 230.003 118.146C230.131 118.355 230.293 118.496 230.489 118.568C230.689 118.636 230.9 118.67 231.122 118.67C231.288 118.67 231.424 118.662 231.531 118.645C231.637 118.624 231.722 118.607 231.786 118.594L232.093 119.949C231.991 119.987 231.848 120.026 231.665 120.064C231.482 120.107 231.249 120.128 230.968 120.128C230.542 120.128 230.124 120.036 229.715 119.853C229.311 119.67 228.974 119.391 228.705 119.016C228.441 118.641 228.309 118.168 228.309 117.597V107.83ZM235.283 120.102C234.968 120.102 234.697 119.989 234.471 119.763C234.245 119.538 234.132 119.267 234.132 118.952C234.132 118.636 234.245 118.366 234.471 118.14C234.697 117.914 234.968 117.801 235.283 117.801C235.598 117.801 235.869 117.914 236.095 118.14C236.32 118.366 236.433 118.636 236.433 118.952C236.433 119.161 236.38 119.352 236.274 119.527C236.171 119.702 236.033 119.842 235.858 119.949C235.688 120.051 235.496 120.102 235.283 120.102ZM251.567 110.182C251.49 109.534 251.179 109.031 250.633 108.673C250.088 108.315 249.419 108.136 248.626 108.136C248.047 108.136 247.54 108.23 247.105 108.418C246.675 108.605 246.338 108.863 246.095 109.191C245.856 109.519 245.737 109.892 245.737 110.31C245.737 110.659 245.82 110.96 245.986 111.211C246.157 111.458 246.374 111.665 246.638 111.831C246.903 111.993 247.18 112.127 247.469 112.234C247.759 112.336 248.025 112.419 248.268 112.483L249.598 112.841C249.939 112.93 250.318 113.054 250.736 113.212C251.157 113.369 251.56 113.585 251.944 113.857C252.331 114.126 252.651 114.471 252.903 114.893C253.154 115.315 253.28 115.832 253.28 116.446C253.28 117.153 253.094 117.793 252.724 118.364C252.357 118.935 251.82 119.388 251.113 119.725C250.41 120.062 249.555 120.23 248.55 120.23C247.612 120.23 246.8 120.079 246.114 119.776C245.432 119.474 244.895 119.052 244.503 118.511C244.116 117.969 243.896 117.341 243.845 116.625H245.481C245.524 117.119 245.69 117.528 245.98 117.852C246.274 118.172 246.645 118.411 247.092 118.568C247.544 118.722 248.03 118.798 248.55 118.798C249.155 118.798 249.698 118.7 250.18 118.504C250.661 118.304 251.042 118.027 251.324 117.673C251.605 117.315 251.746 116.898 251.746 116.42C251.746 115.986 251.624 115.632 251.381 115.359C251.138 115.087 250.819 114.865 250.422 114.695C250.026 114.524 249.598 114.375 249.138 114.247L247.527 113.787C246.504 113.493 245.694 113.073 245.098 112.528C244.501 111.982 244.203 111.268 244.203 110.386C244.203 109.653 244.401 109.014 244.797 108.469C245.198 107.919 245.735 107.493 246.408 107.19C247.086 106.884 247.842 106.73 248.677 106.73C249.521 106.73 250.271 106.881 250.927 107.184C251.584 107.482 252.104 107.891 252.487 108.411C252.875 108.931 253.079 109.521 253.101 110.182H251.567ZM257.19 114.094V120H255.681V106.909H257.19V111.716H257.318C257.548 111.209 257.893 110.806 258.353 110.508C258.818 110.205 259.436 110.054 260.207 110.054C260.876 110.054 261.462 110.188 261.965 110.457C262.468 110.721 262.858 111.128 263.135 111.678C263.416 112.223 263.556 112.918 263.556 113.761V120H262.048V113.864C262.048 113.084 261.846 112.481 261.441 112.055C261.04 111.624 260.484 111.409 259.772 111.409C259.278 111.409 258.835 111.513 258.443 111.722C258.055 111.931 257.748 112.236 257.522 112.636C257.301 113.037 257.19 113.523 257.19 114.094ZM270.433 120.205C269.487 120.205 268.671 119.996 267.985 119.578C267.303 119.156 266.776 118.568 266.406 117.814C266.039 117.055 265.856 116.173 265.856 115.168C265.856 114.162 266.039 113.276 266.406 112.509C266.776 111.737 267.292 111.136 267.953 110.706C268.617 110.271 269.393 110.054 270.279 110.054C270.791 110.054 271.296 110.139 271.794 110.31C272.293 110.48 272.747 110.757 273.156 111.141C273.565 111.52 273.891 112.023 274.134 112.649C274.377 113.276 274.498 114.047 274.498 114.963V115.602H266.93V114.298H272.964C272.964 113.744 272.853 113.25 272.632 112.815C272.414 112.381 272.103 112.038 271.698 111.786C271.298 111.535 270.825 111.409 270.279 111.409C269.678 111.409 269.159 111.558 268.72 111.857C268.285 112.151 267.95 112.534 267.716 113.007C267.482 113.48 267.365 113.987 267.365 114.528V115.398C267.365 116.139 267.492 116.768 267.748 117.283C268.008 117.795 268.368 118.185 268.828 118.453C269.289 118.717 269.823 118.849 270.433 118.849C270.829 118.849 271.187 118.794 271.507 118.683C271.83 118.568 272.11 118.398 272.344 118.172C272.578 117.942 272.759 117.656 272.887 117.315L274.345 117.724C274.191 118.219 273.933 118.653 273.571 119.028C273.209 119.399 272.762 119.689 272.229 119.898C271.696 120.102 271.097 120.205 270.433 120.205ZM32.2699 146.23C31.6477 146.23 31.0831 146.113 30.576 145.879C30.0689 145.64 29.6662 145.297 29.3679 144.849C29.0696 144.398 28.9205 143.852 28.9205 143.213C28.9205 142.651 29.0313 142.195 29.2528 141.845C29.4744 141.491 29.7706 141.214 30.1413 141.014C30.5121 140.814 30.9212 140.665 31.3686 140.567C31.8203 140.464 32.2741 140.384 32.7301 140.324C33.3267 140.247 33.8104 140.19 34.1811 140.151C34.5561 140.109 34.8288 140.038 34.9993 139.94C35.174 139.842 35.2614 139.672 35.2614 139.429V139.378C35.2614 138.747 35.0888 138.257 34.7436 137.908C34.4027 137.558 33.8849 137.384 33.1903 137.384C32.4702 137.384 31.9055 137.541 31.4964 137.857C31.0874 138.172 30.7997 138.509 30.6335 138.866L29.2017 138.355C29.4574 137.759 29.7983 137.294 30.2244 136.962C30.6548 136.625 31.1236 136.391 31.6307 136.259C32.142 136.122 32.6449 136.054 33.1392 136.054C33.4545 136.054 33.8168 136.092 34.2259 136.169C34.6392 136.241 35.0376 136.393 35.4212 136.623C35.8089 136.853 36.1307 137.2 36.3864 137.665C36.642 138.129 36.7699 138.751 36.7699 139.531V146H35.2614V144.67H35.1847C35.0824 144.884 34.9119 145.112 34.6733 145.354C34.4347 145.597 34.1172 145.804 33.7209 145.974C33.3246 146.145 32.8409 146.23 32.2699 146.23ZM32.5 144.875C33.0966 144.875 33.5994 144.758 34.0085 144.523C34.4219 144.289 34.733 143.987 34.9418 143.616C35.1548 143.245 35.2614 142.855 35.2614 142.446V141.065C35.1974 141.142 35.0568 141.212 34.8395 141.276C34.6264 141.336 34.3793 141.389 34.098 141.436C33.821 141.479 33.5504 141.517 33.2862 141.551C33.0263 141.581 32.8153 141.607 32.6534 141.628C32.2614 141.679 31.8949 141.762 31.554 141.877C31.2173 141.988 30.9446 142.156 30.7358 142.382C30.5313 142.604 30.429 142.906 30.429 143.29C30.429 143.814 30.6229 144.21 31.0107 144.479C31.4027 144.743 31.8991 144.875 32.5 144.875ZM41.0318 132.909V146H39.5233V132.909H41.0318ZM46.0192 146L43.0277 136.182H44.6129L46.7351 143.699H46.8374L48.9339 136.182H50.5447L52.6158 143.673H52.718L54.8402 136.182H56.4254L53.4339 146H51.951L49.8033 138.457H49.6499L47.5021 146H46.0192ZM61.3089 146.23C60.6868 146.23 60.1222 146.113 59.6151 145.879C59.108 145.64 58.7053 145.297 58.407 144.849C58.1087 144.398 57.9595 143.852 57.9595 143.213C57.9595 142.651 58.0703 142.195 58.2919 141.845C58.5135 141.491 58.8097 141.214 59.1804 141.014C59.5511 140.814 59.9602 140.665 60.4077 140.567C60.8594 140.464 61.3132 140.384 61.7692 140.324C62.3658 140.247 62.8494 140.19 63.2202 140.151C63.5952 140.109 63.8679 140.038 64.0384 139.94C64.2131 139.842 64.3004 139.672 64.3004 139.429V139.378C64.3004 138.747 64.1278 138.257 63.7827 137.908C63.4418 137.558 62.924 137.384 62.2294 137.384C61.5092 137.384 60.9446 137.541 60.5355 137.857C60.1264 138.172 59.8388 138.509 59.6726 138.866L58.2408 138.355C58.4964 137.759 58.8374 137.294 59.2635 136.962C59.6939 136.625 60.1626 136.391 60.6697 136.259C61.1811 136.122 61.6839 136.054 62.1783 136.054C62.4936 136.054 62.8558 136.092 63.2649 136.169C63.6783 136.241 64.0767 136.393 64.4602 136.623C64.848 136.853 65.1697 137.2 65.4254 137.665C65.6811 138.129 65.8089 138.751 65.8089 139.531V146H64.3004V144.67H64.2237C64.1214 144.884 63.951 145.112 63.7124 145.354C63.4737 145.597 63.1563 145.804 62.7599 145.974C62.3636 146.145 61.88 146.23 61.3089 146.23ZM61.5391 144.875C62.1357 144.875 62.6385 144.758 63.0476 144.523C63.4609 144.289 63.772 143.987 63.9808 143.616C64.1939 143.245 64.3004 142.855 64.3004 142.446V141.065C64.2365 141.142 64.0959 141.212 63.8786 141.276C63.6655 141.336 63.4183 141.389 63.1371 141.436C62.8601 141.479 62.5895 141.517 62.3253 141.551C62.0653 141.581 61.8544 141.607 61.6925 141.628C61.3004 141.679 60.9339 141.762 60.593 141.877C60.2564 141.988 59.9837 142.156 59.7749 142.382C59.5703 142.604 59.468 142.906 59.468 143.29C59.468 143.814 59.6619 144.21 60.0497 144.479C60.4418 144.743 60.9382 144.875 61.5391 144.875ZM69.1824 149.682C68.9267 149.682 68.6987 149.661 68.4984 149.618C68.2981 149.58 68.1596 149.541 68.0829 149.503L68.4664 148.173C68.8329 148.267 69.1568 148.301 69.438 148.276C69.7193 148.25 69.9686 148.124 70.1859 147.898C70.4075 147.677 70.6099 147.317 70.7931 146.818L71.0744 146.051L67.4437 136.182H69.0801L71.7903 144.006H71.8926L74.6028 136.182H76.2392L72.0716 147.432C71.8841 147.939 71.6518 148.359 71.3748 148.691C71.0978 149.028 70.7761 149.277 70.4096 149.439C70.0474 149.601 69.6383 149.682 69.1824 149.682ZM85.1848 138.381L83.8297 138.764C83.7445 138.538 83.6188 138.319 83.4526 138.106C83.2907 137.888 83.0691 137.71 82.7878 137.569C82.5066 137.428 82.1465 137.358 81.7076 137.358C81.1067 137.358 80.606 137.496 80.2054 137.773C79.8091 138.046 79.611 138.393 79.611 138.815C79.611 139.19 79.7473 139.487 80.0201 139.704C80.2928 139.921 80.7189 140.102 81.2985 140.247L82.7559 140.605C83.6337 140.818 84.2878 141.144 84.7182 141.583C85.1486 142.018 85.3638 142.578 85.3638 143.264C85.3638 143.827 85.2019 144.33 84.878 144.773C84.5584 145.216 84.111 145.565 83.5357 145.821C82.9604 146.077 82.2914 146.205 81.5286 146.205C80.5272 146.205 79.6983 145.987 79.0421 145.553C78.3858 145.118 77.9703 144.483 77.7956 143.648L79.2275 143.29C79.3638 143.818 79.6216 144.214 80.0009 144.479C80.3844 144.743 80.8851 144.875 81.503 144.875C82.2061 144.875 82.7644 144.726 83.1777 144.428C83.5953 144.125 83.8042 143.763 83.8042 143.341C83.8042 143 83.6848 142.714 83.4462 142.484C83.2076 142.25 82.8411 142.075 82.3468 141.96L80.7104 141.577C79.8113 141.364 79.1507 141.033 78.7289 140.586C78.3113 140.134 78.1025 139.57 78.1025 138.892C78.1025 138.338 78.258 137.848 78.5691 137.422C78.8844 136.996 79.3127 136.661 79.8539 136.418C80.3993 136.175 81.0172 136.054 81.7076 136.054C82.6792 136.054 83.4419 136.267 83.9959 136.693C84.5542 137.119 84.9505 137.682 85.1848 138.381ZM96.6602 149.886C95.9315 149.886 95.305 149.793 94.7809 149.605C94.2567 149.422 93.82 149.179 93.4705 148.876C93.1254 148.578 92.8505 148.259 92.646 147.918L93.8477 147.074C93.984 147.253 94.1566 147.457 94.3654 147.688C94.5742 147.922 94.8597 148.124 95.2219 148.295C95.5884 148.469 96.0678 148.557 96.6602 148.557C97.4528 148.557 98.1069 148.365 98.6225 147.982C99.1381 147.598 99.396 146.997 99.396 146.179V144.185H99.2681C99.1573 144.364 98.9996 144.585 98.7951 144.849C98.5948 145.109 98.305 145.342 97.9258 145.546C97.5508 145.746 97.0437 145.847 96.4045 145.847C95.6119 145.847 94.9002 145.659 94.2695 145.284C93.6431 144.909 93.1467 144.364 92.7802 143.648C92.418 142.932 92.2369 142.062 92.2369 141.04C92.2369 140.034 92.4137 139.158 92.7674 138.413C93.1211 137.663 93.6133 137.083 94.244 136.674C94.8746 136.261 95.6033 136.054 96.43 136.054C97.0692 136.054 97.5763 136.161 97.9513 136.374C98.3306 136.582 98.6204 136.821 98.8207 137.089C99.0252 137.354 99.1829 137.571 99.2937 137.741H99.4471V136.182H100.904V146.281C100.904 147.125 100.713 147.811 100.329 148.339C99.9499 148.872 99.4386 149.262 98.7951 149.509C98.1559 149.761 97.4442 149.886 96.6602 149.886ZM96.609 144.491C97.2141 144.491 97.7255 144.353 98.1431 144.076C98.5607 143.799 98.8782 143.401 99.0955 142.881C99.3129 142.361 99.4215 141.739 99.4215 141.014C99.4215 140.307 99.315 139.683 99.1019 139.141C98.8888 138.6 98.5735 138.176 98.1559 137.869C97.7383 137.562 97.2227 137.409 96.609 137.409C95.9698 137.409 95.4371 137.571 95.011 137.895C94.5891 138.219 94.2717 138.653 94.0586 139.199C93.8498 139.744 93.7454 140.349 93.7454 141.014C93.7454 141.696 93.8519 142.299 94.065 142.823C94.2823 143.343 94.6019 143.752 95.0238 144.05C95.4499 144.344 95.9783 144.491 96.609 144.491ZM109.853 141.986V136.182H111.362V146H109.853V144.338H109.751C109.521 144.837 109.163 145.261 108.677 145.61C108.191 145.955 107.578 146.128 106.836 146.128C106.223 146.128 105.677 145.994 105.2 145.725C104.723 145.452 104.348 145.043 104.075 144.498C103.802 143.948 103.666 143.256 103.666 142.42V136.182H105.174V142.318C105.174 143.034 105.375 143.605 105.775 144.031C106.18 144.457 106.696 144.67 107.322 144.67C107.697 144.67 108.078 144.575 108.466 144.383C108.858 144.191 109.186 143.897 109.451 143.501C109.719 143.104 109.853 142.599 109.853 141.986ZM114.125 146V136.182H115.633V146H114.125ZM114.892 134.545C114.598 134.545 114.344 134.445 114.131 134.245C113.922 134.045 113.818 133.804 113.818 133.523C113.818 133.241 113.922 133.001 114.131 132.8C114.344 132.6 114.598 132.5 114.892 132.5C115.186 132.5 115.437 132.6 115.646 132.8C115.859 133.001 115.966 133.241 115.966 133.523C115.966 133.804 115.859 134.045 115.646 134.245C115.437 134.445 115.186 134.545 114.892 134.545ZM122.104 146.205C121.286 146.205 120.563 145.998 119.937 145.585C119.31 145.167 118.82 144.579 118.467 143.82C118.113 143.058 117.936 142.156 117.936 141.116C117.936 140.085 118.113 139.19 118.467 138.432C118.82 137.673 119.313 137.087 119.943 136.674C120.574 136.261 121.303 136.054 122.129 136.054C122.768 136.054 123.273 136.161 123.644 136.374C124.019 136.582 124.305 136.821 124.501 137.089C124.701 137.354 124.857 137.571 124.967 137.741H125.095V132.909H126.604V146H125.146V144.491H124.967C124.857 144.67 124.699 144.896 124.494 145.169C124.29 145.437 123.998 145.678 123.619 145.891C123.239 146.1 122.734 146.205 122.104 146.205ZM122.308 144.849C122.913 144.849 123.425 144.692 123.842 144.376C124.26 144.057 124.577 143.616 124.795 143.053C125.012 142.487 125.121 141.832 125.121 141.091C125.121 140.358 125.014 139.717 124.801 139.167C124.588 138.613 124.273 138.183 123.855 137.876C123.438 137.565 122.922 137.409 122.308 137.409C121.669 137.409 121.136 137.573 120.71 137.901C120.288 138.225 119.971 138.666 119.758 139.224C119.549 139.778 119.445 140.401 119.445 141.091C119.445 141.79 119.551 142.425 119.764 142.996C119.982 143.562 120.301 144.014 120.723 144.351C121.149 144.683 121.678 144.849 122.308 144.849ZM133.692 146.205C132.746 146.205 131.93 145.996 131.244 145.578C130.562 145.156 130.036 144.568 129.665 143.814C129.299 143.055 129.116 142.173 129.116 141.168C129.116 140.162 129.299 139.276 129.665 138.509C130.036 137.737 130.552 137.136 131.212 136.706C131.877 136.271 132.653 136.054 133.539 136.054C134.05 136.054 134.555 136.139 135.054 136.31C135.553 136.48 136.006 136.757 136.415 137.141C136.825 137.52 137.151 138.023 137.393 138.649C137.636 139.276 137.758 140.047 137.758 140.963V141.602H130.19V140.298H136.224C136.224 139.744 136.113 139.25 135.891 138.815C135.674 138.381 135.363 138.038 134.958 137.786C134.558 137.535 134.085 137.409 133.539 137.409C132.938 137.409 132.418 137.558 131.979 137.857C131.545 138.151 131.21 138.534 130.976 139.007C130.741 139.48 130.624 139.987 130.624 140.528V141.398C130.624 142.139 130.752 142.768 131.008 143.283C131.268 143.795 131.628 144.185 132.088 144.453C132.548 144.717 133.083 144.849 133.692 144.849C134.089 144.849 134.447 144.794 134.766 144.683C135.09 144.568 135.369 144.398 135.604 144.172C135.838 143.942 136.019 143.656 136.147 143.315L137.604 143.724C137.451 144.219 137.193 144.653 136.831 145.028C136.469 145.399 136.021 145.689 135.489 145.898C134.956 146.102 134.357 146.205 133.692 146.205ZM147.007 138.381L145.652 138.764C145.567 138.538 145.441 138.319 145.275 138.106C145.113 137.888 144.891 137.71 144.61 137.569C144.329 137.428 143.969 137.358 143.53 137.358C142.929 137.358 142.428 137.496 142.028 137.773C141.631 138.046 141.433 138.393 141.433 138.815C141.433 139.19 141.57 139.487 141.842 139.704C142.115 139.921 142.541 140.102 143.121 140.247L144.578 140.605C145.456 140.818 146.11 141.144 146.54 141.583C146.971 142.018 147.186 142.578 147.186 143.264C147.186 143.827 147.024 144.33 146.7 144.773C146.381 145.216 145.933 145.565 145.358 145.821C144.783 146.077 144.114 146.205 143.351 146.205C142.349 146.205 141.521 145.987 140.864 145.553C140.208 145.118 139.793 144.483 139.618 143.648L141.05 143.29C141.186 143.818 141.444 144.214 141.823 144.479C142.207 144.743 142.707 144.875 143.325 144.875C144.028 144.875 144.587 144.726 145 144.428C145.418 144.125 145.626 143.763 145.626 143.341C145.626 143 145.507 142.714 145.268 142.484C145.03 142.25 144.663 142.075 144.169 141.96L142.533 141.577C141.634 141.364 140.973 141.033 140.551 140.586C140.134 140.134 139.925 139.57 139.925 138.892C139.925 138.338 140.08 137.848 140.391 137.422C140.707 136.996 141.135 136.661 141.676 136.418C142.222 136.175 142.839 136.054 143.53 136.054C144.501 136.054 145.264 136.267 145.818 136.693C146.376 137.119 146.773 137.682 147.007 138.381ZM156.744 146L153.752 136.182H155.338L157.46 143.699H157.562L159.659 136.182H161.269L163.34 143.673H163.443L165.565 136.182H167.15L164.159 146H162.676L160.528 138.457H160.374L158.227 146H156.744ZM169.144 146V136.182H170.653V146H169.144ZM169.911 134.545C169.617 134.545 169.364 134.445 169.151 134.245C168.942 134.045 168.838 133.804 168.838 133.523C168.838 133.241 168.942 133.001 169.151 132.8C169.364 132.6 169.617 132.5 169.911 132.5C170.205 132.5 170.457 132.6 170.666 132.8C170.879 133.001 170.985 133.241 170.985 133.523C170.985 133.804 170.879 134.045 170.666 134.245C170.457 134.445 170.205 134.545 169.911 134.545ZM177.686 136.182V137.46H172.598V136.182H177.686ZM174.081 133.83H175.589V143.188C175.589 143.614 175.651 143.933 175.775 144.146C175.902 144.355 176.064 144.496 176.26 144.568C176.461 144.636 176.672 144.67 176.893 144.67C177.059 144.67 177.196 144.662 177.302 144.645C177.409 144.624 177.494 144.607 177.558 144.594L177.865 145.949C177.762 145.987 177.62 146.026 177.436 146.064C177.253 146.107 177.021 146.128 176.74 146.128C176.314 146.128 175.896 146.036 175.487 145.853C175.082 145.67 174.745 145.391 174.477 145.016C174.213 144.641 174.081 144.168 174.081 143.597V133.83ZM181.674 140.094V146H180.166V132.909H181.674V137.716H181.802C182.032 137.209 182.377 136.806 182.838 136.508C183.302 136.205 183.92 136.054 184.691 136.054C185.36 136.054 185.946 136.188 186.449 136.457C186.952 136.721 187.342 137.128 187.619 137.678C187.9 138.223 188.041 138.918 188.041 139.761V146H186.532V139.864C186.532 139.084 186.33 138.481 185.925 138.055C185.525 137.624 184.968 137.409 184.257 137.409C183.762 137.409 183.319 137.513 182.927 137.722C182.539 137.931 182.233 138.236 182.007 138.636C181.785 139.037 181.674 139.523 181.674 140.094ZM195.863 149.682V136.182H197.32V137.741H197.499C197.61 137.571 197.764 137.354 197.96 137.089C198.16 136.821 198.445 136.582 198.816 136.374C199.191 136.161 199.698 136.054 200.338 136.054C201.164 136.054 201.893 136.261 202.524 136.674C203.154 137.087 203.646 137.673 204 138.432C204.354 139.19 204.531 140.085 204.531 141.116C204.531 142.156 204.354 143.058 204 143.82C203.646 144.579 203.156 145.167 202.53 145.585C201.904 145.998 201.181 146.205 200.363 146.205C199.732 146.205 199.227 146.1 198.848 145.891C198.469 145.678 198.177 145.437 197.972 145.169C197.768 144.896 197.61 144.67 197.499 144.491H197.372V149.682H195.863ZM197.346 141.091C197.346 141.832 197.455 142.487 197.672 143.053C197.889 143.616 198.207 144.057 198.624 144.376C199.042 144.692 199.553 144.849 200.159 144.849C200.789 144.849 201.316 144.683 201.737 144.351C202.164 144.014 202.483 143.562 202.696 142.996C202.914 142.425 203.022 141.79 203.022 141.091C203.022 140.401 202.916 139.778 202.703 139.224C202.494 138.666 202.176 138.225 201.75 137.901C201.328 137.573 200.798 137.409 200.159 137.409C199.545 137.409 199.029 137.565 198.612 137.876C198.194 138.183 197.879 138.613 197.666 139.167C197.453 139.717 197.346 140.358 197.346 141.091ZM210.82 146.205C209.934 146.205 209.156 145.994 208.487 145.572C207.823 145.15 207.303 144.56 206.928 143.801C206.557 143.043 206.372 142.156 206.372 141.142C206.372 140.119 206.557 139.227 206.928 138.464C207.303 137.701 207.823 137.109 208.487 136.687C209.156 136.265 209.934 136.054 210.82 136.054C211.707 136.054 212.482 136.265 213.147 136.687C213.816 137.109 214.336 137.701 214.707 138.464C215.082 139.227 215.269 140.119 215.269 141.142C215.269 142.156 215.082 143.043 214.707 143.801C214.336 144.56 213.816 145.15 213.147 145.572C212.482 145.994 211.707 146.205 210.82 146.205ZM210.82 144.849C211.494 144.849 212.048 144.677 212.482 144.332C212.917 143.987 213.239 143.533 213.448 142.97C213.656 142.408 213.761 141.798 213.761 141.142C213.761 140.486 213.656 139.874 213.448 139.308C213.239 138.741 212.917 138.283 212.482 137.933C212.048 137.584 211.494 137.409 210.82 137.409C210.147 137.409 209.593 137.584 209.159 137.933C208.724 138.283 208.402 138.741 208.193 139.308C207.985 139.874 207.88 140.486 207.88 141.142C207.88 141.798 207.985 142.408 208.193 142.97C208.402 143.533 208.724 143.987 209.159 144.332C209.593 144.677 210.147 144.849 210.82 144.849ZM224.527 138.381L223.172 138.764C223.086 138.538 222.961 138.319 222.794 138.106C222.632 137.888 222.411 137.71 222.13 137.569C221.848 137.428 221.488 137.358 221.049 137.358C220.449 137.358 219.948 137.496 219.547 137.773C219.151 138.046 218.953 138.393 218.953 138.815C218.953 139.19 219.089 139.487 219.362 139.704C219.635 139.921 220.061 140.102 220.64 140.247L222.098 140.605C222.975 140.818 223.63 141.144 224.06 141.583C224.49 142.018 224.706 142.578 224.706 143.264C224.706 143.827 224.544 144.33 224.22 144.773C223.9 145.216 223.453 145.565 222.877 145.821C222.302 146.077 221.633 146.205 220.87 146.205C219.869 146.205 219.04 145.987 218.384 145.553C217.728 145.118 217.312 144.483 217.137 143.648L218.569 143.29C218.706 143.818 218.963 144.214 219.343 144.479C219.726 144.743 220.227 144.875 220.845 144.875C221.548 144.875 222.106 144.726 222.52 144.428C222.937 144.125 223.146 143.763 223.146 143.341C223.146 143 223.027 142.714 222.788 142.484C222.549 142.25 222.183 142.075 221.689 141.96L220.052 141.577C219.153 141.364 218.493 141.033 218.071 140.586C217.653 140.134 217.444 139.57 217.444 138.892C217.444 138.338 217.6 137.848 217.911 137.422C218.226 136.996 218.654 136.661 219.196 136.418C219.741 136.175 220.359 136.054 221.049 136.054C222.021 136.054 222.784 136.267 223.338 136.693C223.896 137.119 224.292 137.682 224.527 138.381ZM226.976 146V136.182H228.485V146H226.976ZM227.743 134.545C227.449 134.545 227.196 134.445 226.983 134.245C226.774 134.045 226.67 133.804 226.67 133.523C226.67 133.241 226.774 133.001 226.983 132.8C227.196 132.6 227.449 132.5 227.743 132.5C228.037 132.5 228.289 132.6 228.498 132.8C228.711 133.001 228.817 133.241 228.817 133.523C228.817 133.804 228.711 134.045 228.498 134.245C228.289 134.445 228.037 134.545 227.743 134.545ZM235.518 136.182V137.46H230.43V136.182H235.518ZM231.913 133.83H233.421V143.188C233.421 143.614 233.483 143.933 233.607 144.146C233.734 144.355 233.896 144.496 234.092 144.568C234.293 144.636 234.504 144.67 234.725 144.67C234.891 144.67 235.028 144.662 235.134 144.645C235.241 144.624 235.326 144.607 235.39 144.594L235.697 145.949C235.594 145.987 235.452 146.026 235.268 146.064C235.085 146.107 234.853 146.128 234.572 146.128C234.146 146.128 233.728 146.036 233.319 145.853C232.914 145.67 232.577 145.391 232.309 145.016C232.045 144.641 231.913 144.168 231.913 143.597V133.83ZM237.787 146V136.182H239.295V146H237.787ZM238.554 134.545C238.26 134.545 238.006 134.445 237.793 134.245C237.585 134.045 237.48 133.804 237.48 133.523C237.48 133.241 237.585 133.001 237.793 132.8C238.006 132.6 238.26 132.5 238.554 132.5C238.848 132.5 239.099 132.6 239.308 132.8C239.521 133.001 239.628 133.241 239.628 133.523C239.628 133.804 239.521 134.045 239.308 134.245C239.099 134.445 238.848 134.545 238.554 134.545ZM250.087 136.182L246.456 146H244.922L241.291 136.182H242.928L245.638 144.006H245.74L248.45 136.182H250.087ZM255.843 146.205C254.897 146.205 254.081 145.996 253.395 145.578C252.713 145.156 252.187 144.568 251.816 143.814C251.449 143.055 251.266 142.173 251.266 141.168C251.266 140.162 251.449 139.276 251.816 138.509C252.187 137.737 252.702 137.136 253.363 136.706C254.028 136.271 254.803 136.054 255.689 136.054C256.201 136.054 256.706 136.139 257.204 136.31C257.703 136.48 258.157 136.757 258.566 137.141C258.975 137.52 259.301 138.023 259.544 138.649C259.787 139.276 259.908 140.047 259.908 140.963V141.602H252.34V140.298H258.374C258.374 139.744 258.263 139.25 258.042 138.815C257.824 138.381 257.513 138.038 257.108 137.786C256.708 137.535 256.235 137.409 255.689 137.409C255.089 137.409 254.569 137.558 254.13 137.857C253.695 138.151 253.361 138.534 253.126 139.007C252.892 139.48 252.775 139.987 252.775 140.528V141.398C252.775 142.139 252.903 142.768 253.158 143.283C253.418 143.795 253.778 144.185 254.238 144.453C254.699 144.717 255.233 144.849 255.843 144.849C256.239 144.849 256.597 144.794 256.917 144.683C257.241 144.568 257.52 144.398 257.754 144.172C257.988 143.942 258.17 143.656 258.297 143.315L259.755 143.724C259.601 144.219 259.344 144.653 258.981 145.028C258.619 145.399 258.172 145.689 257.639 145.898C257.106 146.102 256.508 146.205 255.843 146.205ZM37.4091 162.182L33.7784 172H32.2443L28.6136 162.182H30.25L32.9602 170.006H33.0625L35.7727 162.182H37.4091ZM39.4002 172V162.182H40.9087V172H39.4002ZM40.1673 160.545C39.8732 160.545 39.6197 160.445 39.4066 160.245C39.1978 160.045 39.0934 159.804 39.0934 159.523C39.0934 159.241 39.1978 159.001 39.4066 158.8C39.6197 158.6 39.8732 158.5 40.1673 158.5C40.4613 158.5 40.7127 158.6 40.9215 158.8C41.1346 159.001 41.2411 159.241 41.2411 159.523C41.2411 159.804 41.1346 160.045 40.9215 160.245C40.7127 160.445 40.4613 160.545 40.1673 160.545ZM43.8762 172V158.909H45.3848V163.741H45.5126C45.6234 163.571 45.7768 163.354 45.9728 163.089C46.1731 162.821 46.4586 162.582 46.8294 162.374C47.2044 162.161 47.7115 162.054 48.3507 162.054C49.1774 162.054 49.9061 162.261 50.5368 162.674C51.1674 163.087 51.6596 163.673 52.0133 164.432C52.367 165.19 52.5439 166.085 52.5439 167.116C52.5439 168.156 52.367 169.058 52.0133 169.82C51.6596 170.579 51.1696 171.167 50.5431 171.585C49.9167 171.998 49.1944 172.205 48.3762 172.205C47.7456 172.205 47.2406 172.1 46.8613 171.891C46.4821 171.678 46.1902 171.437 45.9856 171.169C45.7811 170.896 45.6234 170.67 45.5126 170.491H45.3336V172H43.8762ZM45.3592 167.091C45.3592 167.832 45.4679 168.487 45.6852 169.053C45.9025 169.616 46.22 170.057 46.6376 170.376C47.0552 170.692 47.5666 170.849 48.1717 170.849C48.8024 170.849 49.3287 170.683 49.7505 170.351C50.1767 170.014 50.4963 169.562 50.7093 168.996C50.9267 168.425 51.0353 167.79 51.0353 167.091C51.0353 166.401 50.9288 165.778 50.7157 165.224C50.5069 164.666 50.1895 164.225 49.7633 163.901C49.3414 163.573 48.8109 163.409 48.1717 163.409C47.5581 163.409 47.0424 163.565 46.6248 163.876C46.2072 164.183 45.8919 164.613 45.6788 165.167C45.4657 165.717 45.3592 166.358 45.3592 167.091ZM58.9679 172.205C58.0218 172.205 57.2058 171.996 56.5197 171.578C55.8379 171.156 55.3116 170.568 54.9409 169.814C54.5744 169.055 54.3912 168.173 54.3912 167.168C54.3912 166.162 54.5744 165.276 54.9409 164.509C55.3116 163.737 55.8272 163.136 56.4877 162.706C57.1525 162.271 57.9281 162.054 58.8145 162.054C59.3258 162.054 59.8308 162.139 60.3294 162.31C60.8279 162.48 61.2818 162.757 61.6909 163.141C62.1 163.52 62.426 164.023 62.6689 164.649C62.9118 165.276 63.0332 166.047 63.0332 166.963V167.602H55.465V166.298H61.4991C61.4991 165.744 61.3883 165.25 61.1667 164.815C60.9494 164.381 60.6383 164.038 60.2335 163.786C59.8329 163.535 59.3599 163.409 58.8145 163.409C58.2136 163.409 57.6937 163.558 57.2548 163.857C56.8201 164.151 56.4856 164.534 56.2512 165.007C56.0169 165.48 55.8997 165.987 55.8997 166.528V167.398C55.8997 168.139 56.0275 168.768 56.2832 169.283C56.5431 169.795 56.9032 170.185 57.3635 170.453C57.8237 170.717 58.3585 170.849 58.9679 170.849C59.3642 170.849 59.7221 170.794 60.0417 170.683C60.3656 170.568 60.6447 170.398 60.8791 170.172C61.1135 169.942 61.2946 169.656 61.4224 169.315L62.8798 169.724C62.7264 170.219 62.4686 170.653 62.1064 171.028C61.7441 171.399 61.2967 171.689 60.764 171.898C60.2314 172.102 59.6326 172.205 58.9679 172.205ZM72.2825 164.381L70.9274 164.764C70.8422 164.538 70.7164 164.319 70.5502 164.106C70.3883 163.888 70.1667 163.71 69.8855 163.569C69.6042 163.428 69.2441 163.358 68.8052 163.358C68.2044 163.358 67.7037 163.496 67.3031 163.773C66.9068 164.046 66.7086 164.393 66.7086 164.815C66.7086 165.19 66.845 165.487 67.1177 165.704C67.3904 165.921 67.8166 166.102 68.3961 166.247L69.8535 166.605C70.7314 166.818 71.3855 167.144 71.8159 167.583C72.2463 168.018 72.4615 168.578 72.4615 169.264C72.4615 169.827 72.2995 170.33 71.9757 170.773C71.6561 171.216 71.2086 171.565 70.6333 171.821C70.0581 172.077 69.389 172.205 68.6262 172.205C67.6248 172.205 66.796 171.987 66.1397 171.553C65.4835 171.118 65.068 170.483 64.8933 169.648L66.3251 169.29C66.4615 169.818 66.7193 170.214 67.0985 170.479C67.4821 170.743 67.9828 170.875 68.6007 170.875C69.3038 170.875 69.862 170.726 70.2754 170.428C70.693 170.125 70.9018 169.763 70.9018 169.341C70.9018 169 70.7825 168.714 70.5439 168.484C70.3052 168.25 69.9387 168.075 69.4444 167.96L67.8081 167.577C66.9089 167.364 66.2484 167.033 65.8265 166.586C65.4089 166.134 65.2001 165.57 65.2001 164.892C65.2001 164.338 65.3556 163.848 65.6667 163.422C65.9821 162.996 66.4103 162.661 66.9515 162.418C67.497 162.175 68.1149 162.054 68.8052 162.054C69.7768 162.054 70.5396 162.267 71.0936 162.693C71.6518 163.119 72.0481 163.682 72.2825 164.381ZM75.8317 172.102C75.5163 172.102 75.2457 171.989 75.0199 171.763C74.794 171.538 74.6811 171.267 74.6811 170.952C74.6811 170.636 74.794 170.366 75.0199 170.14C75.2457 169.914 75.5163 169.801 75.8317 169.801C76.147 169.801 76.4176 169.914 76.6435 170.14C76.8693 170.366 76.9822 170.636 76.9822 170.952C76.9822 171.161 76.929 171.352 76.8224 171.527C76.7202 171.702 76.5817 171.842 76.407 171.949C76.2365 172.051 76.0447 172.102 75.8317 172.102Z" fill="#5C5C5C"/>
</svg>
