<svg width="282" height="39" viewBox="0 0 282 39" fill="none" xmlns="http://www.w3.org/2000/svg">
<g clip-path="url(#clip0_400_3772)">
<path d="M0.363798 17.5222C0.363798 12.59 2.77255 7.2468 3.97693 5.19172C15.9003 0.67055 55.2834 1.9036 68.652 1.9036C82.0206 1.9036 138.385 3.54766 154.283 5.60274C170.181 7.65782 223.655 5.60274 234.133 5.60274C244.612 5.60274 271.349 3.95868 278.214 9.30188C283.706 13.5764 281.465 24.2355 279.659 29.0306C278.695 31.2227 275.395 35.9357 269.903 37.251C263.039 38.895 217.513 37.251 210.287 37.251C203.061 37.251 136.579 35.1959 125.017 37.251C113.455 39.306 53.4768 37.662 40.8309 37.251C28.1849 36.8399 8.31269 37.662 3.97693 36.4289C-0.358828 35.1959 0.363798 23.6874 0.363798 17.5222Z" fill="url(#paint0_linear_400_3772)" fill-opacity="0.36"/>
</g>
<path d="M8.76044 29.3184L4.56754 14.479H8.13247L10.741 24.9129H10.8762L13.5427 14.479H17.069L19.7354 24.8549H19.8803L22.4502 14.479H26.0248L21.8222 29.3184H18.18L15.3976 19.2902H15.1947L12.4123 29.3184H8.76044ZM34.5144 29.6082C33.0652 29.6082 31.8093 29.2894 30.7466 28.6517C29.6839 28.0141 28.8595 27.1221 28.2734 25.9756C27.6937 24.8292 27.4039 23.4895 27.4039 21.9566C27.4039 20.4237 27.6937 19.0809 28.2734 17.928C28.8595 16.7751 29.6839 15.8798 30.7466 15.2422C31.8093 14.6046 33.0652 14.2857 34.5144 14.2857C35.9636 14.2857 37.2195 14.6046 38.2822 15.2422C39.3449 15.8798 40.1661 16.7751 40.7458 17.928C41.3319 19.0809 41.6249 20.4237 41.6249 21.9566C41.6249 23.4895 41.3319 24.8292 40.7458 25.9756C40.1661 27.1221 39.3449 28.0141 38.2822 28.6517C37.2195 29.2894 35.9636 29.6082 34.5144 29.6082ZM34.5337 26.8065C35.3195 26.8065 35.9764 26.5907 36.5046 26.1592C37.0327 25.7212 37.4256 25.1351 37.6832 24.4009C37.9473 23.6666 38.0793 22.8487 38.0793 21.947C38.0793 21.0388 37.9473 20.2176 37.6832 19.4834C37.4256 18.7427 37.0327 18.1534 36.5046 17.7154C35.9764 17.2775 35.3195 17.0585 34.5337 17.0585C33.7286 17.0585 33.0588 17.2775 32.5242 17.7154C31.9961 18.1534 31.6 18.7427 31.3359 19.4834C31.0783 20.2176 30.9495 21.0388 30.9495 21.947C30.9495 22.8487 31.0783 23.6666 31.3359 24.4009C31.6 25.1351 31.9961 25.7212 32.5242 26.1592C33.0588 26.5907 33.7286 26.8065 34.5337 26.8065ZM44.5933 29.3184V14.479H47.936V17.0005H48.1099C48.4191 16.1503 48.9311 15.4869 49.646 15.0103C50.361 14.5273 51.2144 14.2857 52.2062 14.2857C53.211 14.2857 54.0579 14.5305 54.7471 15.02C55.4427 15.503 55.9322 16.1632 56.2156 17.0005H56.3701C56.6986 16.1761 57.2525 15.5191 58.0318 15.0297C58.8176 14.5337 59.7483 14.2857 60.8239 14.2857C62.1893 14.2857 63.3036 14.7173 64.1666 15.5803C65.0297 16.4434 65.4612 17.7025 65.4612 19.3578V29.3184H61.9542V19.8988C61.9542 18.9778 61.7095 18.3048 61.22 17.8797C60.7305 17.4481 60.1315 17.2324 59.423 17.2324C58.5793 17.2324 57.9191 17.4964 57.4425 18.0246C56.9723 18.5463 56.7373 19.2258 56.7373 20.0631V29.3184H53.3076V19.7539C53.3076 18.9875 53.0757 18.3756 52.612 17.9183C52.1547 17.461 51.5557 17.2324 50.815 17.2324C50.3127 17.2324 49.8554 17.3612 49.4432 17.6188C49.031 17.87 48.7025 18.2275 48.4577 18.6912C48.213 19.1485 48.0906 19.6831 48.0906 20.2949V29.3184H44.5933ZM75.5787 29.6082C74.0909 29.6082 72.806 29.299 71.724 28.6807C70.6484 28.056 69.8208 27.1736 69.2411 26.0336C68.6614 24.8872 68.3716 23.5378 68.3716 21.9856C68.3716 20.4592 68.6614 19.1195 69.2411 17.9666C69.8272 16.8073 70.6452 15.9056 71.695 15.2615C72.7448 14.611 73.9782 14.2857 75.3952 14.2857C76.3098 14.2857 77.1728 14.4339 77.9843 14.7302C78.8023 15.02 79.5237 15.4708 80.1484 16.0827C80.7796 16.6946 81.2755 17.4739 81.6362 18.4207C81.9969 19.361 82.1772 20.4817 82.1772 21.7827V22.8551H70.014V20.4978H78.8249C78.8184 19.828 78.6735 19.2322 78.3901 18.7105C78.1067 18.1824 77.7106 17.767 77.2018 17.4642C76.6994 17.1615 76.1133 17.0102 75.4435 17.0102C74.7286 17.0102 74.1006 17.1841 73.5596 17.5319C73.0186 17.8732 72.5967 18.3241 72.294 18.8844C71.9977 19.4383 71.8464 20.047 71.8399 20.7104V22.7682C71.8399 23.6312 71.9977 24.3719 72.3133 24.9902C72.6289 25.6021 73.0701 26.0722 73.6369 26.4007C74.2037 26.7228 74.867 26.8838 75.627 26.8838C76.1359 26.8838 76.5964 26.8129 77.0086 26.6712C77.4208 26.5231 77.7782 26.3073 78.081 26.0239C78.3837 25.7405 78.6123 25.3895 78.7669 24.9709L82.0323 25.338C81.8262 26.2011 81.4333 26.9546 80.8537 27.5987C80.2805 28.2363 79.5462 28.7323 78.651 29.0865C77.7557 29.4343 76.7316 29.6082 75.5787 29.6082ZM88.6333 20.6234V29.3184H85.1359V14.479H88.4787V17.0005H88.6526C88.9939 16.1697 89.5382 15.5095 90.2853 15.02C91.0389 14.5305 91.9695 14.2857 93.0773 14.2857C94.1014 14.2857 94.9934 14.5047 95.7535 14.9427C96.5199 15.3807 97.1124 16.0151 97.5311 16.8459C97.9562 17.6768 98.1655 18.6848 98.1591 19.8698V29.3184H94.6618V20.4109C94.6618 19.419 94.4041 18.6429 93.8889 18.0825C93.3801 17.5222 92.6748 17.242 91.7731 17.242C91.1612 17.242 90.617 17.3773 90.1404 17.6478C89.6702 17.9119 89.2999 18.2951 89.0294 18.7975C88.7653 19.2998 88.6333 19.9085 88.6333 20.6234ZM113.969 29.5792C112.804 29.5792 111.76 29.2797 110.839 28.6807C109.918 28.0817 109.19 27.2122 108.656 26.0722C108.121 24.9322 107.854 23.5475 107.854 21.918C107.854 20.2692 108.124 18.878 108.665 17.7444C109.213 16.6044 109.95 15.7446 110.878 15.1649C111.805 14.5788 112.839 14.2857 113.979 14.2857C114.849 14.2857 115.563 14.4339 116.124 14.7302C116.684 15.02 117.129 15.371 117.457 15.7832C117.785 16.189 118.04 16.5722 118.22 16.9329H118.365V9.53251H121.872V29.3184H118.433V26.9804H118.22C118.04 27.3411 117.779 27.7243 117.438 28.13C117.096 28.5294 116.645 28.8707 116.085 29.1541C115.525 29.4375 114.82 29.5792 113.969 29.5792ZM114.945 26.7099C115.686 26.7099 116.317 26.5102 116.839 26.1109C117.36 25.7051 117.757 25.1416 118.027 24.4202C118.298 23.6988 118.433 22.8583 118.433 21.8987C118.433 20.939 118.298 20.1049 118.027 19.3965C117.763 18.688 117.37 18.1373 116.848 17.7444C116.333 17.3515 115.699 17.1551 114.945 17.1551C114.166 17.1551 113.515 17.358 112.994 17.7637C112.472 18.1695 112.079 18.7298 111.815 19.4448C111.551 20.1597 111.419 20.9776 111.419 21.8987C111.419 22.8261 111.551 23.6538 111.815 24.3816C112.085 25.1029 112.482 25.6729 113.003 26.0916C113.531 26.5038 114.179 26.7099 114.945 26.7099ZM132.168 29.6082C130.681 29.6082 129.396 29.299 128.314 28.6807C127.238 28.056 126.41 27.1736 125.831 26.0336C125.251 24.8872 124.961 23.5378 124.961 21.9856C124.961 20.4592 125.251 19.1195 125.831 17.9666C126.417 16.8073 127.235 15.9056 128.285 15.2615C129.334 14.611 130.568 14.2857 131.985 14.2857C132.899 14.2857 133.762 14.4339 134.574 14.7302C135.392 15.02 136.113 15.4708 136.738 16.0827C137.369 16.6946 137.865 17.4739 138.226 18.4207C138.587 19.361 138.767 20.4817 138.767 21.7827V22.8551H126.604V20.4978H135.415C135.408 19.828 135.263 19.2322 134.98 18.7105C134.696 18.1824 134.3 17.767 133.791 17.4642C133.289 17.1615 132.703 17.0102 132.033 17.0102C131.318 17.0102 130.69 17.1841 130.149 17.5319C129.608 17.8732 129.186 18.3241 128.884 18.8844C128.587 19.4383 128.436 20.047 128.43 20.7104V22.7682C128.43 23.6312 128.587 24.3719 128.903 24.9902C129.219 25.6021 129.66 26.0722 130.227 26.4007C130.793 26.7228 131.457 26.8838 132.217 26.8838C132.726 26.8838 133.186 26.8129 133.598 26.6712C134.01 26.5231 134.368 26.3073 134.671 26.0239C134.973 25.7405 135.202 25.3895 135.357 24.9709L138.622 25.338C138.416 26.2011 138.023 26.9546 137.443 27.5987C136.87 28.2363 136.136 28.7323 135.241 29.0865C134.345 29.4343 133.321 29.6082 132.168 29.6082ZM153.454 18.4014L150.266 18.7492C150.176 18.4271 150.018 18.1244 149.793 17.841C149.574 17.5576 149.277 17.329 148.904 17.1551C148.53 16.9812 148.073 16.8942 147.532 16.8942C146.804 16.8942 146.192 17.052 145.696 17.3676C145.207 17.6832 144.965 18.0922 144.972 18.5946C144.965 19.0261 145.123 19.3771 145.445 19.6476C145.774 19.9181 146.315 20.1404 147.068 20.3143L149.599 20.8553C151.003 21.158 152.047 21.6378 152.73 22.2948C153.419 22.9517 153.767 23.8116 153.773 24.8743C153.767 25.8082 153.493 26.6326 152.952 27.3475C152.417 28.056 151.673 28.6099 150.72 29.0092C149.767 29.4085 148.672 29.6082 147.435 29.6082C145.619 29.6082 144.157 29.2282 143.049 28.4682C141.941 27.7017 141.281 26.6358 141.069 25.2704L144.479 24.9419C144.634 25.6117 144.962 26.1173 145.464 26.4587C145.967 26.8 146.621 26.9707 147.426 26.9707C148.256 26.9707 148.923 26.8 149.425 26.4587C149.934 26.1173 150.189 25.6955 150.189 25.1931C150.189 24.768 150.024 24.417 149.696 24.14C149.374 23.8631 148.872 23.6505 148.189 23.5024L145.658 22.971C144.234 22.6748 143.181 22.1756 142.498 21.4736C141.816 20.7651 141.478 19.8698 141.484 18.7878C141.478 17.8732 141.726 17.081 142.228 16.4112C142.737 15.7349 143.442 15.2132 144.344 14.8461C145.252 14.4725 146.299 14.2857 147.484 14.2857C149.223 14.2857 150.591 14.6561 151.59 15.3968C152.594 16.1375 153.216 17.139 153.454 18.4014ZM163.226 29.6082C161.738 29.6082 160.454 29.299 159.372 28.6807C158.296 28.056 157.468 27.1736 156.889 26.0336C156.309 24.8872 156.019 23.5378 156.019 21.9856C156.019 20.4592 156.309 19.1195 156.889 17.9666C157.475 16.8073 158.293 15.9056 159.343 15.2615C160.392 14.611 161.626 14.2857 163.043 14.2857C163.957 14.2857 164.82 14.4339 165.632 14.7302C166.45 15.02 167.171 15.4708 167.796 16.0827C168.427 16.6946 168.923 17.4739 169.284 18.4207C169.644 19.361 169.825 20.4817 169.825 21.7827V22.8551H157.662V20.4978H166.472C166.466 19.828 166.321 19.2322 166.038 18.7105C165.754 18.1824 165.358 17.767 164.849 17.4642C164.347 17.1615 163.761 17.0102 163.091 17.0102C162.376 17.0102 161.748 17.1841 161.207 17.5319C160.666 17.8732 160.244 18.3241 159.942 18.8844C159.645 19.4383 159.494 20.047 159.487 20.7104V22.7682C159.487 23.6312 159.645 24.3719 159.961 24.9902C160.276 25.6021 160.718 26.0722 161.284 26.4007C161.851 26.7228 162.515 26.8838 163.275 26.8838C163.783 26.8838 164.244 26.8129 164.656 26.6712C165.068 26.5231 165.426 26.3073 165.729 26.0239C166.031 25.7405 166.26 25.3895 166.414 24.9709L169.68 25.338C169.474 26.2011 169.081 26.9546 168.501 27.5987C167.928 28.2363 167.194 28.7323 166.299 29.0865C165.403 29.4343 164.379 29.6082 163.226 29.6082ZM172.783 29.3184V14.479H176.175V16.9522H176.329C176.6 16.0956 177.063 15.4354 177.72 14.9717C178.384 14.5015 179.14 14.2664 179.991 14.2664C180.184 14.2664 180.4 14.2761 180.638 14.2954C180.883 14.3083 181.086 14.3308 181.247 14.363V17.5802C181.098 17.5286 180.863 17.4836 180.541 17.4449C180.226 17.3998 179.92 17.3773 179.624 17.3773C178.986 17.3773 178.413 17.5158 177.904 17.7927C177.401 18.0632 177.005 18.44 176.716 18.9231C176.426 19.4061 176.281 19.9632 176.281 20.5944V29.3184H172.783ZM197.277 14.479L191.992 29.3184H188.128L182.843 14.479H186.572L189.983 25.5022H190.137L193.557 14.479H197.277ZM205.762 29.6082C204.274 29.6082 202.989 29.299 201.907 28.6807C200.831 28.056 200.004 27.1736 199.424 26.0336C198.844 24.8872 198.554 23.5378 198.554 21.9856C198.554 20.4592 198.844 19.1195 199.424 17.9666C200.01 16.8073 200.828 15.9056 201.878 15.2615C202.928 14.611 204.161 14.2857 205.578 14.2857C206.493 14.2857 207.356 14.4339 208.167 14.7302C208.985 15.02 209.706 15.4708 210.331 16.0827C210.962 16.6946 211.458 17.4739 211.819 18.4207C212.18 19.361 212.36 20.4817 212.36 21.7827V22.8551H200.197V20.4978H209.008C209.001 19.828 208.856 19.2322 208.573 18.7105C208.29 18.1824 207.893 17.767 207.385 17.4642C206.882 17.1615 206.296 17.0102 205.626 17.0102C204.911 17.0102 204.283 17.1841 203.742 17.5319C203.201 17.8732 202.779 18.3241 202.477 18.8844C202.18 19.4383 202.029 20.047 202.023 20.7104V22.7682C202.023 23.6312 202.18 24.3719 202.496 24.9902C202.812 25.6021 203.253 26.0722 203.82 26.4007C204.386 26.7228 205.05 26.8838 205.81 26.8838C206.319 26.8838 206.779 26.8129 207.191 26.6712C207.604 26.5231 207.961 26.3073 208.264 26.0239C208.566 25.7405 208.795 25.3895 208.95 24.9709L212.215 25.338C212.009 26.2011 211.616 26.9546 211.036 27.5987C210.463 28.2363 209.729 28.7323 208.834 29.0865C207.938 29.4343 206.914 29.6082 205.762 29.6082ZM228.54 29.6082C227.059 29.6082 225.786 29.2829 224.724 28.6324C223.667 27.9819 222.853 27.0834 222.28 25.937C221.713 24.7841 221.429 23.4573 221.429 21.9566C221.429 20.4495 221.719 19.1195 222.299 17.9666C222.879 16.8073 223.696 15.9056 224.753 15.2615C225.815 14.611 227.071 14.2857 228.521 14.2857C229.725 14.2857 230.791 14.508 231.718 14.9524C232.652 15.3903 233.396 16.0119 233.95 16.8169C234.504 17.6156 234.82 18.5495 234.897 19.6187H231.554C231.419 18.9037 231.097 18.308 230.588 17.8314C230.086 17.3483 229.413 17.1068 228.569 17.1068C227.854 17.1068 227.226 17.3 226.685 17.6864C226.144 18.0664 225.722 18.6139 225.419 19.3288C225.123 20.0437 224.975 20.9004 224.975 21.8987C224.975 22.9099 225.123 23.7794 225.419 24.5072C225.716 25.2285 226.131 25.7856 226.666 26.1785C227.207 26.565 227.841 26.7582 228.569 26.7582C229.084 26.7582 229.545 26.6616 229.95 26.4683C230.363 26.2687 230.707 25.9821 230.984 25.6085C231.261 25.235 231.451 24.7809 231.554 24.2463H234.897C234.813 25.2961 234.504 26.2268 233.969 27.0383C233.435 27.8434 232.707 28.4746 231.786 28.9319C230.865 29.3828 229.783 29.6082 228.54 29.6082ZM242.039 29.6179C241.098 29.6179 240.252 29.4504 239.498 29.1155C238.751 28.7741 238.158 28.2717 237.72 27.6084C237.289 26.945 237.073 26.127 237.073 25.1544C237.073 24.3172 237.228 23.6248 237.537 23.0773C237.846 22.5299 238.268 22.0919 238.802 21.7634C239.337 21.4349 239.939 21.187 240.609 21.0195C241.285 20.8456 241.984 20.72 242.705 20.6427C243.575 20.5526 244.28 20.472 244.821 20.4012C245.362 20.3239 245.755 20.208 246 20.0534C246.251 19.8924 246.377 19.6444 246.377 19.3095V19.2515C246.377 18.5237 246.161 17.9602 245.729 17.5608C245.298 17.1615 244.676 16.9619 243.865 16.9619C243.008 16.9619 242.329 17.1486 241.826 17.5222C241.33 17.8958 240.995 18.337 240.822 18.8458L237.556 18.382C237.814 17.4803 238.239 16.7268 238.831 16.1214C239.424 15.5095 240.148 15.0522 241.005 14.7495C241.862 14.4403 242.808 14.2857 243.845 14.2857C244.56 14.2857 245.272 14.3695 245.981 14.5369C246.689 14.7044 247.336 14.9813 247.922 15.3678C248.509 15.7478 248.979 16.2663 249.333 16.9232C249.694 17.5802 249.874 18.4014 249.874 19.3868V29.3184H246.512V27.2799H246.396C246.183 27.6921 245.884 28.0785 245.497 28.4392C245.117 28.7934 244.638 29.0801 244.058 29.299C243.485 29.5116 242.812 29.6179 242.039 29.6179ZM242.947 27.048C243.649 27.048 244.258 26.9095 244.773 26.6326C245.288 26.3492 245.684 25.9756 245.961 25.5119C246.245 25.0482 246.386 24.5426 246.386 23.9951V22.2465C246.277 22.3366 246.09 22.4204 245.826 22.4977C245.568 22.5749 245.278 22.6426 244.956 22.7005C244.634 22.7585 244.316 22.81 244 22.8551C243.684 22.9002 243.411 22.9388 243.179 22.971C242.657 23.0419 242.19 23.1578 241.778 23.3188C241.366 23.4799 241.041 23.7053 240.802 23.9951C240.564 24.2785 240.445 24.6456 240.445 25.0965C240.445 25.7405 240.68 26.2268 241.15 26.5553C241.62 26.8838 242.219 27.048 242.947 27.048ZM253.391 29.3184V14.479H256.782V16.9522H256.936C257.207 16.0956 257.67 15.4354 258.327 14.9717C258.991 14.5015 259.748 14.2664 260.598 14.2664C260.791 14.2664 261.007 14.2761 261.245 14.2954C261.49 14.3083 261.693 14.3308 261.854 14.363V17.5802C261.706 17.5286 261.47 17.4836 261.148 17.4449C260.833 17.3998 260.527 17.3773 260.231 17.3773C259.593 17.3773 259.02 17.5158 258.511 17.7927C258.009 18.0632 257.612 18.44 257.323 18.9231C257.033 19.4061 256.888 19.9632 256.888 20.5944V29.3184H253.391ZM270.136 29.6082C268.648 29.6082 267.363 29.299 266.281 28.6807C265.205 28.056 264.378 27.1736 263.798 26.0336C263.218 24.8872 262.928 23.5378 262.928 21.9856C262.928 20.4592 263.218 19.1195 263.798 17.9666C264.384 16.8073 265.202 15.9056 266.252 15.2615C267.302 14.611 268.535 14.2857 269.952 14.2857C270.867 14.2857 271.73 14.4339 272.541 14.7302C273.359 15.02 274.081 15.4708 274.705 16.0827C275.336 16.6946 275.832 17.4739 276.193 18.4207C276.554 19.361 276.734 20.4817 276.734 21.7827V22.8551H264.571V20.4978H273.382C273.375 19.828 273.23 19.2322 272.947 18.7105C272.664 18.1824 272.267 17.767 271.759 17.4642C271.256 17.1615 270.67 17.0102 270 17.0102C269.285 17.0102 268.657 17.1841 268.116 17.5319C267.575 17.8732 267.154 18.3241 266.851 18.8844C266.555 19.4383 266.403 20.047 266.397 20.7104V22.7682C266.397 23.6312 266.555 24.3719 266.87 24.9902C267.186 25.6021 267.627 26.0722 268.194 26.4007C268.76 26.7228 269.424 26.8838 270.184 26.8838C270.693 26.8838 271.153 26.8129 271.565 26.6712C271.978 26.5231 272.335 26.3073 272.638 26.0239C272.941 25.7405 273.169 25.3895 273.324 24.9709L276.589 25.338C276.383 26.2011 275.99 26.9546 275.411 27.5987C274.837 28.2363 274.103 28.7323 273.208 29.0865C272.313 29.4343 271.288 29.6082 270.136 29.6082Z" fill="#2B2B2B"/>
<defs>
<linearGradient id="paint0_linear_400_3772" x1="0.318634" y1="20.0064" x2="281.681" y2="20.0064" gradientUnits="userSpaceOnUse">
<stop stop-color="#984D95"/>
<stop offset="1" stop-color="#D39CC0"/>
</linearGradient>
<clipPath id="clip0_400_3772">
<rect width="281.363" height="36.5127" fill="white" transform="translate(0.318665 1.75)"/>
</clipPath>
</defs>
</svg>
